<?xml version="1.0" encoding="utf-8"?>
<!-- Generator: Adobe Illustrator 22.1.0, SVG Export Plug-In . SVG Version: 6.00 Build 0)  -->
<svg version="1.1" id="Layer_2" xmlns="http://www.w3.org/2000/svg" xmlns:xlink="http://www.w3.org/1999/xlink" x="0px" y="0px"
	 viewBox="0 0 85 85" style="enable-background:new 0 0 85 85;" xml:space="preserve">
<style type="text/css">
	.st0{fill:#00ADEF;stroke:#000000;stroke-width:2;stroke-miterlimit:10;}
	.st1{fill:none;stroke:#000000;stroke-width:2;stroke-miterlimit:10;}
	.st2{fill:none;stroke:#E84C3D;stroke-miterlimit:10;}
	.st3{fill:none;stroke:#FFF8D1;stroke-miterlimit:10;}
	.st4{fill:none;stroke:#F0B465;stroke-width:2;stroke-miterlimit:10;}
</style>
<g>
	<path class="st0" d="M74.7,43.2H10.3c-3.7,0-6.8-3.1-6.8-6.8V19.6c0-3.7,3.1-6.8,6.8-6.8h64.4c3.7,0,6.8,3.1,6.8,6.8v16.8
		C81.5,40.1,78.4,43.2,74.7,43.2z"/>
	<line class="st1" x1="4.3" y1="30" x2="81.5" y2="30"/>
	<line class="st2" x1="56.2" y1="36.1" x2="61.5" y2="36.1"/>
	<line class="st3" x1="64.7" y1="36.1" x2="70" y2="36.1"/>
	<path class="st4" d="M18.4,54.2c0,0,4.9,2.5,0.8,7s0.3,10,0.3,10"/>
	<path class="st4" d="M33.9,54.2c0,0,4.9,2.5,0.8,7s0.3,10,0.3,10"/>
	<path class="st4" d="M49.5,54.2c0,0,4.9,2.5,0.8,7s0.3,10,0.3,10"/>
	<path class="st4" d="M64.9,54.2c0,0,4.9,2.5,0.8,7s0.3,10,0.3,10"/>
</g>
<g>
</g>
<g>
</g>
<g>
</g>
<g>
</g>
<g>
</g>
<g>
</g>
<g>
</g>
<g>
</g>
<g>
</g>
<g>
</g>
<g>
</g>
<g>
</g>
<g>
</g>
<g>
</g>
<g>
</g>
</svg>
