<?xml version="1.0" encoding="utf-8"?>
<!-- Generator: Adobe Illustrator 24.2.0, SVG Export Plug-In . SVG Version: 6.00 Build 0)  -->
<svg version="1.1" xmlns="http://www.w3.org/2000/svg" xmlns:xlink="http://www.w3.org/1999/xlink" x="0px" y="0px"
	 viewBox="0 0 750 500" style="enable-background:new 0 0 750 500;" xml:space="preserve">
<style type="text/css">
	.st0{display:none;}
	.st1{fill:#FFF4E5;}
	.st2{fill:#A1C5E1;}
</style>
<g id="BACKGROUND" class="st0">
</g>
<g id="OBJECTS">
	<g>
		<g>
			<path class="st1" d="M263.7,65.6c-50.2-1-96.9,20.6-111.5,61.4c-8.7,24.1-7.4,52.9-23.8,72.2c-16.2,19.1-44.5,22.1-62.9,39
				c-14.5,13.3-21.3,34.2-20.4,54.2c0.9,20,8.9,39.1,19.8,55.7c34.4,52.3,100.8,80,160.7,66.9c39.9-8.7,77.3-33.6,118-30.8
				c34.5,2.4,64.4,24.2,96.5,37.3c60.5,24.6,132.4,16.5,186.3-20.9c21.4-14.8,40.5-34.7,49.7-59.5c9.2-24.8,7.2-55.1-9.5-75.4
				c-16.9-20.6-47.6-39.7-87.2-33.4c-25.9,4.2-77.2,33.5-123.8,25.8c-25.9-4.3-87.8-11.6-92.4-107.8
				C361.5,110.7,331.8,67,263.7,65.6z"/>
			<path class="st2" d="M43.9,165.8c3,5.9,10.1,9.1,16.7,8.6c6.6-0.5,12.7-4.3,17-9.4c3.8-4.4,6.4-10.5,4.5-16
				c-2.2-6.4-10-9.6-16.7-8.7C54.3,141.8,37,152.3,43.9,165.8z"/>
			<path class="st2" d="M588.2,72.5c3,5.9,10.1,9.1,16.7,8.6c6.6-0.5,12.7-4.3,17-9.4c3.8-4.4,6.4-10.5,4.5-16
				c-2.2-6.4-10-9.6-16.7-8.7C598.6,48.4,581.3,59,588.2,72.5z"/>
			<path class="st2" d="M171.5,400.1c-6.8,3.5-10.6,11.6-10,19.2c0.6,7.6,4.9,14.7,10.7,19.7c5.1,4.4,12.1,7.4,18.4,5.3
				c7.5-2.5,11.1-11.5,10.2-19.3C199.3,412.2,187.1,392.2,171.5,400.1z"/>
			<path class="st2" d="M89.5,49.1c-4.6,1.3-7.6,5.5-7.8,9.8c-0.3,4.3,1.9,8.6,5.1,12c2.8,2.9,7,5.3,11.1,4.6
				c4.9-0.7,7.9-5.4,7.9-9.9C105.8,58.4,99.8,46.1,89.5,49.1z"/>
			<path class="st2" d="M10.8,205.9c-3.2,0.7-5.2,3.3-5.4,6c-0.1,2.7,1.4,5.4,3.8,7.4c2,1.8,5,3.3,7.9,3c3.4-0.4,5.5-3.2,5.4-6
				C22.5,211.8,18.1,204.2,10.8,205.9z"/>
			<path class="st2" d="M30.2,98.5c2.4-2.2,2.9-5.5,1.7-7.9c-1.2-2.4-3.9-3.9-7-4.6c-2.7-0.6-6-0.4-8.3,1.3c-2.8,2-3.1,5.5-1.7,7.9
				C17.2,99.1,24.8,103.6,30.2,98.5z"/>
			<path class="st1" d="M272.3,92.6c-4.6,1.3-7.6,5.5-7.8,9.8c-0.3,4.3,1.9,8.6,5.1,12c2.8,2.9,7,5.3,11.1,4.6
				c4.9-0.7,7.9-5.4,7.9-9.9C288.7,101.9,282.7,89.6,272.3,92.6z"/>
			<path class="st2" d="M76.8,352.4c-0.6-2.9-3-5-5.7-5.4c-2.7-0.4-5.5,0.7-7.8,2.5c-2,1.6-3.7,4.1-3.5,6.7c0.2,3.1,2.9,5.2,5.7,5.5
				C70.1,362.1,78.1,359.1,76.8,352.4z"/>
			<path class="st2" d="M350.9,430.5c-2.1,4.2-1,9.3,2,12.4c3,3.1,7.7,4.4,12.3,4.3c4-0.1,8.6-1.6,10.9-5c2.8-4.1,1.3-9.4-1.9-12.5
				C368.8,424.7,355.7,420.8,350.9,430.5z"/>
		</g>
	</g>
	<g>
	</g>
	<g>
	</g>
	<g>
	</g>
	<g>
	</g>
	<g>
	</g>
	<g>
	</g>
	<g>
	</g>
	<g>
	</g>
	<g>
	</g>
	<g>
	</g>
	<g>
	</g>
	<g>
	</g>
	<g>
	</g>
	<g>
	</g>
	<g>
	</g>
</g>
</svg>
