<?xml version="1.0" encoding="utf-8"?>
<!-- Generator: Adobe Illustrator 22.1.0, SVG Export Plug-In . SVG Version: 6.00 Build 0)  -->
<svg version="1.1" id="Layer_1" xmlns="http://www.w3.org/2000/svg" xmlns:xlink="http://www.w3.org/1999/xlink" x="0px" y="0px"
	 viewBox="0 0 85 85" style="enable-background:new 0 0 85 85;" xml:space="preserve">
<style type="text/css">
	.st0{fill:#707384;}
	.st1{clip-path:url(#SVGID_2_);}
	.st2{clip-path:url(#SVGID_2_);fill:#FACA44;}
	.st3{clip-path:url(#SVGID_2_);fill:#E84C3D;}
	.st4{clip-path:url(#SVGID_2_);fill:#4BBFE8;}
	.st5{clip-path:url(#SVGID_2_);fill:#FFF8D1;}
</style>
<rect x="3.6" y="23.3" class="st0" width="77.8" height="48.1"/>
<g>
	<defs>
		<rect id="SVGID_1_" x="2.9" y="12.6" width="79.1" height="59.4"/>
	</defs>
	<clipPath id="SVGID_2_">
		<use xlink:href="#SVGID_1_"  style="overflow:visible;"/>
	</clipPath>
	<path class="st1" d="M81.4,72H3.6c-0.4,0-0.7-0.3-0.7-0.7V23.3c0-0.4,0.3-0.7,0.7-0.7h77.8c0.4,0,0.6,0.3,0.6,0.7v48.1
		C82.1,71.7,81.8,72,81.4,72 M4.2,70.7h76.5V23.9H4.2V70.7z"/>
	<path class="st2" d="M55.7,31.5c8.7,0,15.8,7.1,15.8,15.8c0,8.7-7.1,15.8-15.8,15.8S39.9,56,39.9,47.3C39.9,38.6,47,31.5,55.7,31.5
		"/>
	<path class="st1" d="M55.7,63.8c-9.1,0-16.4-7.4-16.4-16.5c0-9.1,7.4-16.4,16.4-16.4c9.1,0,16.4,7.4,16.4,16.4
		C72.1,56.4,64.8,63.8,55.7,63.8 M55.7,32.2c-8.4,0-15.1,6.8-15.1,15.1c0,8.4,6.8,15.2,15.1,15.2c8.3,0,15.1-6.8,15.1-15.2
		C70.8,39,64.1,32.2,55.7,32.2"/>
	<path class="st3" d="M55.7,39.7c4.2,0,7.6,3.4,7.6,7.6c0,4.2-3.4,7.6-7.6,7.6s-7.6-3.4-7.6-7.6C48.1,43.1,51.5,39.7,55.7,39.7"/>
	<path class="st1" d="M55.7,55.5c-4.5,0-8.2-3.7-8.2-8.2s3.7-8.2,8.2-8.2s8.2,3.7,8.2,8.2S60.2,55.5,55.7,55.5 M55.7,40.4
		c-3.8,0-6.9,3.1-6.9,6.9c0,3.8,3.1,6.9,6.9,6.9s6.9-3.1,6.9-6.9C62.6,43.5,59.5,40.4,55.7,40.4"/>
	<rect x="8.1" y="28" class="st4" width="19.7" height="8.7"/>
	<path class="st1" d="M27.8,37.4H8.1c-0.4,0-0.7-0.3-0.7-0.7V28c0-0.4,0.3-0.6,0.7-0.6h19.7c0.4,0,0.6,0.3,0.6,0.6v8.7
		C28.5,37.1,28.2,37.4,27.8,37.4 M8.8,36.1h18.4v-7.4H8.8V36.1z"/>
	<polygon class="st5" points="24.9,13.2 60.1,13.2 58.1,23.3 26.9,23.3 	"/>
	<path class="st1" d="M58.1,23.9H26.9c-0.3,0-0.6-0.2-0.6-0.5l-2-10c0-0.2,0-0.4,0.1-0.5c0.1-0.1,0.3-0.2,0.5-0.2h35.2
		c0.2,0,0.4,0.1,0.5,0.2c0.1,0.2,0.2,0.3,0.1,0.5l-2,10C58.7,23.7,58.4,23.9,58.1,23.9 M27.4,22.6h30.1l1.7-8.7H25.7L27.4,22.6z"/>
	<rect x="64.7" y="17.1" class="st5" width="11.8" height="6.2"/>
	<path class="st1" d="M76.6,23.9H64.7c-0.4,0-0.6-0.3-0.6-0.7v-6.2c0-0.4,0.3-0.6,0.6-0.6h11.8c0.4,0,0.7,0.3,0.7,0.6v6.2
		C77.2,23.6,76.9,23.9,76.6,23.9 M65.4,22.6h10.5v-4.9H65.4V22.6z"/>
</g>
<g>
</g>
<g>
</g>
<g>
</g>
<g>
</g>
<g>
</g>
<g>
</g>
<g>
</g>
<g>
</g>
<g>
</g>
<g>
</g>
<g>
</g>
<g>
</g>
<g>
</g>
<g>
</g>
<g>
</g>
</svg>
