<?xml version="1.0" encoding="utf-8"?>
<!-- Generator: Adobe Illustrator 22.1.0, SVG Export Plug-In . SVG Version: 6.00 Build 0)  -->
<svg version="1.1" id="Layer_2" xmlns="http://www.w3.org/2000/svg" xmlns:xlink="http://www.w3.org/1999/xlink" x="0px" y="0px"
	 viewBox="0 0 85 85" style="enable-background:new 0 0 85 85;" xml:space="preserve">
<style type="text/css">
	.st0{clip-path:url(#SVGID_2_);fill:#707384;}
	.st1{clip-path:url(#SVGID_2_);}
	.st2{clip-path:url(#SVGID_2_);fill:#FFF8D1;}
	.st3{clip-path:url(#SVGID_2_);fill:#E84C3D;}
</style>
<g>
	<defs>
		<rect id="SVGID_1_" x="18.9" y="1.8" width="47.2" height="79.2"/>
	</defs>
	<clipPath id="SVGID_2_">
		<use xlink:href="#SVGID_1_"  style="overflow:visible;"/>
	</clipPath>
	<path class="st0" d="M31.8,17.2h33.6V32c0,8.1-6.6,14.7-14.7,14.7h-4.2c-8.1,0-14.7-6.6-14.7-14.7V17.2z"/>
	<path class="st1" d="M50.7,47.3h-4.2c-8.5,0-15.4-6.9-15.4-15.4V17.2c0-0.4,0.3-0.7,0.7-0.7h33.6c0.4,0,0.6,0.3,0.6,0.7V32
		C66.1,40.4,59.2,47.3,50.7,47.3 M32.5,17.9V32c0,7.8,6.3,14.1,14.1,14.1h4.2c7.8,0,14.1-6.3,14.1-14.1V17.9H32.5z"/>
	<path class="st1" d="M65.4,28.7H31.8c-0.4,0-0.6-0.3-0.6-0.6c0-0.4,0.3-0.7,0.6-0.7h33.6c0.4,0,0.7,0.3,0.7,0.7
		C66.1,28.4,65.8,28.7,65.4,28.7"/>
	<path class="st2" d="M38.3,2.4L38.3,2.4c1.8,0,3.3,1.5,3.3,3.3v11.5H35V5.8C35,3.9,36.5,2.4,38.3,2.4"/>
	<path class="st1" d="M41.6,17.9H35c-0.4,0-0.7-0.3-0.7-0.7V5.8c0-2.2,1.8-4,4-4c2.2,0,4,1.8,4,4v11.5
		C42.2,17.6,41.9,17.9,41.6,17.9 M35.6,16.6h5.3V5.8c0-1.5-1.2-2.7-2.7-2.7c-1.5,0-2.7,1.2-2.7,2.7V16.6z"/>
	<path class="st2" d="M59,2.4L59,2.4c1.8,0,3.3,1.5,3.3,3.3v11.5h-6.6V5.8C55.6,3.9,57.1,2.4,59,2.4"/>
	<path class="st1" d="M62.3,17.9h-6.6c-0.4,0-0.7-0.3-0.7-0.7V5.8c0-2.2,1.8-4,4-4c2.2,0,4,1.8,4,4v11.5
		C62.9,17.6,62.6,17.9,62.3,17.9 M56.3,16.6h5.3V5.8c0-1.5-1.2-2.7-2.7-2.7c-1.5,0-2.7,1.2-2.7,2.7V16.6z"/>
	<path class="st3" d="M56.2,45.6c0.1,0.3,0.1,0.7,0.1,1.1c0,4.2-3.4,7.6-7.6,7.6c-4.2,0-7.6-3.4-7.6-7.6c0-0.4,0-0.7,0.1-1.1
		c1.7,0.7,3.5,1.1,5.5,1.1h4.2C52.6,46.7,54.5,46.3,56.2,45.6"/>
	<path class="st1" d="M48.6,55c-4.6,0-8.3-3.7-8.3-8.3c0-0.4,0-0.8,0.1-1.2c0-0.2,0.1-0.4,0.3-0.5c0.2-0.1,0.4-0.1,0.6,0
		c1.7,0.7,3.4,1,5.2,1h4.2c1.8,0,3.5-0.3,5.2-1c0.2-0.1,0.4-0.1,0.6,0c0.2,0.1,0.3,0.3,0.3,0.5c0.1,0.4,0.1,0.7,0.1,1.2
		C56.9,51.3,53.2,55,48.6,55 M41.6,46.5c0,0.1,0,0.1,0,0.2c0,3.9,3.1,7,7,7c3.9,0,7-3.1,7-7c0-0.1,0-0.1,0-0.2
		c-1.6,0.5-3.2,0.8-4.9,0.8h-4.2C44.9,47.3,43.2,47.1,41.6,46.5"/>
	<path class="st1" d="M27,81c-4.2,0-7.4-0.8-7.6-0.9c-0.3-0.1-0.6-0.4-0.5-0.8c0.1-0.3,0.4-0.6,0.8-0.5c0.1,0,13.7,3.5,23.1-4.4
		c9.3-7.8,5.2-19.9,5.2-20c-0.1-0.3,0.1-0.7,0.4-0.8c0.3-0.1,0.7,0.1,0.8,0.4c0,0.1,4.4,13.1-5.6,21.4C38.3,79.9,31.9,81,27,81"/>
	<path class="st2" d="M40.3,20.4c1.4,0,2.5,1.1,2.5,2.5c0,1.4-1.1,2.5-2.5,2.5c-1.4,0-2.5-1.1-2.5-2.5
		C37.8,21.5,38.9,20.4,40.3,20.4"/>
	<path class="st1" d="M40.3,26.1c-1.8,0-3.2-1.4-3.2-3.2c0-1.8,1.4-3.2,3.2-3.2c1.8,0,3.2,1.4,3.2,3.2
		C43.5,24.7,42.1,26.1,40.3,26.1 M40.3,21c-1,0-1.9,0.8-1.9,1.9c0,1,0.8,1.9,1.9,1.9c1,0,1.9-0.8,1.9-1.9C42.2,21.9,41.4,21,40.3,21
		"/>
	<path class="st2" d="M57.6,20.4c1.4,0,2.5,1.1,2.5,2.5c0,1.4-1.1,2.5-2.5,2.5c-1.4,0-2.5-1.1-2.5-2.5C55,21.5,56.2,20.4,57.6,20.4"
		/>
	<path class="st1" d="M57.6,26.1c-1.8,0-3.2-1.4-3.2-3.2c0-1.8,1.4-3.2,3.2-3.2c1.8,0,3.2,1.4,3.2,3.2
		C60.8,24.7,59.3,26.1,57.6,26.1 M57.6,21c-1,0-1.9,0.8-1.9,1.9c0,1,0.8,1.9,1.9,1.9c1,0,1.9-0.8,1.9-1.9C59.5,21.9,58.6,21,57.6,21
		"/>
</g>
<g>
</g>
<g>
</g>
<g>
</g>
<g>
</g>
<g>
</g>
<g>
</g>
<g>
</g>
<g>
</g>
<g>
</g>
<g>
</g>
<g>
</g>
<g>
</g>
<g>
</g>
<g>
</g>
<g>
</g>
</svg>
