<?xml version="1.0" encoding="utf-8"?>
<!-- Generator: Adobe Illustrator 22.1.0, SVG Export Plug-In . SVG Version: 6.00 Build 0)  -->
<svg version="1.1" id="Layer_1" xmlns="http://www.w3.org/2000/svg" xmlns:xlink="http://www.w3.org/1999/xlink" x="0px" y="0px"
	 viewBox="0 0 85 85" style="enable-background:new 0 0 85 85;" xml:space="preserve">
<style type="text/css">
	.st0{display:none;}
	.st1{display:inline;}
	.st2{display:inline;clip-path:url(#SVGID_2_);fill:#FFF8D1;}
	.st3{display:inline;clip-path:url(#SVGID_2_);}
	.st4{display:inline;clip-path:url(#SVGID_2_);fill:#4BBFE8;}
	.st5{display:inline;clip-path:url(#SVGID_2_);fill:#FACA44;}
	.st6{display:inline;clip-path:url(#SVGID_2_);fill:#E84C3D;}
	.st7{display:inline;clip-path:url(#SVGID_2_);fill:#F0B465;}
	.st8{display:inline;clip-path:url(#SVGID_4_);fill:#4BBFE8;}
	.st9{display:inline;clip-path:url(#SVGID_4_);}
	.st10{display:inline;clip-path:url(#SVGID_4_);fill:#707384;}
	.st11{display:inline;clip-path:url(#SVGID_4_);fill:#F0B465;}
	.st12{display:none;fill:#707384;}
	.st13{display:inline;clip-path:url(#SVGID_6_);}
	.st14{display:inline;clip-path:url(#SVGID_6_);fill:#FACA44;}
	.st15{display:inline;clip-path:url(#SVGID_6_);fill:#E84C3D;}
	.st16{fill:#FFFFFF;}
	.st17{fill:none;stroke:#000000;stroke-width:1.3;stroke-linecap:round;stroke-linejoin:round;stroke-miterlimit:10;}
	.st18{display:inline;clip-path:url(#SVGID_8_);fill:#707384;}
	
		.st19{display:inline;clip-path:url(#SVGID_8_);fill:none;stroke:#000000;stroke-width:1.3;stroke-linecap:round;stroke-linejoin:round;stroke-miterlimit:10;}
	.st20{display:inline;clip-path:url(#SVGID_8_);fill:#FFF8D1;}
	
		.st21{display:inline;clip-path:url(#SVGID_8_);fill:none;stroke:#000000;stroke-width:1.3;stroke-linecap:round;stroke-linejoin:round;stroke-miterlimit:2.613;}
	.st22{clip-path:url(#SVGID_10_);fill:#4BBFE8;}
	.st23{clip-path:url(#SVGID_10_);}
	.st24{clip-path:url(#SVGID_10_);fill:#F0B465;}
	.st25{clip-path:url(#SVGID_10_);fill:#FFF8D1;}
	.st26{clip-path:url(#SVGID_10_);fill:#E84C3D;}
</style>
<g class="st0">
	<defs>
		<rect id="SVGID_1_" x="5.4" y="2.9" width="74.2" height="79.2"/>
	</defs>
	<clipPath id="SVGID_2_" class="st1">
		<use xlink:href="#SVGID_1_"  style="overflow:visible;"/>
	</clipPath>
	<path class="st2" d="M12.3,21.4h60.3c3.4,0,6.3,2.8,6.3,6.3v40.5c0,3.5-2.8,6.3-6.3,6.3H12.3c-3.4,0-6.3-2.8-6.3-6.3V27.7
		C6.1,24.2,8.9,21.4,12.3,21.4"/>
	<path class="st3" d="M72.7,75.1H12.3c-3.8,0-6.9-3.1-6.9-6.9V27.7c0-3.8,3.1-6.9,6.9-6.9h60.3c3.8,0,6.9,3.1,6.9,6.9v40.5
		C79.6,72,76.5,75.1,72.7,75.1 M12.3,22.1c-3.1,0-5.6,2.5-5.6,5.6v40.5c0,3.1,2.5,5.6,5.6,5.6h60.3c3.1,0,5.6-2.5,5.6-5.6V27.7
		c0-3.1-2.5-5.6-5.6-5.6H12.3z"/>
	<path class="st4" d="M16.2,28.8h40.4c2.5,0,4.5,2,4.5,4.5v29.2c0,2.5-2,4.5-4.5,4.5H16.2c-2.5,0-4.5-2-4.5-4.5V33.4
		C11.7,30.9,13.7,28.8,16.2,28.8"/>
	<path class="st3" d="M56.6,67.7H16.2c-2.8,0-5.2-2.3-5.2-5.2V33.4c0-2.8,2.3-5.2,5.2-5.2h40.4c2.8,0,5.2,2.3,5.2,5.2v29.2
		C61.7,65.4,59.4,67.7,56.6,67.7 M16.2,29.5c-2.1,0-3.9,1.7-3.9,3.9v29.2c0,2.1,1.7,3.9,3.9,3.9h40.4c2.1,0,3.9-1.7,3.9-3.9V33.4
		c0-2.1-1.7-3.9-3.9-3.9H16.2z"/>
	<path class="st5" d="M69.9,31.5c1.9,0,3.4,1.5,3.4,3.4c0,1.9-1.5,3.4-3.4,3.4c-1.9,0-3.4-1.5-3.4-3.4C66.5,33,68,31.5,69.9,31.5"/>
	<path class="st3" d="M69.9,39c-2.2,0-4.1-1.8-4.1-4.1c0-2.2,1.8-4.1,4.1-4.1s4.1,1.8,4.1,4.1C74,37.1,72.1,39,69.9,39 M69.9,32.1
		c-1.5,0-2.8,1.2-2.8,2.8c0,1.5,1.2,2.8,2.8,2.8c1.5,0,2.8-1.2,2.8-2.8C72.7,33.4,71.4,32.1,69.9,32.1"/>
	<path class="st5" d="M69.9,44.5c1.9,0,3.4,1.5,3.4,3.4c0,1.9-1.5,3.4-3.4,3.4c-1.9,0-3.4-1.5-3.4-3.4C66.5,46.1,68,44.5,69.9,44.5"
		/>
	<path class="st3" d="M69.9,52c-2.2,0-4.1-1.8-4.1-4.1c0-2.3,1.8-4.1,4.1-4.1S74,45.7,74,48C74,50.2,72.1,52,69.9,52 M69.9,45.2
		c-1.5,0-2.8,1.2-2.8,2.8c0,1.5,1.2,2.8,2.8,2.8c1.5,0,2.8-1.2,2.8-2.8C72.7,46.4,71.4,45.2,69.9,45.2"/>
	<path class="st6" d="M69.9,57.6c1.9,0,3.4,1.5,3.4,3.4c0,1.9-1.5,3.4-3.4,3.4c-1.9,0-3.4-1.5-3.4-3.4C66.5,59.1,68,57.6,69.9,57.6"
		/>
	<path class="st3" d="M69.9,65.1c-2.2,0-4.1-1.8-4.1-4.1c0-2.2,1.8-4.1,4.1-4.1S74,58.8,74,61C74,63.2,72.1,65.1,69.9,65.1
		 M69.9,58.2c-1.5,0-2.8,1.2-2.8,2.8c0,1.5,1.2,2.8,2.8,2.8c1.5,0,2.8-1.2,2.8-2.8C72.7,59.5,71.4,58.2,69.9,58.2"/>
	<path class="st3" d="M33.7,43.2c-0.2,0-0.4-0.1-0.6-0.3c-0.2-0.3-0.1-0.7,0.2-0.9l12.7-7.3c0.3-0.2,0.7-0.1,0.9,0.2
		c0.2,0.3,0.1,0.7-0.2,0.9l-12.7,7.3C34,43.2,33.9,43.2,33.7,43.2"/>
	<path class="st3" d="M31.8,49.5c-0.2,0-0.4-0.1-0.6-0.3c-0.2-0.3-0.1-0.7,0.2-0.9L44.1,41c0.3-0.2,0.7-0.1,0.9,0.2
		c0.2,0.3,0.1,0.7-0.2,0.9l-12.7,7.3C32,49.5,31.9,49.5,31.8,49.5"/>
	<path class="st7" d="M38.9,14.1c4.1,0,7.4,3.3,7.4,7.4H31.6C31.6,17.4,34.9,14.1,38.9,14.1"/>
	<path class="st3" d="M46.3,22.1C46.3,22.1,46.3,22.1,46.3,22.1H31.6c-0.4,0-0.6-0.3-0.6-0.7c0-4.4,3.6-8,8-8c4.4,0,7.9,3.5,8,7.8
		c0,0.1,0,0.1,0,0.2C47,21.8,46.7,22.1,46.3,22.1 M32.2,20.8h13.4c-0.3-3.4-3.2-6.1-6.7-6.1C35.4,14.7,32.6,17.4,32.2,20.8"/>
	<path class="st3" d="M36.3,15.2c-0.2,0-0.4-0.1-0.5-0.2L27,4c-0.2-0.3-0.2-0.7,0.1-0.9c0.3-0.2,0.7-0.2,0.9,0.1l8.8,11
		c0.2,0.3,0.2,0.7-0.1,0.9C36.6,15.1,36.5,15.2,36.3,15.2"/>
	<path class="st3" d="M41.5,15.2c-0.1,0-0.3,0-0.4-0.1c-0.3-0.2-0.3-0.6-0.1-0.9L46,8c0.2-0.3,0.6-0.3,0.9-0.1
		c0.3,0.2,0.3,0.6,0.1,0.9l-5,6.1C41.9,15.1,41.7,15.2,41.5,15.2"/>
	<polygon class="st7" points="19.3,81.4 21.4,76.8 22.5,74.5 16.1,74.5 17.1,76.8 	"/>
	<path class="st3" d="M19.3,82.1L19.3,82.1c-0.3,0-0.5-0.1-0.6-0.4l-3.2-7c-0.1-0.2-0.1-0.4,0-0.6c0.1-0.2,0.3-0.3,0.5-0.3h6.4
		c0.2,0,0.4,0.1,0.5,0.3c0.1,0.2,0.1,0.4,0,0.6l-3.2,7C19.8,81.9,19.5,82.1,19.3,82.1 M17.1,75.1l2.2,4.8l2.2-4.8H17.1z"/>
	<polygon class="st7" points="65.7,81.4 67.9,76.8 68.9,74.5 62.5,74.5 63.5,76.8 	"/>
	<path class="st3" d="M65.7,82.1c-0.3,0-0.5-0.1-0.6-0.4l-3.2-7c-0.1-0.2-0.1-0.4,0-0.6c0.1-0.2,0.3-0.3,0.5-0.3h6.4
		c0.2,0,0.4,0.1,0.5,0.3c0.1,0.2,0.1,0.4,0,0.6l-3.2,7C66.2,81.9,66,82.1,65.7,82.1L65.7,82.1z M63.5,75.1l2.2,4.8l2.2-4.8H63.5z"/>
</g>
<g class="st0">
	<defs>
		<rect id="SVGID_3_" x="18.9" y="2.9" width="47.2" height="79.2"/>
	</defs>
	<clipPath id="SVGID_4_" class="st1">
		<use xlink:href="#SVGID_3_"  style="overflow:visible;"/>
	</clipPath>
	<path class="st8" d="M21.5,3.6h42c1.1,0,2,0.9,2,2v70c0,1.1-0.9,2-2,2h-42c-1.1,0-2-0.9-2-2v-70C19.5,4.4,20.4,3.6,21.5,3.6"/>
	<path class="st9" d="M63.5,78.2h-42c-1.5,0-2.6-1.2-2.6-2.6v-70c0-1.5,1.2-2.6,2.6-2.6h42c1.5,0,2.6,1.2,2.6,2.6v70
		C66.1,77,64.9,78.2,63.5,78.2 M21.5,4.2c-0.7,0-1.3,0.6-1.3,1.3v70c0,0.7,0.6,1.3,1.3,1.3h42c0.7,0,1.3-0.6,1.3-1.3v-70
		c0-0.7-0.6-1.3-1.3-1.3H21.5z"/>
	<path class="st9" d="M65.5,32.5H19.5c-0.4,0-0.6-0.3-0.6-0.6c0-0.4,0.3-0.7,0.6-0.7h45.9c0.4,0,0.6,0.3,0.6,0.7
		C66.1,32.2,65.8,32.5,65.5,32.5"/>
	<path class="st10" d="M57.5,18.7L57.5,18.7c1,0,1.8,0.8,1.8,1.8v5.6c0,1-0.8,1.8-1.8,1.8c-1,0-1.8-0.8-1.8-1.8v-5.6
		C55.7,19.5,56.5,18.7,57.5,18.7"/>
	<path class="st9" d="M57.5,28.6c-1.4,0-2.5-1.1-2.5-2.5v-5.6c0-1.4,1.1-2.5,2.5-2.5c1.4,0,2.5,1.1,2.5,2.5v5.6
		C60,27.5,58.9,28.6,57.5,28.6 M57.5,19.3c-0.6,0-1.2,0.5-1.2,1.2v5.6c0,0.6,0.5,1.2,1.2,1.2c0.6,0,1.2-0.5,1.2-1.2v-5.6
		C58.7,19.9,58.1,19.3,57.5,19.3"/>
	<path class="st10" d="M57.5,39.9L57.5,39.9c1,0,1.8,0.8,1.8,1.8v5.6c0,1-0.8,1.8-1.8,1.8c-1,0-1.8-0.8-1.8-1.8v-5.6
		C55.7,40.7,56.5,39.9,57.5,39.9"/>
	<path class="st9" d="M57.5,49.8c-1.4,0-2.5-1.1-2.5-2.5v-5.6c0-1.4,1.1-2.5,2.5-2.5c1.4,0,2.5,1.1,2.5,2.5v5.6
		C60,48.7,58.9,49.8,57.5,49.8 M57.5,40.6c-0.6,0-1.2,0.5-1.2,1.2v5.6c0,0.6,0.5,1.2,1.2,1.2c0.6,0,1.2-0.5,1.2-1.2v-5.6
		C58.7,41.1,58.1,40.6,57.5,40.6"/>
	<rect x="24.5" y="77.6" class="st11" width="5.6" height="3.9"/>
	<path class="st9" d="M30.2,82.1h-5.6c-0.4,0-0.7-0.3-0.7-0.7v-3.9c0-0.4,0.3-0.7,0.7-0.7h5.6c0.4,0,0.7,0.3,0.7,0.7v3.9
		C30.8,81.8,30.5,82.1,30.2,82.1 M25.2,80.8h4.3v-2.6h-4.3V80.8z"/>
	<rect x="54.8" y="77.6" class="st11" width="5.6" height="3.9"/>
	<path class="st9" d="M60.5,82.1h-5.6c-0.4,0-0.6-0.3-0.6-0.7v-3.9c0-0.4,0.3-0.7,0.6-0.7h5.6c0.4,0,0.7,0.3,0.7,0.7v3.9
		C61.1,81.8,60.8,82.1,60.5,82.1 M55.5,80.8h4.3v-2.6h-4.3V80.8z"/>
	<path class="st9" d="M35.4,55.1c-0.2,0-0.3-0.1-0.5-0.2c-0.3-0.3-0.3-0.7,0-0.9l7.3-7.5c0.3-0.3,0.7-0.3,0.9,0
		c0.3,0.3,0.3,0.7,0,0.9l-7.3,7.5C35.7,55.1,35.6,55.1,35.4,55.1"/>
	<path class="st9" d="M35.7,61.1c-0.2,0-0.3-0.1-0.5-0.2c-0.3-0.3-0.3-0.7,0-0.9l7.3-7.5c0.3-0.3,0.7-0.3,0.9,0
		c0.3,0.3,0.3,0.7,0,0.9l-7.3,7.5C36.1,61.1,35.9,61.1,35.7,61.1"/>
</g>
<rect x="3.6" y="23.9" class="st12" width="77.8" height="49.2"/>
<g class="st0">
	<defs>
		<rect id="SVGID_5_" x="2.9" y="3.4" width="79.1" height="70.3"/>
	</defs>
	<clipPath id="SVGID_6_" class="st1">
		<use xlink:href="#SVGID_5_"  style="overflow:visible;"/>
	</clipPath>
	<path class="st13" d="M81.4,73.6H3.6c-0.4,0-0.7-0.3-0.7-0.7V23.8c0-0.4,0.3-0.6,0.7-0.6h77.8c0.4,0,0.6,0.3,0.6,0.6V73
		C82.1,73.3,81.8,73.6,81.4,73.6 M4.2,72.3h76.5V24.4H4.2V72.3z"/>
	<path class="st14" d="M25.3,34.3c7.8,0,14.1,6.3,14.1,14.1c0,7.8-6.3,14.1-14.1,14.1c-7.8,0-14.1-6.3-14.1-14.1
		C11.2,40.6,17.5,34.3,25.3,34.3"/>
	<path class="st13" d="M25.3,63.1c-8.1,0-14.7-6.6-14.7-14.7c0-8.1,6.6-14.7,14.7-14.7c8.1,0,14.7,6.6,14.7,14.7
		C40,56.5,33.4,63.1,25.3,63.1 M25.3,34.9c-7.4,0-13.4,6-13.4,13.4c0,7.4,6,13.4,13.4,13.4c7.4,0,13.4-6,13.4-13.4
		C38.7,41,32.7,34.9,25.3,34.9"/>
	<path class="st15" d="M25.3,41.9c3.6,0,6.5,2.9,6.5,6.5s-2.9,6.5-6.5,6.5s-6.5-2.9-6.5-6.5S21.7,41.9,25.3,41.9"/>
	<path class="st13" d="M25.3,55.5c-3.9,0-7.1-3.2-7.1-7.1c0-3.9,3.2-7.1,7.1-7.1s7.1,3.2,7.1,7.1C32.4,52.3,29.2,55.5,25.3,55.5
		 M25.3,42.6c-3.2,0-5.8,2.6-5.8,5.8c0,3.2,2.6,5.8,5.8,5.8s5.8-2.6,5.8-5.8C31.1,45.2,28.5,42.6,25.3,42.6"/>
	<path class="st13" d="M73.8,39.6H49.7c-0.4,0-0.7-0.3-0.7-0.6c0-0.4,0.3-0.7,0.7-0.7h24.1c0.4,0,0.6,0.3,0.6,0.7
		C74.5,39.3,74.2,39.6,73.8,39.6"/>
	<path class="st13" d="M73.8,49H49.7c-0.4,0-0.7-0.3-0.7-0.6c0-0.4,0.3-0.7,0.7-0.7h24.1c0.4,0,0.6,0.3,0.6,0.7
		C74.5,48.7,74.2,49,73.8,49"/>
	<path class="st13" d="M73.8,58.4H49.7c-0.4,0-0.7-0.3-0.7-0.7c0-0.4,0.3-0.7,0.7-0.7h24.1c0.4,0,0.6,0.3,0.6,0.7
		C74.5,58.1,74.2,58.4,73.8,58.4"/>
	<path class="st13" d="M81.4,24.4c-0.1,0-0.1,0-0.2,0L18.4,4.6c-0.3-0.1-0.5-0.5-0.4-0.8c0.1-0.3,0.5-0.5,0.8-0.4l62.8,19.8
		c0.3,0.1,0.5,0.5,0.4,0.8C82,24.2,81.7,24.4,81.4,24.4"/>
</g>
<rect x="31.1" y="25.2" class="st16" width="24.1" height="34.5"/>
<rect x="31.1" y="25.2" class="st17" width="24.1" height="34.5"/>
<g class="st0">
	<defs>
		<rect id="SVGID_7_" x="20" y="2.8" width="46.3" height="79.2"/>
	</defs>
	<clipPath id="SVGID_8_" class="st1">
		<use xlink:href="#SVGID_7_"  style="overflow:visible;"/>
	</clipPath>
	<path class="st18" d="M45.7,75.7c0-1.4-1.2-2.6-2.6-2.6V70h22.5v7.8c0,1.9-1.6,3.5-3.5,3.5h-19v-3C44.6,78.3,45.7,77.1,45.7,75.7"
		/>
	<path class="st19" d="M45.7,75.7c0-1.4-1.2-2.6-2.6-2.6V70h22.5v7.8c0,1.9-1.6,3.5-3.5,3.5h-19v-3C44.6,78.3,45.7,77.1,45.7,75.7z"
		/>
	<path class="st20" d="M40.6,75.7c0-1.4,1.2-2.6,2.6-2.6c1.4,0,2.6,1.2,2.6,2.6c0,1.4-1.2,2.6-2.6,2.6
		C41.7,78.3,40.6,77.1,40.6,75.7"/>
	<path class="st19" d="M40.6,75.7c0-1.4,1.2-2.6,2.6-2.6c1.4,0,2.6,1.2,2.6,2.6c0,1.4-1.2,2.6-2.6,2.6
		C41.7,78.3,40.6,77.1,40.6,75.7z"/>
	<path class="st20" d="M31.1,59.6h24.1V25.2H31.1V59.6z M20.6,70V14.8h45V70H43.1H20.6z"/>
	<path class="st19" d="M31.1,59.6h24.1V25.2H31.1V59.6z M20.6,70V14.8h45V70H43.1H20.6z"/>
	<path class="st18" d="M24.2,81.3c-1.9,0-3.5-1.6-3.5-3.5V70h22.5v3.2c-1.4,0-2.6,1.2-2.6,2.6c0,1.4,1.2,2.6,2.6,2.6v3H24.2z"/>
	<path class="st19" d="M24.2,81.3c-1.9,0-3.5-1.6-3.5-3.5V70h22.5v3.2c-1.4,0-2.6,1.2-2.6,2.6c0,1.4,1.2,2.6,2.6,2.6v3H24.2z"/>
	<path class="st18" d="M65.6,14.8h-45V7c0-1.9,1.6-3.5,3.5-3.5h37.9C64,3.5,65.6,5,65.6,7V14.8z"/>
	<path class="st19" d="M65.6,14.8h-45V7c0-1.9,1.6-3.5,3.5-3.5h37.9C64,3.5,65.6,5,65.6,7V14.8z"/>
	<path class="st21" d="M20.6,14.8V7c0-1.9,1.6-3.5,3.5-3.5h37.9C64,3.5,65.6,5,65.6,7v7.8V70v7.8c0,1.9-1.6,3.5-3.5,3.5h-19h-19
		c-1.9,0-3.5-1.6-3.5-3.5V70V14.8z"/>
	<line class="st21" x1="20.6" y1="14.8" x2="65.6" y2="14.8"/>
	<polyline class="st21" points="20.6,70 43.1,70 65.6,70 	"/>
	<path class="st19" d="M43.1,73.1c1.4,0,2.6,1.2,2.6,2.6c0,1.4-1.2,2.6-2.6,2.6c-1.4,0-2.6-1.2-2.6-2.6
		C40.6,74.3,41.7,73.1,43.1,73.1z"/>
	<line class="st21" x1="38.6" y1="9.2" x2="47.6" y2="9.2"/>
	<rect x="31.1" y="25.2" class="st19" width="24.1" height="34.5"/>
</g>
<g>
	<defs>
		<rect id="SVGID_9_" x="4" y="20.6" width="79.1" height="42.4"/>
	</defs>
	<clipPath id="SVGID_10_">
		<use xlink:href="#SVGID_9_"  style="overflow:visible;"/>
	</clipPath>
	<path class="st22" d="M6.9,21.3h48.2c1.2,0,2.3,1,2.3,2.3v29.5c0,1.2-1,2.3-2.3,2.3H6.9c-1.3,0-2.3-1-2.3-2.3V23.6
		C4.6,22.3,5.7,21.3,6.9,21.3"/>
	<path class="st23" d="M55.1,56H6.9C5.3,56,4,54.7,4,53.1V23.6c0-1.6,1.3-2.9,2.9-2.9h48.2c1.6,0,2.9,1.3,2.9,2.9v29.5
		C58,54.7,56.7,56,55.1,56 M6.9,21.9c-0.9,0-1.6,0.7-1.6,1.6v29.5c0,0.9,0.7,1.6,1.6,1.6h48.2c0.9,0,1.6-0.7,1.6-1.6V23.6
		c0-0.9-0.7-1.6-1.6-1.6H6.9z"/>
	<polygon class="st24" points="36.5,55.3 38.5,61.1 23.5,61.1 25.5,55.3 	"/>
	<path class="st23" d="M38.5,61.8C38.5,61.8,38.5,61.8,38.5,61.8H23.5c-0.2,0-0.4-0.1-0.5-0.3c-0.1-0.2-0.2-0.4-0.1-0.6l2-5.8
		c0.1-0.3,0.3-0.4,0.6-0.4h11c0.3,0,0.5,0.2,0.6,0.4l2,5.6c0.1,0.1,0.1,0.2,0.1,0.4C39.2,61.5,38.9,61.8,38.5,61.8 M24.4,60.5h13.2
		L36.1,56H26L24.4,60.5z"/>
	<line class="st24" x1="21.6" y1="61.1" x2="40.4" y2="61.1"/>
	<path class="st23" d="M40.4,61.8H21.6c-0.4,0-0.6-0.3-0.6-0.6s0.3-0.7,0.6-0.7h18.8c0.4,0,0.6,0.3,0.6,0.7S40.8,61.8,40.4,61.8"/>
	<path class="st23" d="M57.4,46.6H4.6C4.3,46.6,4,46.3,4,46c0-0.4,0.3-0.6,0.6-0.6h52.7c0.4,0,0.6,0.3,0.6,0.6
		C58,46.3,57.7,46.6,57.4,46.6"/>
	<path class="st25" d="M30.1,48.5c1.3,0,2.4,1.1,2.4,2.4c0,1.3-1.1,2.4-2.4,2.4c-1.3,0-2.4-1.1-2.4-2.4
		C27.8,49.5,28.8,48.5,30.1,48.5"/>
	<path class="st23" d="M30.1,53.8c-1.7,0-3-1.4-3-3c0-1.7,1.4-3,3-3c1.7,0,3,1.3,3,3C33.2,52.5,31.8,53.8,30.1,53.8 M30.1,49.1
		c-0.9,0-1.7,0.8-1.7,1.7c0,0.9,0.8,1.7,1.7,1.7c0.9,0,1.7-0.8,1.7-1.7C31.9,49.9,31.1,49.1,30.1,49.1"/>
	<path class="st25" d="M63.8,21.3h16.9c1,0,1.8,0.8,1.8,1.8v37.5c0,1-0.8,1.8-1.8,1.8H63.8c-1,0-1.8-0.8-1.8-1.8V23.1
		C62,22.1,62.8,21.3,63.8,21.3"/>
	<path class="st23" d="M80.7,63H63.8c-1.3,0-2.4-1.1-2.4-2.4V23.1c0-1.3,1.1-2.4,2.4-2.4h16.9c1.3,0,2.4,1.1,2.4,2.4v37.5
		C83.1,61.9,82.1,63,80.7,63 M63.8,21.9c-0.6,0-1.1,0.5-1.1,1.1v37.5c0,0.6,0.5,1.1,1.1,1.1h16.9c0.6,0,1.1-0.5,1.1-1.1V23.1
		c0-0.6-0.5-1.1-1.1-1.1H63.8z"/>
	<rect x="66.2" y="27.2" class="st26" width="12.2" height="6.7"/>
	<path class="st23" d="M78.4,34.5H66.2c-0.4,0-0.6-0.3-0.6-0.7v-6.7c0-0.4,0.3-0.7,0.6-0.7h12.2c0.4,0,0.7,0.3,0.7,0.7v6.7
		C79,34.2,78.7,34.5,78.4,34.5 M66.8,33.2h10.9v-5.4H66.8V33.2z"/>
	<path class="st22" d="M72.3,37.7c1.8,0,3.2,1.4,3.2,3.2c0,1.8-1.4,3.2-3.2,3.2c-1.8,0-3.2-1.4-3.2-3.2C69,39.1,70.5,37.7,72.3,37.7
		"/>
	<path class="st23" d="M72.3,44.8c-2.1,0-3.9-1.7-3.9-3.9c0-2.1,1.7-3.9,3.9-3.9c2.1,0,3.9,1.7,3.9,3.9
		C76.2,43.1,74.4,44.8,72.3,44.8 M72.3,38.3c-1.4,0-2.6,1.2-2.6,2.6c0,1.4,1.2,2.6,2.6,2.6c1.4,0,2.6-1.2,2.6-2.6
		C74.9,39.5,73.7,38.3,72.3,38.3"/>
	<path class="st24" d="M72.3,49.6c1.8,0,3.2,1.4,3.2,3.2c0,1.8-1.4,3.2-3.2,3.2c-1.8,0-3.2-1.4-3.2-3.2C69,51,70.5,49.6,72.3,49.6"
		/>
	<path class="st23" d="M72.3,56.7c-2.1,0-3.9-1.7-3.9-3.9c0-2.1,1.7-3.9,3.9-3.9c2.1,0,3.9,1.7,3.9,3.9
		C76.2,54.9,74.4,56.7,72.3,56.7 M72.3,50.2c-1.4,0-2.6,1.2-2.6,2.6c0,1.4,1.2,2.6,2.6,2.6c1.4,0,2.6-1.2,2.6-2.6
		C74.9,51.4,73.7,50.2,72.3,50.2"/>
</g>
<g>
</g>
<g>
</g>
<g>
</g>
<g>
</g>
<g>
</g>
<g>
</g>
<g>
</g>
<g>
</g>
<g>
</g>
<g>
</g>
<g>
</g>
<g>
</g>
<g>
</g>
<g>
</g>
<g>
</g>
</svg>
