<?xml version="1.0" encoding="utf-8"?>
<!-- Generator: Adobe Illustrator 22.1.0, SVG Export Plug-In . SVG Version: 6.00 Build 0)  -->
<svg version="1.1" id="Layer_1" xmlns="http://www.w3.org/2000/svg" xmlns:xlink="http://www.w3.org/1999/xlink" x="0px" y="0px"
	 viewBox="0 0 85 85" style="enable-background:new 0 0 85 85;" xml:space="preserve">
<style type="text/css">
	.st0{clip-path:url(#SVGID_2_);fill:none;stroke:#000000;stroke-linejoin:round;}
	.st1{clip-path:url(#SVGID_2_);fill:#4BBFE8;stroke:#000000;stroke-linejoin:round;}
	.st2{clip-path:url(#SVGID_2_);fill:#4BBFE8;stroke:#000000;stroke-linecap:round;stroke-linejoin:round;}
	.st3{clip-path:url(#SVGID_2_);fill:none;stroke:#000000;}
	.st4{clip-path:url(#SVGID_2_);fill:#E84C3D;}
	.st5{clip-path:url(#SVGID_2_);fill:#707384;stroke:#000000;stroke-linecap:round;stroke-linejoin:round;}
	.st6{clip-path:url(#SVGID_2_);fill:none;stroke:#000000;stroke-linecap:round;stroke-linejoin:round;}
</style>
<g>
	<defs>
		<rect id="SVGID_1_" x="17.9" y="9" width="49.1" height="67"/>
	</defs>
	<clipPath id="SVGID_2_">
		<use xlink:href="#SVGID_1_"  style="overflow:visible;"/>
	</clipPath>
	<line class="st0" x1="35.8" y1="72.7" x2="49.2" y2="72.7"/>
	<path class="st1" d="M23.5,72.7h-2.2c-1.2,0-2.2-1-2.2-2.2V14.6c0-1.2,1-2,2.2-2.2c13.8-2.8,27.9-3.1,42.4,0c1.2,0.3,2.2,1,2.2,2.2
		v55.8c0,1.2-1,2.2-2.2,2.2h-2.2"/>
	<path class="st2" d="M24.8,11.8c0,0-1.1,1.6-1.1,2.8l-0.1,58.1c0,1.2,0.8,2.2,1.8,2.2h8.2h1.8c0.5-3.6,3.6-6.2,7.2-6.2
		c3.6,0,6.7,2.7,7.2,6.2h1.8h8c1,0,1.8-1,1.8-2.2l0.1-58.1c0-1.2-1.1-2.8-1.1-2.8"/>
	<path class="st0" d="M55.9,10.7v12.8c0,1.9-1.5,3.4-3.4,3.4H32.5c-1.9,0-3.4-1.5-3.4-3.4V10.7"/>
	<line class="st3" x1="43.3" y1="22.6" x2="41.1" y2="22.6"/>
	<line class="st3" x1="52.7" y1="22.6" x2="50.5" y2="22.6"/>
	<line class="st3" x1="48.1" y1="22.6" x2="45.8" y2="22.6"/>
	<path class="st4" d="M37.9,22.6c0,1.2-0.9,2.1-2.1,2.1s-2.1-0.9-2.1-2.1c0-1.2,0.9-2.1,2.1-2.1S37.9,21.4,37.9,22.6"/>
	<path class="st5" d="M45.4,46.3c-1.4-3.1-2.9-6-2.9-6s-5.6,10.3-5.6,13.4c0,0.4,0.1,0.8,0.2,1.2"/>
	<path class="st5" d="M37.7,55.5c1,0.9,2.2,1.4,3.6,1.4c3.1,0,5.6-2.5,5.6-5.6c0-0.9-0.5-2.4-1.2-4.1"/>
	<line class="st6" x1="31.9" y1="60.4" x2="50.3" y2="41.4"/>
</g>
<g>
</g>
<g>
</g>
<g>
</g>
<g>
</g>
<g>
</g>
<g>
</g>
<g>
</g>
<g>
</g>
<g>
</g>
<g>
</g>
<g>
</g>
<g>
</g>
<g>
</g>
<g>
</g>
<g>
</g>
</svg>
