<?xml version="1.0" encoding="utf-8"?>
<!-- Generator: Adobe Illustrator 22.1.0, SVG Export Plug-In . SVG Version: 6.00 Build 0)  -->
<svg version="1.1" id="Layer_1" xmlns="http://www.w3.org/2000/svg" xmlns:xlink="http://www.w3.org/1999/xlink" x="0px" y="0px"
	 viewBox="0 0 85 85" style="enable-background:new 0 0 85 85;" xml:space="preserve">
<style type="text/css">
	.st0{clip-path:url(#SVGID_2_);fill:#E84C3D;}
	.st1{clip-path:url(#SVGID_2_);}
	.st2{clip-path:url(#SVGID_2_);fill:#4BBFE8;}
	.st3{clip-path:url(#SVGID_2_);fill:#FFF8D1;}
</style>
<g>
	<defs>
		<rect id="SVGID_1_" x="2.9" y="11.7" width="79.1" height="60.3"/>
	</defs>
	<clipPath id="SVGID_2_">
		<use xlink:href="#SVGID_1_"  style="overflow:visible;"/>
	</clipPath>
	<path class="st0" d="M17.6,12.3H54v28.1H17.6c-7.7,0-14-6.3-14-14C3.6,18.7,9.9,12.3,17.6,12.3"/>
	<path class="st1" d="M54,41.1H17.6c-8.1,0-14.7-6.6-14.7-14.7c0-8.1,6.6-14.7,14.7-14.7H54c0.4,0,0.6,0.3,0.6,0.7v28.1
		C54.6,40.8,54.4,41.1,54,41.1 M17.6,13c-7.4,0-13.4,6-13.4,13.4s6,13.4,13.4,13.4h35.7V13H17.6z"/>
	<path class="st1" d="M81.4,27H65.6c-0.4,0-0.6-0.3-0.6-0.6s0.3-0.7,0.6-0.7h15.8c0.4,0,0.6,0.3,0.6,0.7S81.8,27,81.4,27"/>
	<path class="st2" d="M54,17.7c6.4,0.1,11.6,3.9,11.6,8.7c0,4.8-5.2,8.7-11.6,8.7V17.7z"/>
	<path class="st1" d="M54,35.8c-0.2,0-0.3-0.1-0.5-0.2c-0.1-0.1-0.2-0.3-0.2-0.5V17.7c0-0.2,0.1-0.3,0.2-0.5
		c0.1-0.1,0.3-0.2,0.5-0.2c6.7,0.1,12.2,4.3,12.2,9.4C66.2,31.5,60.7,35.7,54,35.8L54,35.8z M54.6,18.4v16.1
		c5.7-0.3,10.3-3.8,10.3-8C64.9,22.2,60.4,18.7,54.6,18.4"/>
	<polygon class="st3" points="34.2,40.4 41.5,67.7 27.7,71.3 19.5,40.4 22.4,40.4 22.5,40.4 	"/>
	<path class="st1" d="M27.7,72c-0.1,0-0.2,0-0.3-0.1c-0.1-0.1-0.3-0.2-0.3-0.4l-8.3-30.9c-0.1-0.2,0-0.4,0.1-0.6
		c0.1-0.2,0.3-0.3,0.5-0.3h14.7c0.3,0,0.6,0.2,0.6,0.5l7.3,27.2c0.1,0.3-0.1,0.7-0.5,0.8L27.9,72C27.9,72,27.8,72,27.7,72
		 M20.3,41.1l7.9,29.5l12.5-3.4l-7-26.1H20.3z"/>
	<path class="st1" d="M41.9,19.6H15.7c-0.4,0-0.7-0.3-0.7-0.6s0.3-0.7,0.7-0.7h26.2c0.4,0,0.6,0.3,0.6,0.7S42.3,19.6,41.9,19.6"/>
	<path class="st1" d="M41.9,34.5H15.7c-0.4,0-0.7-0.3-0.7-0.6s0.3-0.7,0.7-0.7h26.2c0.4,0,0.6,0.3,0.6,0.7S42.3,34.5,41.9,34.5"/>
</g>
<g>
</g>
<g>
</g>
<g>
</g>
<g>
</g>
<g>
</g>
<g>
</g>
<g>
</g>
<g>
</g>
<g>
</g>
<g>
</g>
<g>
</g>
<g>
</g>
<g>
</g>
<g>
</g>
<g>
</g>
</svg>
