<?xml version="1.0" encoding="utf-8"?>
<!-- Generator: Adobe Illustrator 22.1.0, SVG Export Plug-In . SVG Version: 6.00 Build 0)  -->
<svg version="1.1" id="Layer_1" xmlns="http://www.w3.org/2000/svg" xmlns:xlink="http://www.w3.org/1999/xlink" x="0px" y="0px"
	 viewBox="0 0 85 85" style="enable-background:new 0 0 85 85;" xml:space="preserve">
<style type="text/css">
	.st0{clip-path:url(#SVGID_2_);fill:#FFF8D1;stroke:#020202;stroke-miterlimit:10;}
	.st1{clip-path:url(#SVGID_2_);fill:#707384;}
	.st2{clip-path:url(#SVGID_2_);}
	.st3{clip-path:url(#SVGID_2_);fill:#FACA44;}
</style>
<g>
	<defs>
		<rect id="SVGID_1_" x="2.9" y="22.6" width="79.1" height="39.4"/>
	</defs>
	<clipPath id="SVGID_2_">
		<use xlink:href="#SVGID_1_"  style="overflow:visible;"/>
	</clipPath>
	<rect x="29.5" y="27.5" class="st0" width="45.5" height="29"/>
	<path class="st1" d="M65.2,27.6h13.6c1.4,0,2.6,1.2,2.6,2.6v24.1c0,1.4-1.2,2.6-2.6,2.6H65.2c4.2-3.5,6.9-8.8,6.9-14.7
		C72.1,36.4,69.4,31.1,65.2,27.6 M6.2,27.6h34.7c-4.2,3.5-6.9,8.8-6.9,14.7c0,5.9,2.7,11.2,6.9,14.7H6.2c-1.4,0-2.6-1.2-2.6-2.6
		V30.2C3.6,28.8,4.7,27.6,6.2,27.6"/>
	<path class="st2" d="M78.8,57.6H65.2c-0.3,0-0.5-0.2-0.6-0.4c-0.1-0.3,0-0.5,0.2-0.7c4.2-3.5,6.7-8.7,6.7-14.2
		c0-5.5-2.4-10.7-6.7-14.2c-0.2-0.2-0.3-0.5-0.2-0.7s0.3-0.4,0.6-0.4h13.6c1.8,0,3.3,1.5,3.3,3.3v24.1
		C82.1,56.2,80.6,57.6,78.8,57.6 M66.9,56.3h12c1.1,0,2-0.9,2-2V30.2c0-1.1-0.9-2-2-2h-12c3.7,3.7,5.9,8.7,5.9,14
		S70.6,52.6,66.9,56.3 M40.9,57.6C40.9,57.6,40.9,57.6,40.9,57.6H6.2c-1.8,0-3.3-1.5-3.3-3.3V30.2c0-1.8,1.5-3.3,3.3-3.3h34.7
		c0.3,0,0.5,0.2,0.6,0.4c0.1,0.3,0,0.5-0.2,0.7c-4.2,3.5-6.7,8.7-6.7,14.2c0,5.5,2.4,10.6,6.6,14.1c0.2,0.1,0.3,0.3,0.3,0.6
		C41.5,57.3,41.3,57.6,40.9,57.6 M6.2,28.3c-1.1,0-2,0.9-2,2v24.1c0,1.1,0.9,2,2,2h33c-3.7-3.7-5.9-8.7-5.9-14s2.1-10.3,5.9-14H6.2z
		"/>
	<path class="st2" d="M62.2,42.9H44.5c-0.4,0-0.7-0.3-0.7-0.6c0-0.4,0.3-0.7,0.7-0.7h17.7c0.4,0,0.7,0.3,0.7,0.7
		C62.9,42.6,62.6,42.9,62.2,42.9"/>
	<path class="st2" d="M27.2,47H9.5c-0.4,0-0.7-0.3-0.7-0.6c0-0.4,0.3-0.7,0.7-0.7h17.7c0.4,0,0.6,0.3,0.6,0.7
		C27.9,46.7,27.6,47,27.2,47"/>
	<path class="st2" d="M27.2,43H9.5c-0.4,0-0.7-0.3-0.7-0.6c0-0.4,0.3-0.7,0.7-0.7h17.7c0.4,0,0.6,0.3,0.6,0.7
		C27.9,42.7,27.6,43,27.2,43"/>
	<path class="st2" d="M27.2,39H9.5c-0.4,0-0.7-0.3-0.7-0.6c0-0.4,0.3-0.7,0.7-0.7h17.7c0.4,0,0.6,0.3,0.6,0.7
		C27.9,38.7,27.6,39,27.2,39"/>
	<rect x="8.5" y="57" class="st3" width="8.4" height="3.7"/>
	<path class="st2" d="M16.9,61.3H8.5c-0.4,0-0.7-0.3-0.7-0.7V57c0-0.4,0.3-0.7,0.7-0.7h8.4c0.4,0,0.7,0.3,0.7,0.7v3.7
		C17.6,61,17.3,61.3,16.9,61.3 M9.2,60h7.1v-2.4H9.2V60z"/>
	<rect x="68.1" y="57" class="st3" width="8.4" height="3.7"/>
	<path class="st2" d="M76.5,61.3h-8.4c-0.4,0-0.7-0.3-0.7-0.7V57c0-0.4,0.3-0.7,0.7-0.7h8.4c0.4,0,0.7,0.3,0.7,0.7v3.7
		C77.1,61,76.8,61.3,76.5,61.3 M68.7,60h7.1v-2.4h-7.1V60z"/>
</g>
<g>
</g>
<g>
</g>
<g>
</g>
<g>
</g>
<g>
</g>
<g>
</g>
<g>
</g>
<g>
</g>
<g>
</g>
<g>
</g>
<g>
</g>
<g>
</g>
<g>
</g>
<g>
</g>
<g>
</g>
</svg>
