<?xml version="1.0" encoding="utf-8"?>
<!-- Generator: Adobe Illustrator 22.1.0, SVG Export Plug-In . SVG Version: 6.00 Build 0)  -->
<svg version="1.1" xmlns="http://www.w3.org/2000/svg" xmlns:xlink="http://www.w3.org/1999/xlink" x="0px" y="0px"
	 viewBox="0 0 85 85" style="enable-background:new 0 0 85 85;" xml:space="preserve">
<style type="text/css">
	.st0{fill:#F0B465;}
	.st1{fill:#4BBFE8;}
	.st2{fill:#E84C3D;}
	.st3{fill:#707384;}
</style>
<g id="Layer_2">
</g>
<g id="Layer_3">
	<title>Kitchen vol.1</title>
	<g>
		<rect x="12" y="14" class="st0" width="62" height="56"/>
		<path class="st1" d="M75.4,72.9H10.6c-0.9,0-1.6-0.7-1.6-1.5c0,0,0,0,0,0V12.6c0-0.9,0.7-1.6,1.5-1.6c0,0,0,0,0,0h64.9
			c0.9,0,1.5,0.7,1.6,1.5c0,0,0,0,0,0v58.7C77,72.2,76.3,72.9,75.4,72.9C75.5,72.9,75.5,72.9,75.4,72.9z M12.1,69.8h61.8V14.2H12.1
			L12.1,69.8z"/>
		<path d="M25.8,39.6c-5.4,0-9.9-4.4-9.9-9.9s4.4-9.9,9.9-9.9c5.4,0,9.9,4.4,9.9,9.9C35.6,35.2,31.2,39.6,25.8,39.6z M25.8,23
			C22,23,19,26,19,29.8c0,3.7,3,6.8,6.8,6.8s6.8-3,6.8-6.8c0,0,0,0,0,0C32.5,26,29.5,23,25.8,23z"/>
		<path d="M51.8,39.6c-5.4,0-9.9-4.4-9.9-9.9c0-5.4,4.4-9.9,9.9-9.9s9.9,4.4,9.9,9.9c0,0,0,0,0,0C61.7,35.2,57.3,39.6,51.8,39.6z
			 M51.8,23c-3.7,0-6.8,3-6.8,6.8c0,3.7,3,6.8,6.8,6.8c3.7,0,6.8-3,6.8-6.8c0,0,0,0,0,0C58.6,26,55.6,23,51.8,23z"/>
		<path d="M25.8,63.9c-5.4,0-9.9-4.4-9.9-9.9c0-5.4,4.4-9.9,9.9-9.9c5.4,0,9.9,4.4,9.9,9.9C35.6,59.5,31.2,63.9,25.8,63.9z
			 M25.8,47.3c-3.7,0-6.8,3-6.8,6.8c0,3.7,3,6.8,6.8,6.8c3.7,0,6.8-3,6.8-6.8C32.5,50.3,29.5,47.3,25.8,47.3z"/>
		<path d="M51.8,63.9c-5.4,0-9.9-4.4-9.9-9.9c0-5.4,4.4-9.9,9.9-9.9s9.9,4.4,9.9,9.9c0,0,0,0,0,0C61.7,59.5,57.3,63.9,51.8,63.9z
			 M51.8,47.3c-3.7,0-6.8,3-6.8,6.8c0,3.7,3,6.8,6.8,6.8c3.7,0,6.8-3,6.8-6.8c0,0,0,0,0,0C58.6,50.3,55.6,47.3,51.8,47.3z"/>
		<path class="st2" d="M68,29.7c-0.9,0-1.5-0.7-1.6-1.5c0,0,0,0,0,0v-2.6c0-0.9,0.7-1.6,1.6-1.6c0.9,0,1.6,0.7,1.6,1.6v2.6
			C69.6,29,68.9,29.7,68,29.7C68,29.7,68,29.7,68,29.7z"/>
		<path class="st2" d="M68,40.5c-0.9,0-1.5-0.7-1.6-1.5c0,0,0,0,0,0v-2.6c0-0.9,0.7-1.6,1.6-1.6c0.9,0,1.6,0.7,1.6,1.6V39
			C69.6,39.8,68.9,40.5,68,40.5C68,40.5,68,40.5,68,40.5z"/>
		<path class="st2" d="M68,51.3c-0.9,0-1.5-0.7-1.6-1.5c0,0,0,0,0,0v-2.6c0-0.9,0.7-1.6,1.6-1.6c0.9,0,1.6,0.7,1.6,1.6v2.6
			C69.6,50.6,68.9,51.3,68,51.3C68,51.3,68,51.3,68,51.3z"/>
		<path class="st2" d="M68,62.1c-0.9,0-1.5-0.7-1.6-1.5c0,0,0,0,0,0V58c0-0.9,0.7-1.6,1.6-1.6c0.9,0,1.6,0.7,1.6,1.6v2.6
			C69.6,61.4,68.9,62.1,68,62.1C68,62.1,68,62.1,68,62.1z"/>
	</g>
	<circle class="st3" cx="26" cy="30" r="4"/>
	<circle class="st3" cx="52" cy="30" r="4"/>
	<circle class="st3" cx="52" cy="54" r="4"/>
	<circle class="st3" cx="26" cy="54" r="4"/>
	<g>
	</g>
	<g>
	</g>
	<g>
	</g>
	<g>
	</g>
	<g>
	</g>
	<g>
	</g>
	<g>
	</g>
	<g>
	</g>
	<g>
	</g>
	<g>
	</g>
	<g>
	</g>
	<g>
	</g>
	<g>
	</g>
	<g>
	</g>
	<g>
	</g>
</g>
</svg>
