<?xml version="1.0" encoding="utf-8"?>
<!-- Generator: Adobe Illustrator 22.1.0, SVG Export Plug-In . SVG Version: 6.00 Build 0)  -->
<svg version="1.1" id="Layer_1" xmlns="http://www.w3.org/2000/svg" xmlns:xlink="http://www.w3.org/1999/xlink" x="0px" y="0px"
	 viewBox="0 0 85 85" style="enable-background:new 0 0 85 85;" xml:space="preserve">
<style type="text/css">
	.st0{display:none;}
	.st1{display:inline;}
	.st2{display:inline;clip-path:url(#SVGID_2_);fill:#FFF8D1;}
	.st3{display:inline;clip-path:url(#SVGID_2_);}
	.st4{display:inline;clip-path:url(#SVGID_2_);fill:#4BBFE8;}
	.st5{display:inline;clip-path:url(#SVGID_2_);fill:#FACA44;}
	.st6{display:inline;clip-path:url(#SVGID_2_);fill:#E84C3D;}
	.st7{display:inline;clip-path:url(#SVGID_2_);fill:#F0B465;}
	.st8{clip-path:url(#SVGID_4_);fill:#4BBFE8;}
	.st9{clip-path:url(#SVGID_4_);}
	.st10{clip-path:url(#SVGID_4_);fill:#707384;}
	.st11{clip-path:url(#SVGID_4_);fill:#F0B465;}
</style>
<g class="st0">
	<defs>
		<rect id="SVGID_1_" x="5.4" y="2.9" width="74.2" height="79.2"/>
	</defs>
	<clipPath id="SVGID_2_" class="st1">
		<use xlink:href="#SVGID_1_"  style="overflow:visible;"/>
	</clipPath>
	<path class="st2" d="M12.3,21.4h60.3c3.4,0,6.3,2.8,6.3,6.3v40.5c0,3.5-2.8,6.3-6.3,6.3H12.3c-3.4,0-6.3-2.8-6.3-6.3V27.7
		C6.1,24.2,8.9,21.4,12.3,21.4"/>
	<path class="st3" d="M72.7,75.1H12.3c-3.8,0-6.9-3.1-6.9-6.9V27.7c0-3.8,3.1-6.9,6.9-6.9h60.3c3.8,0,6.9,3.1,6.9,6.9v40.5
		C79.6,72,76.5,75.1,72.7,75.1 M12.3,22.1c-3.1,0-5.6,2.5-5.6,5.6v40.5c0,3.1,2.5,5.6,5.6,5.6h60.3c3.1,0,5.6-2.5,5.6-5.6V27.7
		c0-3.1-2.5-5.6-5.6-5.6H12.3z"/>
	<path class="st4" d="M16.2,28.8h40.4c2.5,0,4.5,2,4.5,4.5v29.2c0,2.5-2,4.5-4.5,4.5H16.2c-2.5,0-4.5-2-4.5-4.5V33.4
		C11.7,30.9,13.7,28.8,16.2,28.8"/>
	<path class="st3" d="M56.6,67.7H16.2c-2.8,0-5.2-2.3-5.2-5.2V33.4c0-2.8,2.3-5.2,5.2-5.2h40.4c2.8,0,5.2,2.3,5.2,5.2v29.2
		C61.7,65.4,59.4,67.7,56.6,67.7 M16.2,29.5c-2.1,0-3.9,1.7-3.9,3.9v29.2c0,2.1,1.7,3.9,3.9,3.9h40.4c2.1,0,3.9-1.7,3.9-3.9V33.4
		c0-2.1-1.7-3.9-3.9-3.9H16.2z"/>
	<path class="st5" d="M69.9,31.5c1.9,0,3.4,1.5,3.4,3.4c0,1.9-1.5,3.4-3.4,3.4c-1.9,0-3.4-1.5-3.4-3.4C66.5,33,68,31.5,69.9,31.5"/>
	<path class="st3" d="M69.9,39c-2.2,0-4.1-1.8-4.1-4.1c0-2.2,1.8-4.1,4.1-4.1s4.1,1.8,4.1,4.1C74,37.1,72.1,39,69.9,39 M69.9,32.1
		c-1.5,0-2.8,1.2-2.8,2.8c0,1.5,1.2,2.8,2.8,2.8c1.5,0,2.8-1.2,2.8-2.8C72.7,33.4,71.4,32.1,69.9,32.1"/>
	<path class="st5" d="M69.9,44.5c1.9,0,3.4,1.5,3.4,3.4c0,1.9-1.5,3.4-3.4,3.4c-1.9,0-3.4-1.5-3.4-3.4C66.5,46.1,68,44.5,69.9,44.5"
		/>
	<path class="st3" d="M69.9,52c-2.2,0-4.1-1.8-4.1-4.1c0-2.3,1.8-4.1,4.1-4.1S74,45.7,74,48C74,50.2,72.1,52,69.9,52 M69.9,45.2
		c-1.5,0-2.8,1.2-2.8,2.8c0,1.5,1.2,2.8,2.8,2.8c1.5,0,2.8-1.2,2.8-2.8C72.7,46.4,71.4,45.2,69.9,45.2"/>
	<path class="st6" d="M69.9,57.6c1.9,0,3.4,1.5,3.4,3.4c0,1.9-1.5,3.4-3.4,3.4c-1.9,0-3.4-1.5-3.4-3.4C66.5,59.1,68,57.6,69.9,57.6"
		/>
	<path class="st3" d="M69.9,65.1c-2.2,0-4.1-1.8-4.1-4.1c0-2.2,1.8-4.1,4.1-4.1S74,58.8,74,61C74,63.2,72.1,65.1,69.9,65.1
		 M69.9,58.2c-1.5,0-2.8,1.2-2.8,2.8c0,1.5,1.2,2.8,2.8,2.8c1.5,0,2.8-1.2,2.8-2.8C72.7,59.5,71.4,58.2,69.9,58.2"/>
	<path class="st3" d="M33.7,43.2c-0.2,0-0.4-0.1-0.6-0.3c-0.2-0.3-0.1-0.7,0.2-0.9l12.7-7.3c0.3-0.2,0.7-0.1,0.9,0.2
		c0.2,0.3,0.1,0.7-0.2,0.9l-12.7,7.3C34,43.2,33.9,43.2,33.7,43.2"/>
	<path class="st3" d="M31.8,49.5c-0.2,0-0.4-0.1-0.6-0.3c-0.2-0.3-0.1-0.7,0.2-0.9L44.1,41c0.3-0.2,0.7-0.1,0.9,0.2
		c0.2,0.3,0.1,0.7-0.2,0.9l-12.7,7.3C32,49.5,31.9,49.5,31.8,49.5"/>
	<path class="st7" d="M38.9,14.1c4.1,0,7.4,3.3,7.4,7.4H31.6C31.6,17.4,34.9,14.1,38.9,14.1"/>
	<path class="st3" d="M46.3,22.1C46.3,22.1,46.3,22.1,46.3,22.1H31.6c-0.4,0-0.6-0.3-0.6-0.7c0-4.4,3.6-8,8-8c4.4,0,7.9,3.5,8,7.8
		c0,0.1,0,0.1,0,0.2C47,21.8,46.7,22.1,46.3,22.1 M32.2,20.8h13.4c-0.3-3.4-3.2-6.1-6.7-6.1C35.4,14.7,32.6,17.4,32.2,20.8"/>
	<path class="st3" d="M36.3,15.2c-0.2,0-0.4-0.1-0.5-0.2L27,4c-0.2-0.3-0.2-0.7,0.1-0.9c0.3-0.2,0.7-0.2,0.9,0.1l8.8,11
		c0.2,0.3,0.2,0.7-0.1,0.9C36.6,15.1,36.5,15.2,36.3,15.2"/>
	<path class="st3" d="M41.5,15.2c-0.1,0-0.3,0-0.4-0.1c-0.3-0.2-0.3-0.6-0.1-0.9L46,8c0.2-0.3,0.6-0.3,0.9-0.1
		c0.3,0.2,0.3,0.6,0.1,0.9l-5,6.1C41.9,15.1,41.7,15.2,41.5,15.2"/>
	<polygon class="st7" points="19.3,81.4 21.4,76.8 22.5,74.5 16.1,74.5 17.1,76.8 	"/>
	<path class="st3" d="M19.3,82.1L19.3,82.1c-0.3,0-0.5-0.1-0.6-0.4l-3.2-7c-0.1-0.2-0.1-0.4,0-0.6c0.1-0.2,0.3-0.3,0.5-0.3h6.4
		c0.2,0,0.4,0.1,0.5,0.3c0.1,0.2,0.1,0.4,0,0.6l-3.2,7C19.8,81.9,19.5,82.1,19.3,82.1 M17.1,75.1l2.2,4.8l2.2-4.8H17.1z"/>
	<polygon class="st7" points="65.7,81.4 67.9,76.8 68.9,74.5 62.5,74.5 63.5,76.8 	"/>
	<path class="st3" d="M65.7,82.1c-0.3,0-0.5-0.1-0.6-0.4l-3.2-7c-0.1-0.2-0.1-0.4,0-0.6c0.1-0.2,0.3-0.3,0.5-0.3h6.4
		c0.2,0,0.4,0.1,0.5,0.3c0.1,0.2,0.1,0.4,0,0.6l-3.2,7C66.2,81.9,66,82.1,65.7,82.1L65.7,82.1z M63.5,75.1l2.2,4.8l2.2-4.8H63.5z"/>
</g>
<g>
	<defs>
		<rect id="SVGID_3_" x="20" y="2.8" width="47.2" height="79.2"/>
	</defs>
	<clipPath id="SVGID_4_">
		<use xlink:href="#SVGID_3_"  style="overflow:visible;"/>
	</clipPath>
	<path class="st8" d="M22.6,3.5h42c1.1,0,2,0.9,2,2v70c0,1.1-0.9,2-2,2h-42c-1.1,0-2-0.9-2-2v-70C20.7,4.4,21.5,3.5,22.6,3.5"/>
	<path class="st9" d="M64.6,78.1h-42c-1.5,0-2.6-1.2-2.6-2.6v-70c0-1.5,1.2-2.6,2.6-2.6h42c1.5,0,2.6,1.2,2.6,2.6v70
		C67.2,76.9,66,78.1,64.6,78.1 M22.6,4.1c-0.7,0-1.3,0.6-1.3,1.3v70c0,0.7,0.6,1.3,1.3,1.3h42c0.7,0,1.3-0.6,1.3-1.3v-70
		c0-0.7-0.6-1.3-1.3-1.3H22.6z"/>
	<path class="st9" d="M66.6,32.4H20.6c-0.4,0-0.6-0.3-0.6-0.6c0-0.4,0.3-0.7,0.6-0.7h45.9c0.4,0,0.7,0.3,0.7,0.7
		C67.2,32.1,66.9,32.4,66.6,32.4"/>
	<path class="st10" d="M58.6,18.6L58.6,18.6c1,0,1.8,0.8,1.8,1.8v5.6c0,1-0.8,1.8-1.8,1.8c-1,0-1.8-0.8-1.8-1.8v-5.6
		C56.8,19.4,57.6,18.6,58.6,18.6"/>
	<path class="st9" d="M58.6,28.5c-1.4,0-2.5-1.1-2.5-2.5v-5.6c0-1.4,1.1-2.5,2.5-2.5c1.4,0,2.5,1.1,2.5,2.5v5.6
		C61.1,27.4,60,28.5,58.6,28.5 M58.6,19.2c-0.6,0-1.2,0.5-1.2,1.2v5.6c0,0.6,0.5,1.2,1.2,1.2c0.6,0,1.2-0.5,1.2-1.2v-5.6
		C59.8,19.8,59.3,19.2,58.6,19.2"/>
	<path class="st10" d="M58.6,39.8L58.6,39.8c1,0,1.8,0.8,1.8,1.8v5.6c0,1-0.8,1.8-1.8,1.8c-1,0-1.8-0.8-1.8-1.8v-5.6
		C56.8,40.6,57.6,39.8,58.6,39.8"/>
	<path class="st9" d="M58.6,49.7c-1.4,0-2.5-1.1-2.5-2.5v-5.6c0-1.4,1.1-2.5,2.5-2.5c1.4,0,2.5,1.1,2.5,2.5v5.6
		C61.1,48.6,60,49.7,58.6,49.7 M58.6,40.5c-0.6,0-1.2,0.5-1.2,1.2v5.6c0,0.6,0.5,1.2,1.2,1.2c0.6,0,1.2-0.5,1.2-1.2v-5.6
		C59.8,41,59.3,40.5,58.6,40.5"/>
	<rect x="25.6" y="77.5" class="st11" width="5.6" height="3.9"/>
	<path class="st9" d="M31.3,82h-5.6c-0.4,0-0.7-0.3-0.7-0.7v-3.9c0-0.4,0.3-0.7,0.7-0.7h5.6c0.4,0,0.7,0.3,0.7,0.7v3.9
		C31.9,81.7,31.6,82,31.3,82 M26.3,80.7h4.3v-2.6h-4.3V80.7z"/>
	<rect x="56" y="77.5" class="st11" width="5.6" height="3.9"/>
	<path class="st9" d="M61.6,82H56c-0.4,0-0.6-0.3-0.6-0.7v-3.9c0-0.4,0.3-0.7,0.6-0.7h5.6c0.4,0,0.7,0.3,0.7,0.7v3.9
		C62.2,81.7,61.9,82,61.6,82 M56.6,80.7h4.3v-2.6h-4.3V80.7z"/>
	<path class="st9" d="M36.5,55c-0.2,0-0.3-0.1-0.5-0.2c-0.3-0.3-0.3-0.7,0-0.9l7.3-7.5c0.3-0.3,0.7-0.3,0.9,0c0.3,0.3,0.3,0.7,0,0.9
		L37,54.8C36.9,55,36.7,55,36.5,55"/>
	<path class="st9" d="M36.9,61c-0.2,0-0.3-0.1-0.5-0.2c-0.3-0.3-0.3-0.7,0-0.9l7.3-7.5c0.3-0.3,0.7-0.3,0.9,0c0.3,0.3,0.3,0.7,0,0.9
		l-7.3,7.5C37.2,61,37,61,36.9,61"/>
</g>
<g>
</g>
<g>
</g>
<g>
</g>
<g>
</g>
<g>
</g>
<g>
</g>
<g>
</g>
<g>
</g>
<g>
</g>
<g>
</g>
<g>
</g>
<g>
</g>
<g>
</g>
<g>
</g>
<g>
</g>
</svg>
