<?xml version="1.0" encoding="utf-8"?>
<!-- Generator: Adobe Illustrator 22.1.0, SVG Export Plug-In . SVG Version: 6.00 Build 0)  -->
<svg version="1.1" id="Layer_2" xmlns="http://www.w3.org/2000/svg" xmlns:xlink="http://www.w3.org/1999/xlink" x="0px" y="0px"
	 viewBox="0 0 85 85" style="enable-background:new 0 0 85 85;" xml:space="preserve">
<style type="text/css">
	.st0{clip-path:url(#SVGID_2_);fill:#FFF8D1;}
	.st1{clip-path:url(#SVGID_2_);}
	.st2{clip-path:url(#SVGID_2_);fill:#00ADEF;}
	.st3{clip-path:url(#SVGID_2_);fill:#E84C3D;}
</style>
<g>
	<defs>
		<rect id="SVGID_1_" x="11.1" y="2.8" width="62.8" height="79.2"/>
	</defs>
	<clipPath id="SVGID_2_">
		<use xlink:href="#SVGID_1_"  style="overflow:visible;"/>
	</clipPath>
	<path class="st0" d="M16.3,3.5h52.4c2.5,0,4.5,2,4.5,4.5v55.7L58.5,81.3H16.3c-2.5,0-4.5-2-4.5-4.5V8C11.8,5.5,13.8,3.5,16.3,3.5"
		/>
	<path class="st1" d="M58.5,82H16.3c-2.9,0-5.2-2.3-5.2-5.2V8c0-2.9,2.3-5.2,5.2-5.2h52.4c2.9,0,5.2,2.3,5.2,5.2v55.7
		c0,0.2-0.1,0.3-0.2,0.4L59,81.8C58.9,81.9,58.7,82,58.5,82 M16.3,4.1c-2.1,0-3.9,1.7-3.9,3.9v68.8c0,2.1,1.7,3.9,3.9,3.9h41.9
		l14.4-17.2V8c0-2.1-1.7-3.9-3.9-3.9H16.3z"/>
	<rect x="21.8" y="12.2" class="st2" width="41.5" height="26.9"/>
	<path class="st1" d="M63.2,39.8H21.8c-0.4,0-0.6-0.3-0.6-0.6V12.2c0-0.4,0.3-0.7,0.6-0.7h41.5c0.4,0,0.7,0.3,0.7,0.7v26.9
		C63.9,39.5,63.6,39.8,63.2,39.8 M22.4,38.5h40.2V12.8H22.4V38.5z"/>
	<path class="st3" d="M61,46.6c1.7,0,3.1,1.5,3.1,3.3c0,1.8-1.4,3.3-3.1,3.3c-1.7,0-3.1-1.5-3.1-3.3C57.9,48.1,59.3,46.6,61,46.6"/>
	<path class="st1" d="M61,53.8c-2.1,0-3.8-1.8-3.8-3.9c0-2.2,1.7-3.9,3.8-3.9c2.1,0,3.8,1.8,3.8,3.9C64.8,52.1,63.1,53.8,61,53.8
		 M61,47.3c-1.4,0-2.5,1.2-2.5,2.6c0,1.5,1.1,2.6,2.5,2.6c1.4,0,2.5-1.2,2.5-2.6C63.5,48.5,62.4,47.3,61,47.3"/>
	<path class="st3" d="M58.2,56.6c1.7,0,3.1,1.5,3.1,3.3c0,1.8-1.4,3.3-3.1,3.3c-1.7,0-3.1-1.5-3.1-3.3
		C55.1,58.1,56.5,56.6,58.2,56.6"/>
	<path class="st1" d="M58.2,63.8c-2.1,0-3.8-1.8-3.8-3.9c0-2.2,1.7-3.9,3.8-3.9c2.1,0,3.8,1.8,3.8,3.9C62,62,60.3,63.8,58.2,63.8
		 M58.2,57.3c-1.4,0-2.5,1.2-2.5,2.6c0,1.4,1.1,2.6,2.5,2.6c1.4,0,2.5-1.2,2.5-2.6C60.7,58.4,59.6,57.3,58.2,57.3"/>
	<path class="st1" d="M26.4,61.1c-0.4,0-0.7-0.3-0.7-0.6V49.3c0-0.4,0.3-0.7,0.7-0.7c0.4,0,0.6,0.3,0.6,0.7v11.1
		C27,60.8,26.7,61.1,26.4,61.1"/>
	<path class="st1" d="M31.9,55.5H20.8c-0.4,0-0.6-0.3-0.6-0.7c0-0.4,0.3-0.7,0.6-0.7h11.1c0.4,0,0.6,0.3,0.6,0.7
		C32.6,55.3,32.3,55.5,31.9,55.5"/>
</g>
<g>
</g>
<g>
</g>
<g>
</g>
<g>
</g>
<g>
</g>
<g>
</g>
<g>
</g>
<g>
</g>
<g>
</g>
<g>
</g>
<g>
</g>
<g>
</g>
<g>
</g>
<g>
</g>
<g>
</g>
</svg>
