<?xml version="1.0" encoding="utf-8"?>
<!-- Generator: Adobe Illustrator 22.1.0, SVG Export Plug-In . SVG Version: 6.00 Build 0)  -->
<svg version="1.1" xmlns="http://www.w3.org/2000/svg" xmlns:xlink="http://www.w3.org/1999/xlink" x="0px" y="0px"
	 viewBox="0 0 85 85" style="enable-background:new 0 0 85 85;" xml:space="preserve">
<style type="text/css">
	.st0{fill:#E84C3D;}
	.st1{fill:#F0B465;}
	.st2{fill:#4BBFE8;}
</style>
<g id="Layer_2">
</g>
<g id="Layer_3">
</g>
<g id="Layer_4">
	<path class="st0" d="M21.4,57.6c0.8,0.3,1.7,0.4,2.6,0.3c-0.1,1.8-0.2,5.1,0.6,6.5c3,5.1,11,5.4,13-0.7c1.7-5.5-3.5-12.6-1.4-18.6
		c2.7-8,12.6-7.3,19.4-7.1c-0.2,0.8-0.2,1.7,0,2.6c-5.3-0.2-14.8-1-16.9,5.3c-1.7,5,3.4,12.2,1.4,18.5c-2.6,8.3-13.5,8.3-17.7,1.2
		C21.2,63.7,21.2,60,21.4,57.6L21.4,57.6z"/>
	<path class="st1" d="M65.3,34.8v1.6h4V39h-4v0.6h4v2.6h-4v1.6h-4.7c-5.9,0-5.9-9,0-9H65.3z"/>
	<path class="st2" d="M20.9,36.3c-3.1-2.2-5.1-5.8-5.1-9.9c0-6.7,5.5-12.2,12.2-12.2h38.5l-6.3,6.3v2.6l-20,3.4
		c-0.1,6.3-4.9,11.5-11.1,12l-1.6,14.8c-0.6,5.6-9,4.6-8.4-0.9L20.9,36.3L20.9,36.3z"/>
	<path class="st0" d="M60.6,37.4c-2.5,0-2.5,3.8,0,3.8h2.1v-3.8H60.6L60.6,37.4z"/>
	<g>
	</g>
	<g>
	</g>
	<g>
	</g>
	<g>
	</g>
	<g>
	</g>
	<g>
	</g>
	<g>
	</g>
	<g>
	</g>
	<g>
	</g>
	<g>
	</g>
	<g>
	</g>
	<g>
	</g>
	<g>
	</g>
	<g>
	</g>
	<g>
	</g>
</g>
</svg>
