<?xml version="1.0" encoding="utf-8"?>
<!-- Generator: Adobe Illustrator 22.1.0, SVG Export Plug-In . SVG Version: 6.00 Build 0)  -->
<svg version="1.1" id="Layer_1" xmlns="http://www.w3.org/2000/svg" xmlns:xlink="http://www.w3.org/1999/xlink" x="0px" y="0px"
	 viewBox="0 0 85 85" style="enable-background:new 0 0 85 85;" xml:space="preserve">
<style type="text/css">
	.st0{fill:#FFF8D1;}
	.st1{clip-path:url(#SVGID_2_);}
	.st2{clip-path:url(#SVGID_2_);fill:#4BBFE8;}
	.st3{clip-path:url(#SVGID_2_);fill:#F0B465;}
	.st4{clip-path:url(#SVGID_2_);fill:#FFF8D1;}
</style>
<rect x="20.5" y="22.7" class="st0" width="64.5" height="39.5"/>
<g>
	<defs>
		<rect id="SVGID_1_" y="17.3" width="79.1" height="50.3"/>
	</defs>
	<clipPath id="SVGID_2_">
		<use xlink:href="#SVGID_1_"  style="overflow:visible;"/>
	</clipPath>
	<path class="st1" d="M71.8,58.2H7.3c-0.4,0-0.7-0.3-0.7-0.6V18c0-0.4,0.3-0.7,0.7-0.7h64.5c0.4,0,0.7,0.3,0.7,0.7v39.5
		C72.5,57.9,72.2,58.2,71.8,58.2 M8,56.9h63.2V18.6H8V56.9z"/>
	<rect x="10.8" y="21.5" class="st2" width="57.5" height="32.6"/>
	<path class="st1" d="M68.3,54.7H10.8c-0.4,0-0.6-0.3-0.6-0.7V21.5c0-0.4,0.3-0.7,0.6-0.7h57.5c0.4,0,0.7,0.3,0.7,0.7V54
		C69,54.4,68.7,54.7,68.3,54.7 M11.5,53.4h56.2V22.1H11.5V53.4z"/>
	<path class="st3" d="M5.4,67h68.4c2.6,0,4.7-2.1,4.7-4.7v-4.7H0.6v4.7C0.6,64.9,2.8,67,5.4,67"/>
	<path class="st1" d="M73.8,67.7H5.4c-3,0-5.4-2.4-5.4-5.4v-4.7c0-0.4,0.3-0.7,0.6-0.7h77.8c0.4,0,0.7,0.3,0.7,0.7v4.7
		C79.1,65.2,76.7,67.7,73.8,67.7 M1.3,58.2v4.1c0,2.2,1.8,4.1,4.1,4.1h68.4c2.3,0,4.1-1.8,4.1-4.1v-4.1H1.3z"/>
	<path class="st4" d="M39.6,60c1.2,0,2.2,1,2.2,2.3c0,1.2-1,2.2-2.2,2.2c-1.2,0-2.2-1-2.2-2.2C37.3,61,38.3,60,39.6,60"/>
	<path class="st1" d="M39.6,65.2c-1.6,0-2.9-1.3-2.9-2.9c0-1.6,1.3-2.9,2.9-2.9c1.6,0,2.9,1.3,2.9,2.9
		C42.5,63.9,41.2,65.2,39.6,65.2 M39.6,60.7c-0.9,0-1.6,0.7-1.6,1.6c0,0.9,0.7,1.6,1.6,1.6c0.9,0,1.6-0.7,1.6-1.6
		C41.2,61.4,40.4,60.7,39.6,60.7"/>
	<path class="st1" d="M52.6,35.4c-0.2,0-0.4-0.1-0.5-0.3c-0.2-0.3-0.2-0.7,0.1-0.9l6.7-5.1c0.3-0.2,0.7-0.2,0.9,0.1
		c0.2,0.3,0.2,0.7-0.1,0.9L53,35.2C52.9,35.3,52.7,35.4,52.6,35.4"/>
	<path class="st1" d="M51.2,40.2c-0.2,0-0.4-0.1-0.5-0.3c-0.2-0.3-0.2-0.7,0.1-0.9l6.7-5.1c0.3-0.2,0.7-0.2,0.9,0.1
		c0.2,0.3,0.2,0.7-0.1,0.9l-6.7,5.1C51.5,40.2,51.3,40.2,51.2,40.2"/>
</g>
<g>
</g>
<g>
</g>
<g>
</g>
<g>
</g>
<g>
</g>
<g>
</g>
<g>
</g>
<g>
</g>
<g>
</g>
<g>
</g>
<g>
</g>
<g>
</g>
<g>
</g>
<g>
</g>
<g>
</g>
</svg>
