<?xml version="1.0" encoding="utf-8"?>
<!-- Generator: Adobe Illustrator 22.1.0, SVG Export Plug-In . SVG Version: 6.00 Build 0)  -->
<svg version="1.1" xmlns="http://www.w3.org/2000/svg" xmlns:xlink="http://www.w3.org/1999/xlink" x="0px" y="0px"
	 viewBox="0 0 85 85" style="enable-background:new 0 0 85 85;" xml:space="preserve">
<style type="text/css">
	.st0{fill:#FFF8D1;}
	.st1{fill:#FFF8D1;stroke:#FFFFFF;stroke-width:1.9824;stroke-miterlimit:10;}
	.st2{fill:#F0B465;}
</style>
<g id="Layer_2">
</g>
<g id="Layer_3">
	<g>
		<path d="M43.8,14.5v-11c-0.4,0-0.8,0-1.3,0s-0.8,0-1.3,0v11C41.2,14.5,43.8,14.5,43.8,14.5z"/>
		<path d="M62.5,23.1l7.6-7.6c-0.6-0.6-1.2-1.2-1.8-1.8l-7.6,7.6L62.5,23.1z"/>
		<path d="M67.5,42.6h10.2c0-0.7,0.1-1.3,0.1-2c0-0.2,0-0.4,0-0.5H67.5V42.6z"/>
		<path d="M17.5,40.1H7.3c0,0.2,0,0.4,0,0.5c0,0.7,0,1.3,0.1,2h10.2L17.5,40.1L17.5,40.1z"/>
		<path d="M24.3,21.3l-7.6-7.6c-0.6,0.6-1.2,1.2-1.8,1.8l7.6,7.6L24.3,21.3z"/>
		<circle class="st0" cx="42.3" cy="38.6" r="19.1"/>
		<path class="st1" d="M29.7,35.1c0-5,4.1-9,9-9"/>
		<polygon class="st0" points="26.2,48.9 34.6,64.3 50.6,64.3 58.3,48.9 		"/>
		<rect x="34.6" y="65.7" class="st2" width="16.1" height="2.9"/>
		<rect x="34.6" y="70" class="st2" width="16.1" height="2.9"/>
		<rect x="34.6" y="74.3" class="st2" width="16.1" height="2.9"/>
		<rect x="37.9" y="78.6" class="st2" width="9.4" height="2.9"/>
	</g>
	<g>
	</g>
	<g>
	</g>
	<g>
	</g>
	<g>
	</g>
	<g>
	</g>
	<g>
	</g>
	<g>
	</g>
	<g>
	</g>
	<g>
	</g>
	<g>
	</g>
	<g>
	</g>
	<g>
	</g>
	<g>
	</g>
	<g>
	</g>
	<g>
	</g>
</g>
</svg>
