<?xml version="1.0" encoding="utf-8"?>
<!-- Generator: Adobe Illustrator 22.1.0, SVG Export Plug-In . SVG Version: 6.00 Build 0)  -->
<svg version="1.1" xmlns="http://www.w3.org/2000/svg" xmlns:xlink="http://www.w3.org/1999/xlink" x="0px" y="0px"
	 viewBox="0 0 400 400" style="enable-background:new 0 0 400 400;" xml:space="preserve">
<style type="text/css">
	.st0{display:none;}
	.st1{display:inline;fill:#FFFAFA;}
	.st2{clip-path:url(#SVGID_2_);}
	.st3{clip-path:url(#SVGID_4_);fill:#FFF4E5;}
	.st4{opacity:0.32;}
	.st5{fill:#E54545;}
	.st6{clip-path:url(#SVGID_6_);}
	.st7{clip-path:url(#SVGID_8_);fill:#030104;}
	.st8{fill:#4B1C15;}
</style>
<g id="Layer_2" class="st0">
	<rect y="0" class="st1" width="400" height="400"/>
</g>
<g id="Layer_4">
	<g>
		<defs>
			<rect id="SVGID_1_" x="16.5" y="50.6" width="367.1" height="284.3"/>
		</defs>
		<clipPath id="SVGID_2_">
			<use xlink:href="#SVGID_1_"  style="overflow:visible;"/>
		</clipPath>
		<g class="st2">
			<g>
				<defs>
					<rect id="SVGID_3_" x="16.5" y="50.6" width="367.1" height="284.3"/>
				</defs>
				<clipPath id="SVGID_4_">
					<use xlink:href="#SVGID_3_"  style="overflow:visible;"/>
				</clipPath>
				<path class="st3" d="M115,137.4c-20.6,6-43.5,1.4-63.3,9.6c-31.3,13-42.5,54.9-30.6,86.6c11.9,31.7,40.6,54.1,70.5,69.9
					c51.9,27.4,113.5,39.9,170.3,25.1s107.1-59.9,119.4-117.3c11.7-55-24.2-144.9-84.5-157.8c-34.1-7.3-73.5-1.1-101.7,19.6
					C167.7,93.3,149.3,127.4,115,137.4"/>
			</g>
		</g>
	</g>
</g>
<g id="Layer_2_copy" class="st4">
	<rect x="63.3" y="206.9" class="st5" width="289" height="46.8"/>
</g>
<g id="Layer_1">
	<g>
		<defs>
			<rect id="SVGID_5_" x="16.5" y="23" width="367.1" height="284.3"/>
		</defs>
		<clipPath id="SVGID_6_">
			<use xlink:href="#SVGID_5_"  style="overflow:visible;"/>
		</clipPath>
		<g class="st6">
			<defs>
				<rect id="SVGID_7_" x="16.5" y="23" width="367.1" height="284.3"/>
			</defs>
			<clipPath id="SVGID_8_">
				<use xlink:href="#SVGID_7_"  style="overflow:visible;"/>
			</clipPath>
			<path class="st7" d="M249.7,128.8h-16.3l19.1-33.7c0.7-1.2,0.7-2.4,0.1-3.3c-0.6-1-1.7-1.5-3-1.5h-23.2c-2.2,0-4.5,1.5-5.5,3.4
				l-24.7,51.2c-0.6,1.2-0.6,2.4,0,3.4c0.6,1,1.7,1.5,3,1.5l20.1,0.3c0.2,0,0.3,0,0.3,0c0,0,0,0.1-0.1,0.3l-13.9,34.7
				c-0.3,0.9-0.7,1.8-0.1,2.7l0.1,0.2c0.2,0.4,0.7,0.6,1.1,0.6h0.2c0.9,0,1.6-0.7,2.2-1.4l42.7-53.6c1.2-1.5,0.8-2.8,0.6-3.3
				C252.4,129.9,251.7,128.8,249.7,128.8 M214.6,174l8.2-22.3c0.5-1.2,0.4-2.4-0.2-3.4c-0.6-0.9-1.7-1.5-3-1.5l-20.1-0.3
				c-0.1,0-0.1,0-0.2,0c0,0,0,0,0,0c0,0,0-0.1,0.1-0.2L224,95.2c0.4-0.8,1.6-1.6,2.5-1.6h23.2l-19.1,33.7c-0.7,1.2-0.7,2.4-0.1,3.3
				c0.6,1,1.6,1.5,3,1.5h15.7L214.6,174z"/>
		</g>
		<g class="st6">
		</g>
		<g class="st6">
			<path class="st8" d="M86.4,242.9H69.9v-29.7h16.6v3.1H73.3v9.6h12.3v3H73.3v10.9h13.1V242.9z"/>
			<path class="st8" d="M107.8,242.9v-14.4c0-1.8-0.4-3.2-1.2-4.1c-0.8-0.9-2.1-1.3-3.9-1.3c-2.3,0-4,0.6-5.1,1.9
				c-1.1,1.3-1.6,3.3-1.6,6.2v11.7h-3.4v-22.3h2.7l0.5,3H96c0.7-1.1,1.7-1.9,2.9-2.6c1.2-0.6,2.6-0.9,4.2-0.9c2.7,0,4.7,0.6,6.1,1.9
				s2,3.4,2,6.2v14.5H107.8z"/>
			<path class="st8" d="M127.5,243.3c-3.3,0-5.9-1-7.8-3s-2.9-4.8-2.9-8.4c0-3.6,0.9-6.4,2.7-8.6s4.1-3.2,7.1-3.2
				c2.8,0,5,0.9,6.6,2.8c1.6,1.8,2.4,4.3,2.4,7.3v2.1h-15.3c0.1,2.6,0.7,4.6,2,6c1.3,1.4,3,2,5.3,2c2.4,0,4.8-0.5,7.1-1.5v3
				c-1.2,0.5-2.3,0.9-3.4,1.1C130.3,243.2,129,243.3,127.5,243.3z M126.6,223c-1.8,0-3.2,0.6-4.3,1.7c-1.1,1.2-1.7,2.8-1.9,4.8H132
				c0-2.1-0.5-3.8-1.4-4.9C129.7,223.6,128.3,223,126.6,223z"/>
			<path class="st8" d="M151.6,220.2c1,0,1.9,0.1,2.7,0.2l-0.5,3.1c-0.9-0.2-1.7-0.3-2.4-0.3c-1.8,0-3.3,0.7-4.6,2.2
				c-1.3,1.5-1.9,3.3-1.9,5.5v12h-3.4v-22.3h2.8l0.4,4.1h0.2c0.8-1.5,1.8-2.6,3-3.4S150.2,220.2,151.6,220.2z"/>
			<path class="st8" d="M176.6,220.6v2.1l-4.1,0.5c0.4,0.5,0.7,1.1,1,1.9c0.3,0.8,0.4,1.6,0.4,2.6c0,2.2-0.7,3.9-2.2,5.2
				c-1.5,1.3-3.5,2-6.1,2c-0.7,0-1.3-0.1-1.9-0.2c-1.4,0.8-2.2,1.7-2.2,2.9c0,0.6,0.3,1.1,0.8,1.4c0.5,0.3,1.4,0.4,2.6,0.4h3.9
				c2.4,0,4.3,0.5,5.6,1.5c1.3,1,1.9,2.5,1.9,4.4c0,2.5-1,4.3-3,5.6c-2,1.3-4.9,1.9-8.7,1.9c-2.9,0-5.2-0.5-6.7-1.6
				c-1.6-1.1-2.4-2.6-2.4-4.6c0-1.4,0.4-2.5,1.3-3.5c0.9-1,2.1-1.7,3.7-2c-0.6-0.3-1-0.7-1.4-1.2s-0.6-1.2-0.6-1.9
				c0-0.8,0.2-1.5,0.7-2.1c0.4-0.6,1.1-1.2,2.1-1.8c-1.2-0.5-2.1-1.3-2.8-2.4c-0.7-1.1-1.1-2.4-1.1-3.9c0-2.4,0.7-4.3,2.2-5.6
				c1.5-1.3,3.5-2,6.2-2c1.2,0,2.2,0.1,3.2,0.4H176.6z M158.9,246.6c0,1.2,0.5,2.1,1.5,2.7c1,0.6,2.5,0.9,4.4,0.9
				c2.8,0,4.9-0.4,6.3-1.3s2-2,2-3.4c0-1.2-0.4-2-1.1-2.5c-0.7-0.5-2.1-0.7-4.2-0.7h-4c-1.5,0-2.7,0.4-3.6,1.1
				C159.3,244.2,158.9,245.3,158.9,246.6z M160.7,227.8c0,1.6,0.4,2.7,1.3,3.5c0.9,0.8,2.1,1.2,3.7,1.2c3.3,0,4.9-1.6,4.9-4.8
				c0-3.3-1.7-5-5-5c-1.6,0-2.8,0.4-3.7,1.3C161.1,224.8,160.7,226.1,160.7,227.8z"/>
			<path class="st8" d="M177.7,220.6h3.6l4.9,12.7c1.1,2.9,1.7,5,2,6.3h0.2c0.2-0.7,0.5-1.9,1.1-3.5c0.6-1.7,2.4-6.8,5.5-15.4h3.6
				L189,246c-0.9,2.5-2.1,4.3-3.3,5.3c-1.3,1-2.8,1.6-4.7,1.6c-1,0-2-0.1-3-0.3v-2.7c0.7,0.2,1.6,0.2,2.5,0.2c2.3,0,4-1.3,5-3.9
				l1.2-3.2L177.7,220.6z"/>
			<path class="st8" d="M217.4,249.3h-18.8v-2.7h18.8V249.3z"/>
			<path class="st8" d="M234.5,242.9l-10.1-26.3h-0.2c0.2,2.1,0.3,4.6,0.3,7.4v18.9h-3.2v-29.7h5.2l9.4,24.5h0.2l9.5-24.5h5.2v29.7
				h-3.5v-19.1c0-2.2,0.1-4.6,0.3-7.2h-0.2l-10.2,26.3H234.5z"/>
			<path class="st8" d="M267.9,243.3c-3.3,0-5.9-1-7.8-3s-2.9-4.8-2.9-8.4c0-3.6,0.9-6.4,2.7-8.6s4.1-3.2,7.1-3.2
				c2.8,0,5,0.9,6.6,2.8c1.6,1.8,2.4,4.3,2.4,7.3v2.1h-15.3c0.1,2.6,0.7,4.6,2,6c1.3,1.4,3,2,5.3,2c2.4,0,4.8-0.5,7.1-1.5v3
				c-1.2,0.5-2.3,0.9-3.4,1.1C270.6,243.2,269.4,243.3,267.9,243.3z M266.9,223c-1.8,0-3.2,0.6-4.3,1.7c-1.1,1.2-1.7,2.8-1.9,4.8
				h11.6c0-2.1-0.5-3.8-1.4-4.9C270.1,223.6,268.7,223,266.9,223z"/>
			<path class="st8" d="M289,240.5c0.6,0,1.2,0,1.7-0.1c0.6-0.1,1-0.2,1.3-0.3v2.6c-0.4,0.2-0.9,0.3-1.6,0.4
				c-0.7,0.1-1.4,0.2-1.9,0.2c-4.3,0-6.5-2.3-6.5-6.8v-13.3h-3.2v-1.6l3.2-1.4l1.4-4.8h2v5.2h6.5v2.6h-6.5v13.1c0,1.3,0.3,2.4,1,3.1
				C287,240.2,287.9,240.5,289,240.5z"/>
			<path class="st8" d="M303.7,240.5c0.6,0,1.2,0,1.7-0.1c0.6-0.1,1-0.2,1.3-0.3v2.6c-0.4,0.2-0.9,0.3-1.6,0.4
				c-0.7,0.1-1.4,0.2-1.9,0.2c-4.3,0-6.5-2.3-6.5-6.8v-13.3h-3.2v-1.6l3.2-1.4l1.4-4.8h2v5.2h6.5v2.6h-6.5v13.1c0,1.3,0.3,2.4,1,3.1
				C301.7,240.2,302.6,240.5,303.7,240.5z"/>
			<path class="st8" d="M320.6,243.3c-3.3,0-5.9-1-7.8-3s-2.9-4.8-2.9-8.4c0-3.6,0.9-6.4,2.7-8.6s4.1-3.2,7.1-3.2
				c2.8,0,5,0.9,6.6,2.8c1.6,1.8,2.4,4.3,2.4,7.3v2.1h-15.3c0.1,2.6,0.7,4.6,2,6c1.3,1.4,3,2,5.3,2c2.4,0,4.8-0.5,7.1-1.5v3
				c-1.2,0.5-2.3,0.9-3.4,1.1C323.4,243.2,322.1,243.3,320.6,243.3z M319.7,223c-1.8,0-3.2,0.6-4.3,1.7c-1.1,1.2-1.7,2.8-1.9,4.8
				h11.6c0-2.1-0.5-3.8-1.4-4.9C322.8,223.6,321.4,223,319.7,223z"/>
			<path class="st8" d="M344.7,220.2c1,0,1.9,0.1,2.7,0.2l-0.5,3.1c-0.9-0.2-1.7-0.3-2.4-0.3c-1.8,0-3.3,0.7-4.6,2.2
				c-1.3,1.5-1.9,3.3-1.9,5.5v12h-3.4v-22.3h2.8l0.4,4.1h0.2c0.8-1.5,1.8-2.6,3-3.4C342,220.6,343.3,220.2,344.7,220.2z"/>
		</g>
	</g>
	<g>
	</g>
	<g>
	</g>
	<g>
	</g>
	<g>
	</g>
	<g>
	</g>
	<g>
	</g>
	<g>
	</g>
	<g>
	</g>
	<g>
	</g>
	<g>
	</g>
	<g>
	</g>
	<g>
	</g>
	<g>
	</g>
	<g>
	</g>
	<g>
	</g>
</g>
</svg>
