<?xml version="1.0" encoding="utf-8"?>
<!-- Generator: Adobe Illustrator 22.1.0, SVG Export Plug-In . SVG Version: 6.00 Build 0)  -->
<svg version="1.1" id="Layer_1" xmlns="http://www.w3.org/2000/svg" xmlns:xlink="http://www.w3.org/1999/xlink" x="0px" y="0px"
	 viewBox="0 0 85 85" style="enable-background:new 0 0 85 85;" xml:space="preserve">
<style type="text/css">
	.st0{fill:#FFF8D1;}
	.st1{clip-path:url(#SVGID_2_);}
	.st2{clip-path:url(#SVGID_2_);fill:#4BBFE8;}
	.st3{clip-path:url(#SVGID_2_);fill:#FACA44;}
</style>
<rect x="3.6" y="16.8" class="st0" width="77.8" height="45.1"/>
<g>
	<defs>
		<rect id="SVGID_1_" x="2.9" y="16.1" width="79.1" height="51.9"/>
	</defs>
	<clipPath id="SVGID_2_">
		<use xlink:href="#SVGID_1_"  style="overflow:visible;"/>
	</clipPath>
	<path class="st1" d="M81.4,62.5H3.6c-0.4,0-0.7-0.3-0.7-0.7V16.8c0-0.4,0.3-0.7,0.7-0.7h77.8c0.4,0,0.7,0.3,0.7,0.7v45.1
		C82.1,62.2,81.8,62.5,81.4,62.5 M4.2,61.2h76.5V17.4H4.2V61.2z"/>
	<rect x="9.9" y="22.1" class="st2" width="52.8" height="34.5"/>
	<path class="st1" d="M62.7,57.2H9.9c-0.4,0-0.7-0.3-0.7-0.7V22.1c0-0.4,0.3-0.7,0.7-0.7h52.8c0.4,0,0.7,0.3,0.7,0.7v34.5
		C63.3,56.9,63,57.2,62.7,57.2 M10.5,55.9H62V22.7H10.5V55.9z"/>
	<path class="st3" d="M71.9,23.4c1.8,0,3.3,1.5,3.3,3.3c0,1.8-1.5,3.3-3.3,3.3c-1.8,0-3.3-1.5-3.3-3.3
		C68.6,24.8,70.1,23.4,71.9,23.4"/>
	<path class="st1" d="M71.9,30.6c-2.2,0-3.9-1.8-3.9-3.9c0-2.2,1.8-3.9,3.9-3.9c2.2,0,3.9,1.8,3.9,3.9C75.8,28.8,74,30.6,71.9,30.6
		 M71.9,24c-1.4,0-2.6,1.2-2.6,2.6c0,1.4,1.2,2.6,2.6,2.6c1.4,0,2.6-1.2,2.6-2.6C74.5,25.2,73.3,24,71.9,24"/>
	<path class="st3" d="M71.9,36.1c1.8,0,3.3,1.5,3.3,3.3c0,1.8-1.5,3.3-3.3,3.3c-1.8,0-3.3-1.5-3.3-3.3
		C68.6,37.5,70.1,36.1,71.9,36.1"/>
	<path class="st1" d="M71.9,43.2c-2.2,0-3.9-1.8-3.9-3.9c0-2.2,1.8-3.9,3.9-3.9c2.2,0,3.9,1.8,3.9,3.9C75.8,41.5,74,43.2,71.9,43.2
		 M71.9,36.7c-1.4,0-2.6,1.2-2.6,2.6c0,1.4,1.2,2.6,2.6,2.6c1.4,0,2.6-1.2,2.6-2.6C74.5,37.9,73.3,36.7,71.9,36.7"/>
	<path class="st3" d="M71.9,48.7c1.8,0,3.3,1.5,3.3,3.3c0,1.8-1.5,3.3-3.3,3.3c-1.8,0-3.3-1.5-3.3-3.3
		C68.6,50.2,70.1,48.7,71.9,48.7"/>
	<path class="st1" d="M71.9,55.9c-2.2,0-3.9-1.8-3.9-3.9c0-2.2,1.8-3.9,3.9-3.9c2.2,0,3.9,1.8,3.9,3.9C75.8,54.1,74,55.9,71.9,55.9
		 M71.9,49.4c-1.4,0-2.6,1.2-2.6,2.6c0,1.4,1.2,2.6,2.6,2.6c1.4,0,2.6-1.2,2.6-2.6C74.5,50.5,73.3,49.4,71.9,49.4"/>
	<path class="st1" d="M20,36.2c-0.2,0-0.4-0.1-0.5-0.3c-0.2-0.3-0.1-0.7,0.2-0.9l10.6-7.5c0.3-0.2,0.7-0.1,0.9,0.2
		c0.2,0.3,0.1,0.7-0.2,0.9L20.4,36C20.3,36.1,20.2,36.2,20,36.2"/>
	<path class="st1" d="M19.3,43.8c-0.2,0-0.4-0.1-0.5-0.3c-0.2-0.3-0.1-0.7,0.2-0.9l10.6-7.5c0.3-0.2,0.7-0.1,0.9,0.2
		c0.2,0.3,0.1,0.7-0.2,0.9l-10.6,7.5C19.6,43.7,19.4,43.8,19.3,43.8"/>
	<path class="st1" d="M15,68H9c-0.4,0-0.7-0.3-0.7-0.7v-5.5c0-0.4,0.3-0.7,0.7-0.7h6c0.4,0,0.7,0.3,0.7,0.7v5.5
		C15.7,67.7,15.4,68,15,68 M9.7,66.7h4.7v-4.2H9.7V66.7z"/>
	<path class="st1" d="M76,68h-6c-0.4,0-0.6-0.3-0.6-0.7v-5.5c0-0.4,0.3-0.7,0.6-0.7h6c0.4,0,0.7,0.3,0.7,0.7v5.5
		C76.6,67.7,76.3,68,76,68 M70.6,66.7h4.7v-4.2h-4.7V66.7z"/>
</g>
<g>
</g>
<g>
</g>
<g>
</g>
<g>
</g>
<g>
</g>
<g>
</g>
<g>
</g>
<g>
</g>
<g>
</g>
<g>
</g>
<g>
</g>
<g>
</g>
<g>
</g>
<g>
</g>
<g>
</g>
</svg>
