<?xml version="1.0" encoding="utf-8"?>
<!-- Generator: Adobe Illustrator 22.1.0, SVG Export Plug-In . SVG Version: 6.00 Build 0)  -->
<svg version="1.1" id="Layer_1" xmlns="http://www.w3.org/2000/svg" xmlns:xlink="http://www.w3.org/1999/xlink" x="0px" y="0px"
	 viewBox="0 0 85 85" style="enable-background:new 0 0 85 85;" xml:space="preserve">
<style type="text/css">
	.st0{clip-path:url(#SVGID_2_);fill:#4BBFE8;}
	.st1{clip-path:url(#SVGID_2_);}
	.st2{clip-path:url(#SVGID_2_);fill:#707384;}
	.st3{clip-path:url(#SVGID_2_);fill:#FFF8D1;}
</style>
<g>
	<defs>
		<rect id="SVGID_1_" x="2.9" y="11.9" width="79.1" height="60.1"/>
	</defs>
	<clipPath id="SVGID_2_">
		<use xlink:href="#SVGID_1_"  style="overflow:visible;"/>
	</clipPath>
	<path class="st0" d="M6.9,12.5h71.1c1.9,0,3.4,1.5,3.4,3.4v43.5c0,1.9-1.5,3.4-3.4,3.4H6.9c-1.9,0-3.4-1.5-3.4-3.4V15.9
		C3.6,14.1,5.1,12.5,6.9,12.5"/>
	<path class="st1" d="M78.1,63.5H6.9c-2.2,0-4-1.8-4-4V15.9c0-2.2,1.8-4,4-4h71.1c2.2,0,4,1.8,4,4v43.5
		C82.1,61.7,80.3,63.5,78.1,63.5 M6.9,13.2c-1.5,0-2.7,1.2-2.7,2.7v43.5c0,1.5,1.2,2.7,2.7,2.7h71.1c1.5,0,2.7-1.2,2.7-2.7V15.9
		c0-1.5-1.2-2.7-2.7-2.7H6.9z"/>
	<polygon class="st2" points="50.6,62.8 53.6,71.3 31.4,71.3 34.4,62.8 	"/>
	<path class="st1" d="M53.6,72C53.6,72,53.6,72,53.6,72H31.4c-0.2,0-0.4-0.1-0.5-0.3c-0.1-0.2-0.2-0.4-0.1-0.6l3-8.5
		c0.1-0.3,0.3-0.4,0.6-0.4h16.3c0.3,0,0.5,0.2,0.6,0.4l2.9,8.4c0.1,0.1,0.1,0.2,0.1,0.4C54.3,71.7,54,72,53.6,72 M32.3,70.7h20.4
		l-2.5-7.2H34.8L32.3,70.7z"/>
	<line class="st2" x1="28.6" y1="71.3" x2="56.4" y2="71.3"/>
	<path class="st1" d="M56.4,72H28.6c-0.4,0-0.6-0.3-0.6-0.7c0-0.4,0.3-0.7,0.6-0.7h27.8c0.4,0,0.6,0.3,0.6,0.7
		C57,71.7,56.7,72,56.4,72"/>
	<path class="st1" d="M81.4,49.7H3.6c-0.4,0-0.7-0.3-0.7-0.7c0-0.4,0.3-0.7,0.7-0.7h77.8c0.4,0,0.6,0.3,0.6,0.7
		C82.1,49.4,81.8,49.7,81.4,49.7"/>
	<path class="st3" d="M41.2,52.7c1.9,0,3.5,1.6,3.5,3.5c0,1.9-1.6,3.5-3.5,3.5c-1.9,0-3.5-1.6-3.5-3.5
		C37.7,54.2,39.3,52.7,41.2,52.7"/>
	<path class="st1" d="M41.2,60.3c-2.3,0-4.1-1.9-4.1-4.1s1.9-4.1,4.1-4.1c2.3,0,4.1,1.9,4.1,4.1S43.5,60.3,41.2,60.3 M41.2,53.3
		c-1.6,0-2.8,1.3-2.8,2.8c0,1.6,1.3,2.8,2.8,2.8c1.6,0,2.8-1.3,2.8-2.8C44.1,54.6,42.8,53.3,41.2,53.3"/>
	<path class="st1" d="M40.5,30.1c-0.2,0-0.4-0.1-0.5-0.2c-0.2-0.3-0.2-0.7,0.1-0.9l11.5-9.9c0.3-0.2,0.7-0.2,0.9,0.1
		c0.2,0.3,0.2,0.7-0.1,0.9L40.9,30C40.8,30.1,40.7,30.1,40.5,30.1"/>
	<path class="st1" d="M40.4,37.3c-0.2,0-0.4-0.1-0.5-0.2c-0.2-0.3-0.2-0.7,0.1-0.9l11.5-9.9c0.3-0.2,0.7-0.2,0.9,0.1
		c0.2,0.3,0.2,0.7-0.1,0.9l-11.5,9.9C40.7,37.2,40.5,37.3,40.4,37.3"/>
</g>
<g>
</g>
<g>
</g>
<g>
</g>
<g>
</g>
<g>
</g>
<g>
</g>
<g>
</g>
<g>
</g>
<g>
</g>
<g>
</g>
<g>
</g>
<g>
</g>
<g>
</g>
<g>
</g>
<g>
</g>
</svg>
