<?xml version="1.0" encoding="utf-8"?>
<!-- Generator: Adobe Illustrator 22.1.0, SVG Export Plug-In . SVG Version: 6.00 Build 0)  -->
<svg version="1.1" id="Layer_1" xmlns="http://www.w3.org/2000/svg" xmlns:xlink="http://www.w3.org/1999/xlink" x="0px" y="0px"
	 viewBox="0 0 85 85" style="enable-background:new 0 0 85 85;" xml:space="preserve">
<style type="text/css">
	.st0{fill:#FFF8D1;}
	.st1{clip-path:url(#SVGID_2_);}
	.st2{clip-path:url(#SVGID_2_);fill:#707384;}
	.st3{clip-path:url(#SVGID_2_);fill:#E84C3D;}
</style>
<polygon class="st0" points="24.8,3.5 24.8,20.1 10.2,45.7 74.8,45.7 61,20.1 60.2,3.5 "/>
<g>
	<defs>
		<rect id="SVGID_1_" x="9.5" y="2.8" width="66" height="79.2"/>
	</defs>
	<clipPath id="SVGID_2_">
		<use xlink:href="#SVGID_1_"  style="overflow:visible;"/>
	</clipPath>
	<path class="st1" d="M74.8,46.4L74.8,46.4H10.2c-0.2,0-0.4-0.1-0.6-0.3c-0.1-0.2-0.1-0.4,0-0.6l14.5-25.5V3.5
		c0-0.4,0.3-0.6,0.6-0.6h35.4c0.3,0,0.6,0.3,0.6,0.6l0.8,16.5l13.7,25.4c0.1,0.1,0.2,0.3,0.2,0.4C75.5,46.1,75.2,46.4,74.8,46.4
		 M11.3,45.1h62.3L60.4,20.4c0-0.1-0.1-0.2-0.1-0.3l-0.8-16H25.4v16c0,0.1,0,0.2-0.1,0.3L11.3,45.1z"/>
	<path class="st1" d="M61,20.8H24.8c-0.4,0-0.7-0.3-0.7-0.6c0-0.4,0.3-0.7,0.7-0.7H61c0.4,0,0.6,0.3,0.6,0.7
		C61.6,20.5,61.4,20.8,61,20.8"/>
	<rect x="10.1" y="45.7" class="st2" width="64.7" height="8.3"/>
	<path class="st1" d="M74.9,54.7H10.1c-0.4,0-0.6-0.3-0.6-0.7v-8.3c0-0.4,0.3-0.6,0.6-0.6h64.7c0.4,0,0.7,0.3,0.7,0.6V54
		C75.5,54.4,75.2,54.7,74.9,54.7 M10.8,53.4h63.4v-7H10.8V53.4z"/>
	<path class="st1" d="M42.5,82c-0.1,0-0.1,0-0.2,0c-0.3-0.1-0.5-0.5-0.4-0.8c1.1-3,0.6-4.7,0.1-6.7c-0.6-2.1-1.3-4.5-0.1-9
		c0.1-0.3,0.4-0.6,0.8-0.5c0.3,0.1,0.6,0.4,0.5,0.8c-1.1,4.1-0.5,6.2,0.1,8.3c0.6,2.1,1.1,4-0.1,7.5C43,81.8,42.7,82,42.5,82"/>
	<path class="st1" d="M25.4,76.3c-0.1,0-0.1,0-0.2,0c-0.3-0.1-0.5-0.5-0.4-0.8c1.1-3,0.6-4.7,0.1-6.7c-0.6-2.1-1.3-4.5-0.1-9
		c0.1-0.3,0.4-0.6,0.8-0.5c0.3,0.1,0.6,0.4,0.5,0.8c-1.1,4.1-0.5,6.2,0.1,8.3c0.6,2.1,1.1,4-0.1,7.5C25.9,76.1,25.7,76.3,25.4,76.3"
		/>
	<path class="st1" d="M59.5,76.3c-0.1,0-0.1,0-0.2,0c-0.3-0.1-0.5-0.5-0.4-0.8c1.1-3,0.6-4.7,0.1-6.7c-0.6-2.1-1.3-4.5-0.1-9
		c0.1-0.3,0.4-0.6,0.8-0.5c0.3,0.1,0.6,0.4,0.5,0.8c-1.1,4.1-0.5,6.2,0.1,8.3c0.6,2.1,1.1,4-0.1,7.5C60,76.1,59.8,76.3,59.5,76.3"/>
	<path class="st1" d="M59.9,36H26c-0.4,0-0.6-0.3-0.6-0.6c0-0.4,0.3-0.7,0.6-0.7h33.9c0.4,0,0.6,0.3,0.6,0.7
		C60.6,35.7,60.3,36,59.9,36"/>
	<path class="st3" d="M23.8,47.6c1.2,0,2.3,1,2.3,2.3c0,1.2-1,2.3-2.3,2.3c-1.2,0-2.3-1-2.3-2.3C21.5,48.6,22.5,47.6,23.8,47.6"/>
	<path class="st1" d="M23.8,52.8c-1.6,0-2.9-1.3-2.9-2.9c0-1.6,1.3-2.9,2.9-2.9c1.6,0,2.9,1.3,2.9,2.9
		C26.7,51.5,25.4,52.8,23.8,52.8 M23.8,48.3c-0.9,0-1.6,0.7-1.6,1.6c0,0.9,0.7,1.6,1.6,1.6c0.9,0,1.6-0.7,1.6-1.6
		C25.4,49,24.7,48.3,23.8,48.3"/>
	<path class="st3" d="M42.5,47.6c1.2,0,2.3,1,2.3,2.3c0,1.2-1,2.3-2.3,2.3c-1.2,0-2.3-1-2.3-2.3C40.2,48.6,41.3,47.6,42.5,47.6"/>
	<path class="st1" d="M42.5,52.8c-1.6,0-2.9-1.3-2.9-2.9c0-1.6,1.3-2.9,2.9-2.9c1.6,0,2.9,1.3,2.9,2.9
		C45.4,51.5,44.1,52.8,42.5,52.8 M42.5,48.3c-0.9,0-1.6,0.7-1.6,1.6c0,0.9,0.7,1.6,1.6,1.6c0.9,0,1.6-0.7,1.6-1.6
		C44.1,49,43.4,48.3,42.5,48.3"/>
	<path class="st3" d="M61.2,47.6c1.2,0,2.3,1,2.3,2.3c0,1.2-1,2.3-2.3,2.3c-1.2,0-2.3-1-2.3-2.3C59,48.6,60,47.6,61.2,47.6"/>
	<path class="st1" d="M61.2,52.8c-1.6,0-2.9-1.3-2.9-2.9c0-1.6,1.3-2.9,2.9-2.9c1.6,0,2.9,1.3,2.9,2.9
		C64.1,51.5,62.8,52.8,61.2,52.8 M61.2,48.3c-0.9,0-1.6,0.7-1.6,1.6c0,0.9,0.7,1.6,1.6,1.6c0.9,0,1.6-0.7,1.6-1.6
		C62.8,49,62.1,48.3,61.2,48.3"/>
</g>
<g>
</g>
<g>
</g>
<g>
</g>
<g>
</g>
<g>
</g>
<g>
</g>
<g>
</g>
<g>
</g>
<g>
</g>
<g>
</g>
<g>
</g>
<g>
</g>
<g>
</g>
<g>
</g>
<g>
</g>
</svg>
