<?xml version="1.0" encoding="utf-8"?>
<!-- Generator: Adobe Illustrator 22.1.0, SVG Export Plug-In . SVG Version: 6.00 Build 0)  -->
<svg version="1.1" id="Layer_1" xmlns="http://www.w3.org/2000/svg" xmlns:xlink="http://www.w3.org/1999/xlink" x="0px" y="0px"
	 viewBox="0 0 85 85" style="enable-background:new 0 0 85 85;" xml:space="preserve">
<style type="text/css">
	.st0{fill:#707384;}
	.st1{fill:#E84C3D;}
	.st2{fill:#4BBFE8;}
	.st3{fill:#F0B465;}
</style>
<g>
	<ellipse class="st0" cx="60.2" cy="59.3" rx="13.8" ry="13.8"/>
	<path class="st1" d="M37.8,69.4V49.2c0-1.7-1.4-3.1-3.1-3.1H14.5c-1.7,0-3.1,1.4-3.1,3.1v20.2c0,1.7,1.4,3.1,3.1,3.1h20.2
		C36.4,72.5,37.8,71.1,37.8,69.4z"/>
	<path class="st2" d="M11,15.9c0,1.1,0.4,2.1,1.2,2.8l6.8,6.8l-6.8,6.8c-0.8,0.8-1.2,1.8-1.2,2.8c0,1.1,0.4,2.1,1.2,2.8
		c0.8,0.8,1.8,1.2,2.8,1.2s2.1-0.4,2.8-1.2l6.8-6.8l6.8,6.8c0.8,0.8,1.8,1.2,2.8,1.2s2.1-0.4,2.8-1.2c0.8-0.8,1.2-1.8,1.2-2.8
		c0-1.1-0.4-2.1-1.2-2.8l-6.8-6.8l6.8-6.8c0.8-0.8,1.2-1.8,1.2-2.8s-0.4-2.1-1.2-2.8c-0.8-0.8-1.8-1.2-2.8-1.2s-2.1,0.4-2.8,1.2
		l-6.8,6.8L17.8,13c-0.8-0.8-1.8-1.2-2.8-1.2s-2.1,0.4-2.8,1.2C11.4,13.8,11,14.8,11,15.9z"/>
	<path class="st3" d="M48.9,37.2h22.6c0.7,0,1.4-0.4,1.7-1s0.4-1.4,0-2L61.9,14.7c-0.4-0.6-1-1-1.7-1s-1.4,0.4-1.7,1L47.2,34.3
		c-0.4,0.6-0.4,1.4,0,2C47.5,36.9,48.2,37.2,48.9,37.2z"/>
</g>
<g>
</g>
<g>
</g>
<g>
</g>
<g>
</g>
<g>
</g>
<g>
</g>
<g>
</g>
<g>
</g>
<g>
</g>
<g>
</g>
<g>
</g>
<g>
</g>
<g>
</g>
<g>
</g>
<g>
</g>
</svg>
