<?xml version="1.0" encoding="utf-8"?>
<!-- Generator: Adobe Illustrator 22.1.0, SVG Export Plug-In . SVG Version: 6.00 Build 0)  -->
<svg version="1.1" id="Layer_1" xmlns="http://www.w3.org/2000/svg" xmlns:xlink="http://www.w3.org/1999/xlink" x="0px" y="0px"
	 viewBox="0 0 85 85" style="enable-background:new 0 0 85 85;" xml:space="preserve">
<style type="text/css">
	.st0{fill:#4BBFE8;}
	.st1{clip-path:url(#SVGID_2_);}
	.st2{clip-path:url(#SVGID_2_);fill:#F0B465;}
	.st3{clip-path:url(#SVGID_2_);fill:#4BBFE8;}
	.st4{clip-path:url(#SVGID_2_);fill:#E84C3D;}
	.st5{clip-path:url(#SVGID_2_);fill:#FACA44;}
</style>
<rect x="22.1" y="7.1" class="st0" width="40.8" height="22.6"/>
<g>
	<defs>
		<rect id="SVGID_1_" x="2.9" y="6.4" width="79.1" height="71.6"/>
	</defs>
	<clipPath id="SVGID_2_">
		<use xlink:href="#SVGID_1_"  style="overflow:visible;"/>
	</clipPath>
	<path class="st1" d="M62.9,30.3H22.1c-0.4,0-0.6-0.3-0.6-0.7V7.1c0-0.4,0.3-0.7,0.6-0.7h40.8c0.4,0,0.6,0.3,0.6,0.7v22.6
		C63.6,30,63.3,30.3,62.9,30.3 M22.7,29h39.5V7.7H22.7V29z"/>
	<path class="st2" d="M5.8,29.7h73.5c1.2,0,2.2,1,2.2,2.2v30.8c0,1.2-1,2.2-2.2,2.2H64.5v-8.7h-5.7H26.2h-5.7v8.7H5.8
		c-1.2,0-2.2-1-2.2-2.2V31.9C3.6,30.7,4.6,29.7,5.8,29.7"/>
	<path class="st1" d="M79.2,65.5H64.5c-0.4,0-0.7-0.3-0.7-0.7v-8.1H21.1v8.1c0,0.4-0.3,0.7-0.7,0.7H5.8c-1.6,0-2.8-1.3-2.8-2.8V31.9
		c0-1.6,1.3-2.8,2.8-2.8h73.5c1.6,0,2.8,1.3,2.8,2.8v30.8C82.1,64.2,80.8,65.5,79.2,65.5 M65.2,64.2h14.1c0.8,0,1.5-0.7,1.5-1.5
		V31.9c0-0.8-0.7-1.5-1.5-1.5H5.8c-0.8,0-1.5,0.7-1.5,1.5v30.8c0,0.8,0.7,1.5,1.5,1.5h14.1v-8.1c0-0.4,0.3-0.6,0.6-0.6h44.1
		c0.4,0,0.6,0.3,0.6,0.6V64.2z"/>
	<rect x="20.5" y="56.1" class="st3" width="44.1" height="21.2"/>
	<path class="st1" d="M64.5,78H20.5c-0.4,0-0.6-0.3-0.6-0.7V56.1c0-0.4,0.3-0.7,0.6-0.7h44.1c0.4,0,0.6,0.3,0.6,0.7v21.2
		C65.2,77.7,64.9,78,64.5,78 M21.1,76.7h42.8V56.8H21.1V76.7z"/>
	<path class="st1" d="M55.2,14H29.8c-0.4,0-0.6-0.3-0.6-0.6c0-0.4,0.3-0.7,0.6-0.7h25.3c0.4,0,0.6,0.3,0.6,0.7
		C55.8,13.7,55.5,14,55.2,14"/>
	<path class="st1" d="M55.2,24.1H29.8c-0.4,0-0.6-0.3-0.6-0.6c0-0.4,0.3-0.7,0.6-0.7h25.3c0.4,0,0.6,0.3,0.6,0.7
		C55.8,23.8,55.5,24.1,55.2,24.1"/>
	<path class="st4" d="M72,33.9c2,0,3.7,1.6,3.7,3.7c0,2-1.6,3.7-3.7,3.7c-2,0-3.7-1.6-3.7-3.7C68.4,35.6,70,33.9,72,33.9"/>
	<path class="st1" d="M72,41.9c-2.4,0-4.3-1.9-4.3-4.3c0-2.4,1.9-4.3,4.3-4.3c2.4,0,4.3,1.9,4.3,4.3C76.4,40,74.4,41.9,72,41.9
		 M72,34.6c-1.7,0-3,1.4-3,3c0,1.7,1.4,3,3,3c1.7,0,3-1.4,3-3C75.1,35.9,73.7,34.6,72,34.6"/>
	<path class="st5" d="M59.3,33.9c2,0,3.7,1.6,3.7,3.7c0,2-1.7,3.7-3.7,3.7c-2,0-3.7-1.6-3.7-3.7C55.6,35.6,57.2,33.9,59.3,33.9"/>
	<path class="st1" d="M59.3,41.9c-2.4,0-4.3-1.9-4.3-4.3c0-2.4,1.9-4.3,4.3-4.3c2.4,0,4.3,1.9,4.3,4.3C63.6,40,61.7,41.9,59.3,41.9
		 M59.3,34.6c-1.7,0-3,1.4-3,3c0,1.7,1.4,3,3,3c1.7,0,3-1.4,3-3C62.3,35.9,60.9,34.6,59.3,34.6"/>
</g>
<g>
</g>
<g>
</g>
<g>
</g>
<g>
</g>
<g>
</g>
<g>
</g>
<g>
</g>
<g>
</g>
<g>
</g>
<g>
</g>
<g>
</g>
<g>
</g>
<g>
</g>
<g>
</g>
<g>
</g>
</svg>
