<?xml version="1.0" encoding="utf-8"?>
<!-- Generator: Adobe Illustrator 22.1.0, SVG Export Plug-In . SVG Version: 6.00 Build 0)  -->
<svg version="1.1" xmlns="http://www.w3.org/2000/svg" xmlns:xlink="http://www.w3.org/1999/xlink" x="0px" y="0px"
	 viewBox="0 0 85 85" style="enable-background:new 0 0 85 85;" xml:space="preserve">
<style type="text/css">
	.st0{fill:#F0B465;}
	.st1{fill:#E84C3D;}
	.st2{fill:#4BBFE8;}
	.st3{fill:#FFF8D1;}
</style>
<g id="Layer_2">
</g>
<g id="Layer_3">
	<rect x="9" y="46" class="st0" width="67" height="9"/>
	<path class="st1" d="M20,13.9c-0.3-0.8-0.1-1.7,0.5-2c0.6-0.3,1.4,0,1.9,0.7L20,13.9z"/>
	<path class="st1" d="M64.4,11.9c-0.6-0.3-1.4,0-1.9,0.7l2.5,1.3C65.3,13,65.1,12.2,64.4,11.9z"/>
	<path class="st2" d="M76.5,41.9c-7.9-0.9-15.8-1.4-23.7-1.7l2.3-4.6c0.8-1.6,2.2-5.2,3.2-8.4l6.6-12.9c0,0,0,0,0,0L62.3,13
		c0,0,0,0,0,0l-6.5,12.8c-2.1,2.7-4.2,6-5,7.6l-3.4,6.6c-3.2-0.1-6.5-0.1-9.7,0l-3.4-6.6c-0.8-1.6-2.9-4.9-5-7.6L22.7,13
		c0,0,0,0,0,0l-2.5,1.3c0,0,0,0,0,0l6.6,12.9c0.9,3.2,2.3,6.8,3.2,8.4l2.3,4.6c-7.9,0.3-15.8,0.8-23.7,1.7c0,1.4,0,2.7,0,4.1h68
		C76.5,44.6,76.5,43.2,76.5,41.9z"/>
	<path class="st2" d="M8.5,59.5c1.8,0.2,3.7,0.4,5.5,0.6v1.2c0,2.2,1.7,3.9,3.9,3.9s3.9-1.7,3.9-3.9v-0.6c14.6,1,29.2,0.9,43.8-0.2
		v0.8c0,2.2,1.7,3.9,3.9,3.9c2.2,0,3.9-1.7,3.9-3.9v-1.5c1-0.1,2.1-0.2,3.1-0.3c0-1.6,0-3.2,0-4.8h-68C8.5,56.3,8.5,57.9,8.5,59.5z"
		/>
	<rect x="15.5" y="49.2" class="st1" width="4.9" height="2.4"/>
	<rect x="22.5" y="49.2" class="st3" width="4.9" height="2.4"/>
	<rect x="29.5" y="49.2" class="st3" width="4.9" height="2.4"/>
	<rect x="36.5" y="49.2" class="st3" width="4.9" height="2.4"/>
	<rect x="43.6" y="49.2" class="st3" width="4.9" height="2.4"/>
	<rect x="50.6" y="49.2" class="st3" width="4.9" height="2.4"/>
	<rect x="57.6" y="49.2" class="st3" width="4.9" height="2.4"/>
	<rect x="64.6" y="49.2" class="st3" width="4.9" height="2.4"/>
</g>
<g id="Layer_4">
	<g>
	</g>
	<g>
	</g>
	<g>
	</g>
	<g>
	</g>
	<g>
	</g>
	<g>
	</g>
	<g>
	</g>
	<g>
	</g>
	<g>
	</g>
	<g>
	</g>
	<g>
	</g>
	<g>
	</g>
	<g>
	</g>
	<g>
	</g>
	<g>
	</g>
</g>
</svg>
