<?xml version="1.0" encoding="utf-8"?>
<!-- Generator: Adobe Illustrator 22.1.0, SVG Export Plug-In . SVG Version: 6.00 Build 0)  -->
<svg version="1.1" id="Layer_1" xmlns="http://www.w3.org/2000/svg" xmlns:xlink="http://www.w3.org/1999/xlink" x="0px" y="0px"
	 viewBox="0 0 85 85" style="enable-background:new 0 0 85 85;" xml:space="preserve">
<style type="text/css">
	.st0{clip-path:url(#SVGID_2_);fill:#FFF8D1;}
	.st1{clip-path:url(#SVGID_2_);}
	.st2{clip-path:url(#SVGID_2_);fill:#4BBFE8;}
	.st3{clip-path:url(#SVGID_2_);fill:#E84C3D;}
</style>
<g>
	<defs>
		<rect id="SVGID_1_" x="16.9" y="2.8" width="51.1" height="79.2"/>
	</defs>
	<clipPath id="SVGID_2_">
		<use xlink:href="#SVGID_1_"  style="overflow:visible;"/>
	</clipPath>
	<path class="st0" d="M20.5,3.5h43.9c1.6,0,3,1.3,3,3v72c0,1.6-1.3,3-3,3H20.5c-1.6,0-3-1.3-3-3v-72C17.6,4.8,18.9,3.5,20.5,3.5"/>
	<path class="st1" d="M64.5,82H20.5c-2,0-3.6-1.6-3.6-3.6v-72c0-2,1.6-3.6,3.6-3.6h43.9c2,0,3.6,1.6,3.6,3.6v72
		C68.1,80.4,66.5,82,64.5,82 M20.5,4.1c-1.3,0-2.3,1-2.3,2.3v72c0,1.3,1,2.3,2.3,2.3h43.9c1.3,0,2.3-1,2.3-2.3v-72
		c0-1.3-1-2.3-2.3-2.3H20.5z"/>
	<path class="st2" d="M42.5,48.3c7.2,0,13.1,5.9,13.1,13.1c0,7.2-5.8,13.1-13.1,13.1c-7.2,0-13.1-5.8-13.1-13.1
		C29.4,54.2,35.3,48.3,42.5,48.3"/>
	<path class="st1" d="M42.5,75.1c-7.6,0-13.7-6.2-13.7-13.7c0-7.6,6.2-13.7,13.7-13.7c7.6,0,13.7,6.2,13.7,13.7
		C56.2,69,50.1,75.1,42.5,75.1 M42.5,49c-6.8,0-12.4,5.6-12.4,12.4c0,6.8,5.6,12.4,12.4,12.4c6.8,0,12.4-5.6,12.4-12.4
		C54.9,54.6,49.3,49,42.5,49"/>
	<path class="st3" d="M42.5,55.2c3.4,0,6.2,2.8,6.2,6.2c0,3.4-2.8,6.2-6.2,6.2c-3.4,0-6.2-2.8-6.2-6.2C36.3,58,39.1,55.2,42.5,55.2"
		/>
	<path class="st1" d="M42.5,68.3c-3.8,0-6.8-3.1-6.8-6.8c0-3.8,3.1-6.8,6.8-6.8c3.8,0,6.8,3.1,6.8,6.8
		C49.3,65.2,46.3,68.3,42.5,68.3 M42.5,55.9c-3.1,0-5.5,2.5-5.5,5.5c0,3.1,2.5,5.5,5.5,5.5c3.1,0,5.5-2.5,5.5-5.5
		C48,58.4,45.6,55.9,42.5,55.9"/>
	<path class="st2" d="M42.5,10.3c7.2,0,13.1,5.9,13.1,13.1c0,7.2-5.8,13.1-13.1,13.1c-7.2,0-13.1-5.9-13.1-13.1
		C29.4,16.2,35.3,10.3,42.5,10.3"/>
	<path class="st1" d="M42.5,37.1c-7.6,0-13.7-6.2-13.7-13.7c0-7.6,6.2-13.7,13.7-13.7c7.6,0,13.7,6.2,13.7,13.7
		C56.2,31,50.1,37.1,42.5,37.1 M42.5,11c-6.8,0-12.4,5.6-12.4,12.4c0,6.8,5.6,12.4,12.4,12.4c6.8,0,12.4-5.6,12.4-12.4
		C54.9,16.5,49.3,11,42.5,11"/>
	<path class="st3" d="M42.5,17.2c3.4,0,6.2,2.8,6.2,6.2c0,3.4-2.8,6.2-6.2,6.2c-3.4,0-6.2-2.8-6.2-6.2C36.3,20,39.1,17.2,42.5,17.2"
		/>
	<path class="st1" d="M42.5,30.2c-3.8,0-6.8-3.1-6.8-6.8c0-3.8,3.1-6.8,6.8-6.8c3.8,0,6.8,3.1,6.8,6.8
		C49.3,27.2,46.3,30.2,42.5,30.2 M42.5,17.9c-3.1,0-5.5,2.5-5.5,5.5c0,3.1,2.5,5.5,5.5,5.5c3.1,0,5.5-2.5,5.5-5.5
		C48,20.3,45.6,17.9,42.5,17.9"/>
	<path class="st1" d="M23,11.9c-1.4,0-2.6-1.1-2.6-2.6c0-1.4,1.1-2.6,2.6-2.6c1.4,0,2.6,1.1,2.6,2.6C25.5,10.7,24.4,11.9,23,11.9
		 M23,8.1c-0.7,0-1.3,0.6-1.3,1.3c0,0.7,0.6,1.3,1.3,1.3c0.7,0,1.3-0.6,1.3-1.3C24.2,8.6,23.7,8.1,23,8.1"/>
	<path class="st1" d="M62,11.9c-1.4,0-2.6-1.1-2.6-2.6c0-1.4,1.1-2.6,2.6-2.6c1.4,0,2.6,1.1,2.6,2.6C64.6,10.7,63.4,11.9,62,11.9
		 M62,8.1c-0.7,0-1.3,0.6-1.3,1.3c0,0.7,0.6,1.3,1.3,1.3c0.7,0,1.3-0.6,1.3-1.3C63.3,8.6,62.7,8.1,62,8.1"/>
	<path class="st1" d="M23,78c-1.4,0-2.6-1.1-2.6-2.6c0-1.4,1.1-2.5,2.6-2.5c1.4,0,2.6,1.1,2.6,2.5C25.5,76.9,24.4,78,23,78 M23,74.3
		c-0.7,0-1.3,0.6-1.3,1.2c0,0.7,0.6,1.3,1.3,1.3c0.7,0,1.3-0.6,1.3-1.3C24.2,74.8,23.7,74.3,23,74.3"/>
	<path class="st1" d="M62,78c-1.4,0-2.6-1.1-2.6-2.6c0-1.4,1.1-2.5,2.6-2.5c1.4,0,2.6,1.1,2.6,2.5C64.6,76.9,63.4,78,62,78 M62,74.3
		c-0.7,0-1.3,0.6-1.3,1.2c0,0.7,0.6,1.3,1.3,1.3c0.7,0,1.3-0.6,1.3-1.3C63.3,74.8,62.7,74.3,62,74.3"/>
</g>
<g>
</g>
<g>
</g>
<g>
</g>
<g>
</g>
<g>
</g>
<g>
</g>
<g>
</g>
<g>
</g>
<g>
</g>
<g>
</g>
<g>
</g>
<g>
</g>
<g>
</g>
<g>
</g>
<g>
</g>
</svg>
