<?xml version="1.0" encoding="utf-8"?>
<!-- Generator: Adobe Illustrator 22.1.0, SVG Export Plug-In . SVG Version: 6.00 Build 0)  -->
<svg version="1.1" xmlns="http://www.w3.org/2000/svg" xmlns:xlink="http://www.w3.org/1999/xlink" x="0px" y="0px"
	 viewBox="0 0 85 85" style="enable-background:new 0 0 85 85;" xml:space="preserve">
<style type="text/css">
	.st0{clip-path:url(#SVGID_2_);fill:#F0B465;}
	.st1{clip-path:url(#SVGID_2_);}
	.st2{clip-path:url(#SVGID_2_);fill:#707384;}
	.st3{clip-path:url(#SVGID_2_);fill:#E84C3D;}
	.st4{clip-path:url(#SVGID_2_);fill:#FACA44;}
	.st5{clip-path:url(#SVGID_4_);fill:#707384;}
	.st6{clip-path:url(#SVGID_4_);fill:#F0B465;}
	.st7{clip-path:url(#SVGID_4_);}
	.st8{clip-path:url(#SVGID_4_);fill:#FACA44;}
	.st9{clip-path:url(#SVGID_6_);fill:#FFF8D1;}
	.st10{clip-path:url(#SVGID_6_);}
	.st11{clip-path:url(#SVGID_6_);fill:#4BBFE8;}
	.st12{clip-path:url(#SVGID_6_);fill:#E84C3D;}
	.st13{clip-path:url(#SVGID_8_);fill:#FFF8D1;}
	.st14{clip-path:url(#SVGID_8_);}
	.st15{clip-path:url(#SVGID_8_);fill:#4BBFE8;}
	.st16{clip-path:url(#SVGID_8_);fill:#E84C3D;}
</style>
<g id="Layer_1">
</g>
<g id="Layer_2">
</g>
<g id="Layer_2_copy">
	<g>
		<g>
			<defs>
				<rect id="SVGID_1_" x="23" y="24.2" width="39.1" height="19.5"/>
			</defs>
			<clipPath id="SVGID_2_">
				<use xlink:href="#SVGID_1_"  style="overflow:visible;"/>
			</clipPath>
			<path class="st0" d="M53.8,26.7h6.7c0.7,0,1.3,0.6,1.3,1.3v11.9c0,0.7-0.6,1.3-1.3,1.3h-6.7c2.1-1.7,3.4-4.3,3.4-7.3
				C57.2,31,55.8,28.4,53.8,26.7 M24.6,26.7h17.2c-2.1,1.7-3.4,4.3-3.4,7.3c0,2.9,1.3,5.5,3.4,7.3H24.6c-0.7,0-1.3-0.6-1.3-1.3V28
				C23.3,27.3,23.9,26.7,24.6,26.7"/>
			<path class="st1" d="M60.5,41.5h-6.7c-0.1,0-0.3-0.1-0.3-0.2c0-0.1,0-0.3,0.1-0.4c2.1-1.7,3.3-4.3,3.3-7c0-2.7-1.2-5.3-3.3-7
				c-0.1-0.1-0.1-0.2-0.1-0.4c0-0.1,0.2-0.2,0.3-0.2h6.7c0.9,0,1.6,0.7,1.6,1.6v11.9C62.1,40.8,61.4,41.5,60.5,41.5 M54.6,40.9h5.9
				c0.5,0,1-0.4,1-1V28c0-0.5-0.4-1-1-1h-5.9c1.9,1.8,2.9,4.3,2.9,6.9S56.4,39.1,54.6,40.9 M41.7,41.5
				C41.7,41.5,41.7,41.5,41.7,41.5H24.6c-0.9,0-1.6-0.7-1.6-1.6V28c0-0.9,0.7-1.6,1.6-1.6h17.2c0.1,0,0.3,0.1,0.3,0.2
				c0,0.1,0,0.3-0.1,0.4c-2.1,1.7-3.3,4.3-3.3,7c0,2.7,1.2,5.2,3.3,7c0.1,0.1,0.2,0.2,0.2,0.3C42.1,41.4,41.9,41.5,41.7,41.5
				 M24.6,27c-0.5,0-1,0.4-1,1v11.9c0,0.5,0.4,1,1,1h16.3C39.1,39.1,38,36.6,38,34s1-5.1,2.9-6.9H24.6z"/>
			<path class="st2" d="M47.7,25.1c4.9,0,8.9,4,8.9,8.9c0,4.9-4,8.9-8.9,8.9s-8.9-4-8.9-8.9C38.9,29,42.8,25.1,47.7,25.1"/>
			<path class="st1" d="M47.7,43.5c-5.3,0-9.5-4.3-9.5-9.5c0-5.3,4.3-9.5,9.5-9.5c5.3,0,9.5,4.3,9.5,9.5
				C57.3,39.2,53,43.5,47.7,43.5 M47.7,25c-4.9,0-8.9,4-8.9,8.9c0,4.9,4,8.9,8.9,8.9c4.9,0,8.9-4,8.9-8.9C56.6,29,52.7,25,47.7,25"
				/>
			<path class="st3" d="M47.7,30.6c1.9,0,3.4,1.5,3.4,3.4c0,1.9-1.5,3.4-3.4,3.4c-1.9,0-3.4-1.5-3.4-3.4
				C44.4,32.1,45.9,30.6,47.7,30.6"/>
			<path class="st1" d="M47.7,37.6c-2,0-3.6-1.6-3.6-3.6c0-2,1.6-3.6,3.6-3.6c2,0,3.6,1.6,3.6,3.6C51.3,35.9,49.7,37.6,47.7,37.6
				 M47.7,30.8c-1.8,0-3.2,1.4-3.2,3.2c0,1.8,1.4,3.2,3.2,3.2s3.2-1.4,3.2-3.2C50.9,32.2,49.5,30.8,47.7,30.8"/>
			<path class="st1" d="M25.8,30.5c-0.7,0-1.2-0.6-1.2-1.2c0-0.7,0.6-1.2,1.2-1.2c0.7,0,1.2,0.6,1.2,1.2
				C27,29.9,26.5,30.5,25.8,30.5 M25.8,28.7c-0.3,0-0.6,0.3-0.6,0.6c0,0.3,0.3,0.6,0.6,0.6c0.3,0,0.6-0.3,0.6-0.6
				C26.4,28.9,26.1,28.7,25.8,28.7"/>
			<path class="st1" d="M35,32.3h-8.8c-0.2,0-0.3-0.1-0.3-0.3c0-0.2,0.1-0.3,0.3-0.3H35c0.2,0,0.3,0.1,0.3,0.3
				C35.3,32.1,35.2,32.3,35,32.3"/>
			<path class="st1" d="M35,36.3h-8.8c-0.2,0-0.3-0.1-0.3-0.3c0-0.2,0.1-0.3,0.3-0.3H35c0.2,0,0.3,0.1,0.3,0.3
				C35.3,36.2,35.2,36.3,35,36.3"/>
			<rect x="25.7" y="41.2" class="st4" width="4.2" height="1.8"/>
			<path class="st1" d="M29.9,43.4h-4.2c-0.2,0-0.3-0.1-0.3-0.3v-1.8c0-0.2,0.1-0.3,0.3-0.3h4.2c0.2,0,0.3,0.1,0.3,0.3V43
				C30.2,43.2,30.1,43.4,29.9,43.4 M26.1,42.7h3.5v-1.2h-3.5V42.7z"/>
			<rect x="55.2" y="41.2" class="st4" width="4.2" height="1.8"/>
			<path class="st1" d="M59.3,43.4h-4.2c-0.2,0-0.3-0.1-0.3-0.3v-1.8c0-0.2,0.1-0.3,0.3-0.3h4.2c0.2,0,0.3,0.1,0.3,0.3V43
				C59.7,43.2,59.5,43.4,59.3,43.4 M55.5,42.7H59v-1.2h-3.5V42.7z"/>
		</g>
		<g>
			<defs>
				<rect id="SVGID_3_" x="23" y="41.3" width="39.1" height="19.5"/>
			</defs>
			<clipPath id="SVGID_4_">
				<use xlink:href="#SVGID_3_"  style="overflow:visible;"/>
			</clipPath>
			<rect x="38.1" y="43.7" class="st5" width="19.8" height="14.7"/>
			<path class="st6" d="M53.8,43.8h6.7c0.7,0,1.3,0.6,1.3,1.3V57c0,0.7-0.6,1.3-1.3,1.3h-6.7c2.1-1.7,3.4-4.3,3.4-7.3
				C57.2,48.1,55.8,45.5,53.8,43.8 M24.6,43.8h17.2c-2.1,1.7-3.4,4.3-3.4,7.3c0,2.9,1.3,5.5,3.4,7.3H24.6c-0.7,0-1.3-0.6-1.3-1.3
				V45.1C23.3,44.4,23.9,43.8,24.6,43.8"/>
			<path class="st7" d="M60.5,58.6h-6.7c-0.1,0-0.3-0.1-0.3-0.2c0-0.1,0-0.3,0.1-0.4c2.1-1.7,3.3-4.3,3.3-7c0-2.7-1.2-5.3-3.3-7
				c-0.1-0.1-0.1-0.2-0.1-0.4c0-0.1,0.2-0.2,0.3-0.2h6.7c0.9,0,1.6,0.7,1.6,1.6V57C62.1,57.9,61.4,58.6,60.5,58.6 M54.6,58h5.9
				c0.5,0,1-0.4,1-1V45.1c0-0.5-0.4-1-1-1h-5.9c1.9,1.8,2.9,4.3,2.9,6.9S56.4,56.2,54.6,58 M41.7,58.6
				C41.7,58.6,41.7,58.6,41.7,58.6H24.6c-0.9,0-1.6-0.7-1.6-1.6V45.1c0-0.9,0.7-1.6,1.6-1.6h17.2c0.1,0,0.3,0.1,0.3,0.2
				c0,0.1,0,0.3-0.1,0.4c-2.1,1.7-3.3,4.3-3.3,7c0,2.7,1.2,5.2,3.3,7c0.1,0.1,0.2,0.2,0.2,0.3C42.1,58.5,41.9,58.6,41.7,58.6
				 M24.6,44.1c-0.5,0-1,0.4-1,1V57c0,0.5,0.4,1,1,1h16.3C39.1,56.2,38,53.7,38,51s1-5.1,2.9-6.9H24.6z"/>
			<path class="st7" d="M25.8,47.6c-0.7,0-1.2-0.6-1.2-1.2c0-0.7,0.6-1.2,1.2-1.2c0.7,0,1.2,0.6,1.2,1.2C27,47,26.5,47.6,25.8,47.6
				 M25.8,45.7c-0.3,0-0.6,0.3-0.6,0.6c0,0.3,0.3,0.6,0.6,0.6c0.3,0,0.6-0.3,0.6-0.6C26.4,46,26.1,45.7,25.8,45.7"/>
			<path class="st7" d="M35,49.4h-8.8c-0.2,0-0.3-0.1-0.3-0.3c0-0.2,0.1-0.3,0.3-0.3H35c0.2,0,0.3,0.1,0.3,0.3
				C35.3,49.2,35.2,49.4,35,49.4"/>
			<path class="st7" d="M51.6,49.4h-8.8c-0.2,0-0.3-0.1-0.3-0.3c0-0.2,0.1-0.3,0.3-0.3h8.8c0.2,0,0.3,0.1,0.3,0.3
				C52,49.2,51.8,49.4,51.6,49.4"/>
			<path class="st7" d="M51.6,53.5h-8.8c-0.2,0-0.3-0.1-0.3-0.3c0-0.2,0.1-0.3,0.3-0.3h8.8c0.2,0,0.3,0.1,0.3,0.3
				C52,53.4,51.8,53.5,51.6,53.5"/>
			<path class="st7" d="M35,53.4h-8.8c-0.2,0-0.3-0.1-0.3-0.3c0-0.2,0.1-0.3,0.3-0.3H35c0.2,0,0.3,0.1,0.3,0.3
				C35.3,53.2,35.2,53.4,35,53.4"/>
			<rect x="25.7" y="58.3" class="st8" width="4.2" height="1.8"/>
			<path class="st7" d="M29.9,60.4h-4.2c-0.2,0-0.3-0.1-0.3-0.3v-1.8c0-0.2,0.1-0.3,0.3-0.3h4.2c0.2,0,0.3,0.1,0.3,0.3v1.8
				C30.2,60.3,30.1,60.4,29.9,60.4 M26.1,59.8h3.5v-1.2h-3.5V59.8z"/>
			<rect x="55.2" y="58.3" class="st8" width="4.2" height="1.8"/>
			<path class="st7" d="M59.3,60.4h-4.2c-0.2,0-0.3-0.1-0.3-0.3v-1.8c0-0.2,0.1-0.3,0.3-0.3h4.2c0.2,0,0.3,0.1,0.3,0.3v1.8
				C59.7,60.3,59.5,60.4,59.3,60.4 M55.5,59.8H59v-1.2h-3.5V59.8z"/>
		</g>
		<g>
			<defs>
				<rect id="SVGID_5_" x="62.1" y="29" width="20.1" height="31.1"/>
			</defs>
			<clipPath id="SVGID_6_">
				<use xlink:href="#SVGID_5_"  style="overflow:visible;"/>
			</clipPath>
			<path class="st9" d="M63.5,29.3h17.2c0.6,0,1.2,0.5,1.2,1.2v28.2c0,0.6-0.5,1.2-1.2,1.2H63.5c-0.6,0-1.2-0.5-1.2-1.2V30.4
				C62.4,29.8,62.9,29.3,63.5,29.3"/>
			<path class="st10" d="M80.8,60.1H63.5c-0.8,0-1.4-0.6-1.4-1.4V30.4c0-0.8,0.6-1.4,1.4-1.4h17.2c0.8,0,1.4,0.6,1.4,1.4v28.2
				C82.2,59.4,81.6,60.1,80.8,60.1 M63.5,29.5c-0.5,0-0.9,0.4-0.9,0.9v28.2c0,0.5,0.4,0.9,0.9,0.9h17.2c0.5,0,0.9-0.4,0.9-0.9V30.4
				c0-0.5-0.4-0.9-0.9-0.9H63.5z"/>
			<path class="st11" d="M72.2,46.9c2.8,0,5.1,2.3,5.1,5.1s-2.3,5.1-5.1,5.1c-2.8,0-5.1-2.3-5.1-5.1S69.3,46.9,72.2,46.9"/>
			<path class="st10" d="M72.2,57.4c-3,0-5.4-2.4-5.4-5.4c0-3,2.4-5.4,5.4-5.4c3,0,5.4,2.4,5.4,5.4C77.5,55,75.1,57.4,72.2,57.4
				 M72.2,47.1c-2.7,0-4.9,2.2-4.9,4.9c0,2.7,2.2,4.9,4.9,4.9c2.7,0,4.9-2.2,4.9-4.9C77,49.3,74.8,47.1,72.2,47.1"/>
			<path class="st12" d="M72.2,49.6c1.3,0,2.4,1.1,2.4,2.4c0,1.3-1.1,2.4-2.4,2.4c-1.3,0-2.4-1.1-2.4-2.4
				C69.7,50.7,70.8,49.6,72.2,49.6"/>
			<path class="st10" d="M72.2,54.7c-1.5,0-2.7-1.2-2.7-2.7c0-1.5,1.2-2.7,2.7-2.7c1.5,0,2.7,1.2,2.7,2.7
				C74.8,53.5,73.6,54.7,72.2,54.7 M72.2,49.8c-1.2,0-2.2,1-2.2,2.2c0,1.2,1,2.2,2.2,2.2c1.2,0,2.2-1,2.2-2.2
				C74.3,50.8,73.4,49.8,72.2,49.8"/>
			<path class="st11" d="M72.2,32c2.8,0,5.1,2.3,5.1,5.1c0,2.8-2.3,5.1-5.1,5.1c-2.8,0-5.1-2.3-5.1-5.1C67,34.3,69.3,32,72.2,32"/>
			<path class="st10" d="M72.2,42.5c-3,0-5.4-2.4-5.4-5.4c0-3,2.4-5.4,5.4-5.4c3,0,5.4,2.4,5.4,5.4C77.5,40.1,75.1,42.5,72.2,42.5
				 M72.2,32.2c-2.7,0-4.9,2.2-4.9,4.9c0,2.7,2.2,4.9,4.9,4.9c2.7,0,4.9-2.2,4.9-4.9C77,34.4,74.8,32.2,72.2,32.2"/>
			<path class="st12" d="M72.2,34.7c1.3,0,2.4,1.1,2.4,2.4c0,1.3-1.1,2.4-2.4,2.4c-1.3,0-2.4-1.1-2.4-2.4
				C69.7,35.7,70.8,34.7,72.2,34.7"/>
			<path class="st10" d="M72.2,39.8c-1.5,0-2.7-1.2-2.7-2.7c0-1.5,1.2-2.7,2.7-2.7c1.5,0,2.7,1.2,2.7,2.7
				C74.8,38.6,73.6,39.8,72.2,39.8 M72.2,34.9c-1.2,0-2.2,1-2.2,2.2c0,1.2,1,2.2,2.2,2.2c1.2,0,2.2-1,2.2-2.2
				C74.3,35.9,73.4,34.9,72.2,34.9"/>
			<path class="st10" d="M64.5,32.6c-0.6,0-1-0.5-1-1c0-0.6,0.5-1,1-1c0.6,0,1,0.5,1,1C65.5,32.1,65,32.6,64.5,32.6 M64.5,31.1
				c-0.3,0-0.5,0.2-0.5,0.5c0,0.3,0.2,0.5,0.5,0.5c0.3,0,0.5-0.2,0.5-0.5C65,31.3,64.8,31.1,64.5,31.1"/>
			<path class="st10" d="M79.8,32.6c-0.6,0-1-0.5-1-1c0-0.6,0.4-1,1-1c0.6,0,1,0.5,1,1C80.8,32.1,80.4,32.6,79.8,32.6 M79.8,31.1
				c-0.3,0-0.5,0.2-0.5,0.5c0,0.3,0.2,0.5,0.5,0.5c0.3,0,0.5-0.2,0.5-0.5C80.3,31.3,80.1,31.1,79.8,31.1"/>
			<path class="st10" d="M64.5,58.5c-0.6,0-1-0.5-1-1c0-0.6,0.5-1,1-1c0.6,0,1,0.4,1,1C65.5,58.1,65,58.5,64.5,58.5 M64.5,57
				c-0.3,0-0.5,0.2-0.5,0.5c0,0.3,0.2,0.5,0.5,0.5c0.3,0,0.5-0.2,0.5-0.5C65,57.3,64.8,57,64.5,57"/>
			<path class="st10" d="M79.8,58.5c-0.6,0-1-0.5-1-1c0-0.6,0.4-1,1-1c0.6,0,1,0.4,1,1C80.8,58.1,80.4,58.5,79.8,58.5 M79.8,57
				c-0.3,0-0.5,0.2-0.5,0.5c0,0.3,0.2,0.5,0.5,0.5c0.3,0,0.5-0.2,0.5-0.5C80.3,57.3,80.1,57,79.8,57"/>
		</g>
		<g>
			<defs>
				<rect id="SVGID_7_" x="2.8" y="29.2" width="20.1" height="31.1"/>
			</defs>
			<clipPath id="SVGID_8_">
				<use xlink:href="#SVGID_7_"  style="overflow:visible;"/>
			</clipPath>
			<path class="st13" d="M4.2,29.5h17.2c0.6,0,1.2,0.5,1.2,1.2v28.2c0,0.6-0.5,1.2-1.2,1.2H4.2c-0.6,0-1.2-0.5-1.2-1.2V30.6
				C3.1,30,3.6,29.5,4.2,29.5"/>
			<path class="st14" d="M21.5,60.3H4.2c-0.8,0-1.4-0.6-1.4-1.4V30.6c0-0.8,0.6-1.4,1.4-1.4h17.2c0.8,0,1.4,0.6,1.4,1.4v28.2
				C22.9,59.6,22.2,60.3,21.5,60.3 M4.2,29.7c-0.5,0-0.9,0.4-0.9,0.9v28.2c0,0.5,0.4,0.9,0.9,0.9h17.2c0.5,0,0.9-0.4,0.9-0.9V30.6
				c0-0.5-0.4-0.9-0.9-0.9H4.2z"/>
			<path class="st15" d="M12.9,47.1c2.8,0,5.1,2.3,5.1,5.1c0,2.8-2.3,5.1-5.1,5.1c-2.8,0-5.1-2.3-5.1-5.1
				C7.7,49.4,10,47.1,12.9,47.1"/>
			<path class="st14" d="M12.9,57.6c-3,0-5.4-2.4-5.4-5.4c0-3,2.4-5.4,5.4-5.4c3,0,5.4,2.4,5.4,5.4C18.2,55.2,15.8,57.6,12.9,57.6
				 M12.9,47.3c-2.7,0-4.9,2.2-4.9,4.9c0,2.7,2.2,4.9,4.9,4.9c2.7,0,4.9-2.2,4.9-4.9C17.7,49.5,15.5,47.3,12.9,47.3"/>
			<path class="st16" d="M12.9,49.8c1.3,0,2.4,1.1,2.4,2.4c0,1.3-1.1,2.4-2.4,2.4c-1.3,0-2.4-1.1-2.4-2.4
				C10.4,50.9,11.5,49.8,12.9,49.8"/>
			<path class="st14" d="M12.9,54.9c-1.5,0-2.7-1.2-2.7-2.7c0-1.5,1.2-2.7,2.7-2.7c1.5,0,2.7,1.2,2.7,2.7
				C15.5,53.7,14.3,54.9,12.9,54.9 M12.9,50c-1.2,0-2.2,1-2.2,2.2c0,1.2,1,2.2,2.2,2.2c1.2,0,2.2-1,2.2-2.2C15,51,14,50,12.9,50"/>
			<path class="st15" d="M12.9,32.2c2.8,0,5.1,2.3,5.1,5.1c0,2.8-2.3,5.1-5.1,5.1c-2.8,0-5.1-2.3-5.1-5.1
				C7.7,34.5,10,32.2,12.9,32.2"/>
			<path class="st14" d="M12.9,42.7c-3,0-5.4-2.4-5.4-5.4c0-3,2.4-5.4,5.4-5.4c3,0,5.4,2.4,5.4,5.4C18.2,40.3,15.8,42.7,12.9,42.7
				 M12.9,32.4c-2.7,0-4.9,2.2-4.9,4.9c0,2.7,2.2,4.9,4.9,4.9c2.7,0,4.9-2.2,4.9-4.9C17.7,34.6,15.5,32.4,12.9,32.4"/>
			<path class="st16" d="M12.9,34.9c1.3,0,2.4,1.1,2.4,2.4c0,1.3-1.1,2.4-2.4,2.4c-1.3,0-2.4-1.1-2.4-2.4
				C10.4,35.9,11.5,34.9,12.9,34.9"/>
			<path class="st14" d="M12.9,40c-1.5,0-2.7-1.2-2.7-2.7c0-1.5,1.2-2.7,2.7-2.7c1.5,0,2.7,1.2,2.7,2.7C15.5,38.8,14.3,40,12.9,40
				 M12.9,35.1c-1.2,0-2.2,1-2.2,2.2c0,1.2,1,2.2,2.2,2.2c1.2,0,2.2-1,2.2-2.2C15,36.1,14,35.1,12.9,35.1"/>
			<path class="st14" d="M5.2,32.8c-0.6,0-1-0.5-1-1s0.5-1,1-1c0.6,0,1,0.5,1,1S5.7,32.8,5.2,32.8 M5.2,31.3c-0.3,0-0.5,0.2-0.5,0.5
				c0,0.3,0.2,0.5,0.5,0.5c0.3,0,0.5-0.2,0.5-0.5C5.7,31.5,5.5,31.3,5.2,31.3"/>
			<path class="st14" d="M20.5,32.8c-0.6,0-1-0.5-1-1s0.4-1,1-1c0.6,0,1,0.5,1,1S21.1,32.8,20.5,32.8 M20.5,31.3
				c-0.3,0-0.5,0.2-0.5,0.5c0,0.3,0.2,0.5,0.5,0.5c0.3,0,0.5-0.2,0.5-0.5C21,31.5,20.8,31.3,20.5,31.3"/>
			<path class="st14" d="M5.2,58.7c-0.6,0-1-0.5-1-1c0-0.6,0.5-1,1-1c0.6,0,1,0.4,1,1C6.2,58.3,5.7,58.7,5.2,58.7 M5.2,57.2
				c-0.3,0-0.5,0.2-0.5,0.5c0,0.3,0.2,0.5,0.5,0.5c0.3,0,0.5-0.2,0.5-0.5C5.7,57.5,5.5,57.2,5.2,57.2"/>
			<path class="st14" d="M20.5,58.7c-0.6,0-1-0.5-1-1c0-0.6,0.4-1,1-1c0.6,0,1,0.4,1,1C21.5,58.3,21.1,58.7,20.5,58.7 M20.5,57.2
				c-0.3,0-0.5,0.2-0.5,0.5c0,0.3,0.2,0.5,0.5,0.5c0.3,0,0.5-0.2,0.5-0.5C21,57.5,20.8,57.2,20.5,57.2"/>
		</g>
	</g>
	<g>
	</g>
	<g>
	</g>
	<g>
	</g>
	<g>
	</g>
	<g>
	</g>
	<g>
	</g>
	<g>
	</g>
	<g>
	</g>
	<g>
	</g>
	<g>
	</g>
	<g>
	</g>
	<g>
	</g>
	<g>
	</g>
	<g>
	</g>
	<g>
	</g>
</g>
</svg>
