<?xml version="1.0" encoding="utf-8"?>
<!-- Generator: Adobe Illustrator 22.1.0, SVG Export Plug-In . SVG Version: 6.00 Build 0)  -->
<svg version="1.1" id="Layer_1" xmlns="http://www.w3.org/2000/svg" xmlns:xlink="http://www.w3.org/1999/xlink" x="0px" y="0px"
	 viewBox="0 0 85 85" style="enable-background:new 0 0 85 85;" xml:space="preserve">
<style type="text/css">
	.st0{clip-path:url(#SVGID_2_);fill:#FFF8D1;}
	.st1{clip-path:url(#SVGID_2_);}
	.st2{clip-path:url(#SVGID_2_);fill:#F0B465;}
	.st3{clip-path:url(#SVGID_2_);fill:#4BBFE8;}
	.st4{clip-path:url(#SVGID_2_);fill:#E84C3D;}
</style>
<g>
	<defs>
		<rect id="SVGID_1_" x="5.8" y="2.8" width="73.3" height="79.2"/>
	</defs>
	<clipPath id="SVGID_2_">
		<use xlink:href="#SVGID_1_"  style="overflow:visible;"/>
	</clipPath>
	<path class="st0" d="M34.8,11.1h39.3c2.4,0,4.4,2,4.4,4.4v53.8c0,2.4-2,4.4-4.4,4.4H34.8V11.1z M10.9,11.1H16v62.6h-5.1
		c-2.4,0-4.4-2-4.4-4.4V15.5C6.5,13.1,8.5,11.1,10.9,11.1"/>
	<path class="st1" d="M74.2,74.3H34.8c-0.4,0-0.7-0.3-0.7-0.7V11.1c0-0.4,0.3-0.7,0.7-0.7h39.3c2.8,0,5,2.3,5,5v53.8
		C79.2,72.1,76.9,74.3,74.2,74.3 M35.5,73h38.7c2.1,0,3.7-1.7,3.7-3.7V15.5c0-2.1-1.7-3.7-3.7-3.7H35.5V73z M16,74.3h-5.1
		c-2.8,0-5-2.3-5-5V15.5c0-2.8,2.3-5,5-5H16c0.4,0,0.6,0.3,0.6,0.7v62.6C16.6,74,16.4,74.3,16,74.3 M10.9,11.8
		c-2.1,0-3.7,1.7-3.7,3.7v53.8c0,2.1,1.7,3.7,3.7,3.7h4.5V11.8H10.9z"/>
	<path class="st2" d="M21,3.5h8.9c2.7,0,5,2.2,5,5v67.9c0,2.7-2.2,5-5,5H21c-2.7,0-5-2.2-5-5V8.4C16,5.7,18.2,3.5,21,3.5"/>
	<path class="st1" d="M29.9,82H21c-3.1,0-5.6-2.5-5.6-5.6V8.4c0-3.1,2.5-5.6,5.6-5.6h8.9c3.1,0,5.6,2.5,5.6,5.6v67.9
		C35.5,79.5,33,82,29.9,82 M21,4.1c-2.4,0-4.3,1.9-4.3,4.3v67.9c0,2.4,1.9,4.3,4.3,4.3h8.9c2.4,0,4.3-1.9,4.3-4.3V8.4
		c0-2.4-1.9-4.3-4.3-4.3H21z"/>
	<rect x="39.2" y="18" class="st3" width="33.3" height="11.7"/>
	<path class="st1" d="M72.5,30.3H39.2c-0.4,0-0.6-0.3-0.6-0.7V18c0-0.4,0.3-0.7,0.6-0.7h33.3c0.4,0,0.7,0.3,0.7,0.7v11.7
		C73.2,30,72.9,30.3,72.5,30.3 M39.8,29h32V18.6h-32V29z"/>
	<path class="st4" d="M44.2,34.2c1.8,0,3.2,1.4,3.2,3.2c0,1.8-1.4,3.2-3.2,3.2c-1.8,0-3.2-1.4-3.2-3.2C41,35.7,42.4,34.2,44.2,34.2"
		/>
	<path class="st1" d="M44.2,41.3c-2.1,0-3.9-1.7-3.9-3.9c0-2.1,1.7-3.9,3.9-3.9c2.1,0,3.9,1.7,3.9,3.9C48,39.6,46.3,41.3,44.2,41.3
		 M44.2,34.9c-1.4,0-2.6,1.1-2.6,2.6c0,1.4,1.1,2.6,2.6,2.6c1.4,0,2.6-1.1,2.6-2.6C46.7,36,45.6,34.9,44.2,34.9"/>
	<path class="st4" d="M55.9,34.2c1.8,0,3.2,1.4,3.2,3.2c0,1.8-1.4,3.2-3.2,3.2c-1.8,0-3.2-1.4-3.2-3.2
		C52.6,35.7,54.1,34.2,55.9,34.2"/>
	<path class="st1" d="M55.9,41.3c-2.1,0-3.9-1.7-3.9-3.9c0-2.1,1.7-3.9,3.9-3.9c2.1,0,3.9,1.7,3.9,3.9C59.7,39.6,58,41.3,55.9,41.3
		 M55.9,34.9c-1.4,0-2.6,1.1-2.6,2.6c0,1.4,1.1,2.6,2.6,2.6c1.4,0,2.6-1.1,2.6-2.6C58.4,36,57.3,34.9,55.9,34.9"/>
	<path class="st4" d="M67.5,34.2c1.8,0,3.2,1.4,3.2,3.2c0,1.8-1.4,3.2-3.2,3.2c-1.8,0-3.2-1.4-3.2-3.2
		C64.3,35.7,65.8,34.2,67.5,34.2"/>
	<path class="st1" d="M67.5,41.3c-2.1,0-3.9-1.7-3.9-3.9c0-2.1,1.7-3.9,3.9-3.9c2.1,0,3.9,1.7,3.9,3.9
		C71.4,39.6,69.7,41.3,67.5,41.3 M67.5,34.9c-1.4,0-2.6,1.1-2.6,2.6c0,1.4,1.1,2.6,2.6,2.6c1.4,0,2.6-1.1,2.6-2.6
		C70.1,36,69,34.9,67.5,34.9"/>
	<path class="st4" d="M44.2,46.5c1.8,0,3.2,1.4,3.2,3.2c0,1.8-1.4,3.2-3.2,3.2c-1.8,0-3.2-1.4-3.2-3.2C41,48,42.4,46.5,44.2,46.5"/>
	<path class="st1" d="M44.2,53.6c-2.1,0-3.9-1.7-3.9-3.9c0-2.1,1.7-3.9,3.9-3.9c2.1,0,3.9,1.7,3.9,3.9C48,51.9,46.3,53.6,44.2,53.6
		 M44.2,47.2c-1.4,0-2.6,1.1-2.6,2.6c0,1.4,1.1,2.6,2.6,2.6c1.4,0,2.6-1.1,2.6-2.6C46.7,48.3,45.6,47.2,44.2,47.2"/>
	<path class="st4" d="M55.9,46.5c1.8,0,3.2,1.4,3.2,3.2c0,1.8-1.4,3.2-3.2,3.2c-1.8,0-3.2-1.4-3.2-3.2C52.6,48,54.1,46.5,55.9,46.5"
		/>
	<path class="st1" d="M55.9,53.6c-2.1,0-3.9-1.7-3.9-3.9c0-2.1,1.7-3.9,3.9-3.9c2.1,0,3.9,1.7,3.9,3.9C59.7,51.9,58,53.6,55.9,53.6
		 M55.9,47.2c-1.4,0-2.6,1.1-2.6,2.6c0,1.4,1.1,2.6,2.6,2.6c1.4,0,2.6-1.1,2.6-2.6C58.4,48.3,57.3,47.2,55.9,47.2"/>
	<path class="st4" d="M67.5,46.5c1.8,0,3.2,1.4,3.2,3.2c0,1.8-1.4,3.2-3.2,3.2c-1.8,0-3.2-1.4-3.2-3.2C64.3,48,65.8,46.5,67.5,46.5"
		/>
	<path class="st1" d="M67.5,53.6c-2.1,0-3.9-1.7-3.9-3.9c0-2.1,1.7-3.9,3.9-3.9c2.1,0,3.9,1.7,3.9,3.9
		C71.4,51.9,69.7,53.6,67.5,53.6 M67.5,47.2c-1.4,0-2.6,1.1-2.6,2.6c0,1.4,1.1,2.6,2.6,2.6c1.4,0,2.6-1.1,2.6-2.6
		C70.1,48.3,69,47.2,67.5,47.2"/>
	<path class="st4" d="M44.2,58.9c1.8,0,3.2,1.4,3.2,3.2c0,1.8-1.4,3.2-3.2,3.2c-1.8,0-3.2-1.4-3.2-3.2C41,60.3,42.4,58.9,44.2,58.9"
		/>
	<path class="st1" d="M44.2,65.9c-2.1,0-3.9-1.7-3.9-3.9c0-2.1,1.7-3.9,3.9-3.9c2.1,0,3.9,1.7,3.9,3.9C48,64.2,46.3,65.9,44.2,65.9
		 M44.2,59.5c-1.4,0-2.6,1.1-2.6,2.6c0,1.4,1.1,2.6,2.6,2.6c1.4,0,2.6-1.1,2.6-2.6C46.7,60.7,45.6,59.5,44.2,59.5"/>
	<path class="st4" d="M55.9,58.9c1.8,0,3.2,1.4,3.2,3.2c0,1.8-1.4,3.2-3.2,3.2c-1.8,0-3.2-1.4-3.2-3.2
		C52.6,60.3,54.1,58.9,55.9,58.9"/>
	<path class="st1" d="M55.9,65.9c-2.1,0-3.9-1.7-3.9-3.9c0-2.1,1.7-3.9,3.9-3.9c2.1,0,3.9,1.7,3.9,3.9C59.7,64.2,58,65.9,55.9,65.9
		 M55.9,59.5c-1.4,0-2.6,1.1-2.6,2.6c0,1.4,1.1,2.6,2.6,2.6c1.4,0,2.6-1.1,2.6-2.6C58.4,60.7,57.3,59.5,55.9,59.5"/>
	<path class="st4" d="M67.5,58.9c1.8,0,3.2,1.4,3.2,3.2c0,1.8-1.4,3.2-3.2,3.2c-1.8,0-3.2-1.4-3.2-3.2
		C64.3,60.3,65.8,58.9,67.5,58.9"/>
	<path class="st1" d="M67.5,65.9c-2.1,0-3.9-1.7-3.9-3.9c0-2.1,1.7-3.9,3.9-3.9c2.1,0,3.9,1.7,3.9,3.9
		C71.4,64.2,69.7,65.9,67.5,65.9 M67.5,59.5c-1.4,0-2.6,1.1-2.6,2.6c0,1.4,1.1,2.6,2.6,2.6c1.4,0,2.6-1.1,2.6-2.6
		C70.1,60.7,69,59.5,67.5,59.5"/>
	<path class="st1" d="M28.3,62.8c-0.4,0-0.7-0.3-0.7-0.7V22.6c0-0.4,0.3-0.6,0.7-0.6c0.4,0,0.6,0.3,0.6,0.6v39.6
		C29,62.5,28.7,62.8,28.3,62.8"/>
</g>
<g>
</g>
<g>
</g>
<g>
</g>
<g>
</g>
<g>
</g>
<g>
</g>
<g>
</g>
<g>
</g>
<g>
</g>
<g>
</g>
<g>
</g>
<g>
</g>
<g>
</g>
<g>
</g>
<g>
</g>
</svg>
