<?xml version="1.0" encoding="utf-8"?>
<!-- Generator: Adobe Illustrator 22.1.0, SVG Export Plug-In . SVG Version: 6.00 Build 0)  -->
<svg version="1.1" xmlns="http://www.w3.org/2000/svg" xmlns:xlink="http://www.w3.org/1999/xlink" x="0px" y="0px"
	 viewBox="0 0 85 85" style="enable-background:new 0 0 85 85;" xml:space="preserve">
<style type="text/css">
	.st0{fill:#4BBFE8;}
	.st1{fill:#E84C3D;}
	.st2{fill:#F0B465;}
</style>
<g id="Layer_2">
</g>
<g id="Layer_3">
	<title>Kitchen vol.1</title>
	<g>
		<circle class="st0" cx="15" cy="67.6" r="6.3"/>
		<circle class="st1" cx="15" cy="67.6" r="3.6"/>
		<path class="st2" d="M76.6,69.2h-9.3L55,15.2c-0.1-0.7-0.7-1.3-1.4-1.5c-8.2-2.5-15.5-2.2-20.2,0.8c-2.8,1.8-4.6,4.6-5,7.7
			c-0.7,6,4.2,9,8.5,11.7c2.7,1.7,5.4,3.3,6.2,5.4c1.8,4.3-0.2,10-1.9,13.4l-0.7-0.4c-0.9-0.6-2.2-0.3-2.7,0.6l-1,1.5
			c-8-4.2-17.4-6.2-21.5-1.6c-1.4,1.5-2.4,3.8-3,6.2c0.9-0.3,1.8-0.4,2.7-0.4c5,0,9,4,9,9c0,2.3-0.9,4.4-2.3,6.1H44
			c6.7,0,7.2-7.7,0.9-13.8l1.2-1.8c0.6-0.9,0.3-2.2-0.6-2.7L44.8,55c2-4,4.7-11.1,2.2-17.1c-1.4-3.3-4.7-5.4-7.9-7.3
			c-4.3-2.7-6.9-4.6-6.6-7.7c0.2-2,1.3-3.7,3.1-4.8c3.5-2.2,9.1-2.5,15.6-0.7l11.9,51.9h-3.8c-0.4,0-0.8,0.4-0.8,0.8v2.8
			c0,0.4,0.4,0.8,0.8,0.8h17.3c0.4,0,0.8-0.4,0.8-0.8V70C77.4,69.6,77,69.2,76.6,69.2z"/>
	</g>
	<g>
	</g>
	<g>
	</g>
	<g>
	</g>
	<g>
	</g>
	<g>
	</g>
	<g>
	</g>
	<g>
	</g>
	<g>
	</g>
	<g>
	</g>
	<g>
	</g>
	<g>
	</g>
	<g>
	</g>
	<g>
	</g>
	<g>
	</g>
	<g>
	</g>
</g>
</svg>
