<?xml version="1.0" encoding="utf-8"?>
<!-- Generator: Adobe Illustrator 22.1.0, SVG Export Plug-In . SVG Version: 6.00 Build 0)  -->
<svg version="1.1" id="Layer_1" xmlns="http://www.w3.org/2000/svg" xmlns:xlink="http://www.w3.org/1999/xlink" x="0px" y="0px"
	 viewBox="0 0 85 85" style="enable-background:new 0 0 85 85;" xml:space="preserve">
<style type="text/css">
	.st0{clip-path:url(#SVGID_2_);fill:#F0B465;}
	.st1{clip-path:url(#SVGID_2_);}
	.st2{clip-path:url(#SVGID_2_);fill:#E84C3D;}
	.st3{clip-path:url(#SVGID_2_);fill:#FFF8D1;}
	.st4{clip-path:url(#SVGID_2_);fill:#4BBFE8;}
</style>
<g>
	<defs>
		<rect id="SVGID_1_" x="12.4" y="2.8" width="60.3" height="79.2"/>
	</defs>
	<clipPath id="SVGID_2_">
		<use xlink:href="#SVGID_1_"  style="overflow:visible;"/>
	</clipPath>
	<path class="st0" d="M17.5,3.5h50.1c2.5,0,4.5,2,4.5,4.5v69c0,2.5-2,4.5-4.5,4.5H17.5c-2.5,0-4.5-2-4.5-4.5v-69
		C13,5.5,15,3.5,17.5,3.5"/>
	<path class="st1" d="M67.5,82H17.5c-2.8,0-5.1-2.3-5.1-5.1v-69c0-2.8,2.3-5.1,5.1-5.1h50.1c2.8,0,5.1,2.3,5.1,5.1v69
		C72.6,79.7,70.4,82,67.5,82 M17.5,4.1c-2.1,0-3.8,1.7-3.8,3.8v69c0,2.1,1.7,3.8,3.8,3.8h50.1c2.1,0,3.8-1.7,3.8-3.8v-69
		c0-2.1-1.7-3.8-3.8-3.8H17.5z"/>
	<path class="st1" d="M72,16.6H13c-0.4,0-0.7-0.3-0.7-0.6c0-0.4,0.3-0.7,0.7-0.7h59c0.4,0,0.7,0.3,0.7,0.7
		C72.6,16.3,72.4,16.6,72,16.6"/>
	<path class="st1" d="M72,69.5H13c-0.4,0-0.7-0.3-0.7-0.7c0-0.4,0.3-0.7,0.7-0.7h59c0.4,0,0.7,0.3,0.7,0.7
		C72.6,69.2,72.4,69.5,72,69.5"/>
	<path class="st2" d="M22.9,7.8c1.3,0,2.4,1.1,2.4,2.4c0,1.4-1.1,2.5-2.4,2.5c-1.3,0-2.4-1.1-2.4-2.5C20.5,8.9,21.6,7.8,22.9,7.8"/>
	<path class="st1" d="M22.9,13.4c-1.7,0-3.1-1.4-3.1-3.1c0-1.7,1.4-3.1,3.1-3.1c1.7,0,3.1,1.4,3.1,3.1C26,12,24.7,13.4,22.9,13.4
		 M22.9,8.5c-1,0-1.8,0.8-1.8,1.8c0,1,0.8,1.8,1.8,1.8c1,0,1.8-0.8,1.8-1.8C24.7,9.3,23.9,8.5,22.9,8.5"/>
	<path class="st2" d="M39.7,7.8c1.3,0,2.4,1.1,2.4,2.4c0,1.4-1.1,2.5-2.4,2.5c-1.4,0-2.5-1.1-2.5-2.5C37.3,8.9,38.4,7.8,39.7,7.8"/>
	<path class="st1" d="M39.7,13.4c-1.7,0-3.1-1.4-3.1-3.1c0-1.7,1.4-3.1,3.1-3.1c1.7,0,3.1,1.4,3.1,3.1C42.8,12,41.4,13.4,39.7,13.4
		 M39.7,8.5c-1,0-1.8,0.8-1.8,1.8c0,1,0.8,1.8,1.8,1.8c1,0,1.8-0.8,1.8-1.8C41.5,9.3,40.7,8.5,39.7,8.5"/>
	<rect x="54.3" y="8.6" class="st3" width="10.2" height="3.3"/>
	<path class="st1" d="M64.5,12.6H54.3c-0.4,0-0.7-0.3-0.7-0.7V8.6c0-0.4,0.3-0.7,0.7-0.7h10.2c0.4,0,0.7,0.3,0.7,0.7V12
		C65.1,12.3,64.8,12.6,64.5,12.6 M54.9,11.3h8.9v-2h-8.9V11.3z"/>
	<path class="st4" d="M42.5,24c10.2,0,18.4,8.3,18.4,18.4c0,10.2-8.3,18.4-18.4,18.4c-10.2,0-18.4-8.3-18.4-18.4
		C24.1,32.2,32.3,24,42.5,24"/>
	<path class="st1" d="M42.5,61.5c-10.5,0-19.1-8.6-19.1-19.1c0-10.5,8.6-19.1,19.1-19.1c10.5,0,19.1,8.6,19.1,19.1
		C61.6,52.9,53,61.5,42.5,61.5 M42.5,24.6c-9.8,0-17.8,8-17.8,17.8c0,9.8,8,17.8,17.8,17.8c9.8,0,17.8-8,17.8-17.8
		C60.3,32.6,52.3,24.6,42.5,24.6"/>
	<path class="st1" d="M50.6,50.2c-1.2,0-2.4-0.6-3.8-1.4c-2-1-4.8-2.5-9.1-2.9c-2.8-0.3-7.3-0.4-13.5-0.5c-0.4,0-0.6-0.3-0.6-0.7
		c0-0.4,0.3-0.6,0.6-0.6h0c6.2,0,10.8,0.2,13.6,0.5c4.5,0.4,7.4,1.9,9.5,3c3,1.5,4.1,2.1,6.7-1.6c0.4-0.5,0.7-1,1-1.5
		c1.9-2.7,3.4-4.9,5.2-6c0.3-0.2,0.7-0.1,0.9,0.2c0.2,0.3,0.1,0.7-0.2,0.9c-1.6,1-3,3.1-4.8,5.7c-0.3,0.5-0.7,1-1,1.5
		C53.4,49.4,52,50.2,50.6,50.2"/>
</g>
<g>
</g>
<g>
</g>
<g>
</g>
<g>
</g>
<g>
</g>
<g>
</g>
<g>
</g>
<g>
</g>
<g>
</g>
<g>
</g>
<g>
</g>
<g>
</g>
<g>
</g>
<g>
</g>
<g>
</g>
</svg>
