<?xml version="1.0" encoding="utf-8"?>
<!-- Generator: Adobe Illustrator 22.1.0, SVG Export Plug-In . SVG Version: 6.00 Build 0)  -->
<svg version="1.1" id="Layer_2" xmlns="http://www.w3.org/2000/svg" xmlns:xlink="http://www.w3.org/1999/xlink" x="0px" y="0px"
	 viewBox="0 0 85 85" style="enable-background:new 0 0 85 85;" xml:space="preserve">
<style type="text/css">
	.st0{fill:#4BBFE8;}
	.st1{fill:#707384;}
	.st2{fill:#F0B465;}
	.st3{fill:#E84C3D;}
</style>
<g>
	<g>
		<path class="st0" d="M41.9,25.3c0.3-0.3,0.6-0.5,0.8-0.8c1.1-1,2.1-2,2.9-2.8c0.8-0.9,1.5-1.6,1.9-2.2c0.2-0.3,0.4-0.5,0.5-0.7
			c0.1-0.2,0.2-0.2,0.2-0.2s-0.1,0-0.3,0.1c-0.2,0.1-0.4,0.2-0.8,0.3c-0.6,0.3-1.5,0.7-2.6,1.3c-1,0.6-2.2,1.3-3.5,2.1
			c-0.3,0.2-0.6,0.4-0.9,0.6c-0.3,0.2-0.6,0.4-0.9,0.7c-0.3,0.2-0.5,0.4-0.8,0.6c-0.2-0.2-0.4-0.5-0.6-0.7c-0.2-0.3-0.5-0.6-0.8-0.9
			c-0.3-0.3-0.5-0.6-0.8-0.8c-1-1.1-2-2.1-2.8-2.9c-0.9-0.8-1.6-1.5-2.2-1.9c-0.3-0.2-0.5-0.4-0.7-0.5c-0.2-0.1-0.2-0.2-0.2-0.2
			s0,0.1,0.1,0.3c0.1,0.2,0.2,0.4,0.3,0.8c0.3,0.6,0.7,1.5,1.3,2.6c0.6,1,1.3,2.2,2.1,3.5c0.2,0.3,0.4,0.6,0.6,0.9
			c0.2,0.3,0.4,0.6,0.7,0.9c0.2,0.3,0.4,0.5,0.6,0.8c-0.2,0.2-0.5,0.4-0.7,0.6c-0.3,0.2-0.6,0.5-0.9,0.8c-0.3,0.3-0.6,0.5-0.8,0.8
			c-1.1,1-2.1,2-2.9,2.8c-0.8,0.9-1.5,1.6-1.9,2.2c-0.2,0.3-0.4,0.5-0.5,0.7c-0.1,0.2-0.2,0.2-0.2,0.2s0.1,0,0.3-0.1
			c0.2-0.1,0.4-0.2,0.8-0.3c0.6-0.3,1.5-0.7,2.6-1.3c1-0.6,2.2-1.3,3.5-2.1c0.3-0.2,0.6-0.4,0.9-0.6c0.3-0.2,0.6-0.4,0.9-0.7
			c0.3-0.2,0.5-0.4,0.8-0.6c0.2,0.2,0.4,0.5,0.6,0.7c0.2,0.3,0.5,0.6,0.8,0.9c0.3,0.3,0.5,0.6,0.8,0.8c1,1.1,2,2.1,2.8,2.9
			c0.9,0.8,1.6,1.5,2.2,1.9c0.3,0.2,0.5,0.4,0.7,0.5c0.2,0.1,0.2,0.2,0.2,0.2s0-0.1-0.1-0.3c-0.1-0.2-0.2-0.4-0.3-0.8
			c-0.3-0.6-0.7-1.5-1.3-2.6c-0.6-1-1.3-2.2-2.1-3.5c-0.2-0.3-0.4-0.6-0.6-0.9c-0.2-0.3-0.4-0.6-0.7-0.9c-0.2-0.3-0.4-0.5-0.6-0.8
			c0.2-0.2,0.5-0.4,0.7-0.6C41.4,25.8,41.6,25.6,41.9,25.3z"/>
	</g>
	<path class="st1" d="M52.9,73.3v-5.6h-1.1h-1.1v4.6L43,72.4c-0.2,0.4-0.3,0.7-0.5,1.1c-0.2,0.4-0.4,0.7-0.6,1.1l10-0.3
		C52.4,74.3,52.9,73.8,52.9,73.3z"/>
	<path class="st1" d="M51.8,48h1.1V17.9c0-0.5-0.3-0.9-0.8-1L23.9,8.2c0,0,0,0,0,0c-0.1,0-0.1,0-0.2,0c0,0-0.1,0-0.1,0c0,0,0,0,0,0
		h-5.8c-0.5,0-1,0.4-1.1,0.9l-1.3-0.8c0,0,0,0,0,0c-0.1,0-0.1-0.1-0.2-0.1c0,0,0,0-0.1,0c-0.1,0-0.1,0-0.2,0c0,0,0,0-0.1,0
		c0,0,0,0,0,0L9.1,8.3c-0.6,0-1.1,0.5-1.1,1.1V74c0,0.6,0.5,1.1,1.1,1.1h5.8c0,0,0,0,0.1,0l2.3-0.1c0.1,0.1,0.3,0.1,0.5,0.1h5.8
		c0,0,0,0,0,0l7.7-0.2c-0.1-0.2-0.2-0.4-0.3-0.7c-0.1-0.1-0.1-0.3-0.2-0.4c-0.1-0.2-0.2-0.4-0.2-0.7c0-0.1-0.1-0.3-0.1-0.4l-5.8,0.1
		v-0.5V41v-2.3v-2.1l15.9,2.9l1.1,0.2l1.1,0.2l8,1.4V48L51.8,48L51.8,48z M22.5,37.8v2.4v32.3v0.4h-3.6v-0.2v-34v-2.3h0.2h3.4V37.8z
		 M10.2,36.5l3.3-0.1l0.3,0.1v36.4h-3.6C10.2,72.9,10.2,36.5,10.2,36.5z M10.2,10.4l3.6-0.1v23.9l-3.6,0.1V10.4z M18.9,10.3
		L18.9,10.3l3.6,0v2.2v1.3V15v19.2h-3.6V12.9v-1.3V10.3z M16.7,35.4L16,35.1V11.1l0.7,0.4V35.4z M16,37.4l0.7,0.3v35.1l-0.7,0V37.4z
		 M42.8,37.6l-1.1-0.2l-1.1-0.2l-15.9-2.9v-18V15v-1.3v-3.1l26,8v20.4L42.8,37.6z"/>
	<path class="st2" d="M75.2,75.3c1.6-1.8,2.1-5,1.6-9.7c-0.4-3.3-1.6-7.5-2.5-10.4c-0.8-2.3-1.4-3.9-1.4-4c0-0.1-0.1-0.2-0.2-0.3
		l-1.6-1.8c-0.2-0.2-0.4-0.3-0.7-0.4c-0.2,0-2.4-0.3-3.3-0.3c-0.8,0-1.7,0.4-2.1,0.6h-3.8c0,0,0,0,0,0h-8.2h-1.1h-1.1h-3.5
		c0,0,0,0,0,0h-3.8c-0.2-0.1-0.4-0.2-0.6-0.3c-0.3-0.1-0.7-0.2-1.1-0.3c-0.1,0-0.3,0-0.4,0c-0.2,0-0.4,0-0.7,0
		c-1.1,0.1-2.6,0.2-2.7,0.2c-0.3,0-0.5,0.2-0.7,0.4l-1.6,1.8c-0.1,0.1-0.2,0.2-0.2,0.4c0,0-0.6,1.9-1.4,4.4c-0.8,2.8-2,6.9-2.5,10.3
		c-0.4,2.4-0.4,4.4-0.1,6c0,0.2,0.1,0.5,0.2,0.7c0,0.1,0.1,0.3,0.1,0.4c0.1,0.2,0.2,0.5,0.3,0.7c0.1,0.1,0.1,0.3,0.2,0.4
		c0.1,0.2,0.3,0.5,0.5,0.7c0.1,0.1,0.1,0.2,0.2,0.2c1,1.2,2.4,1.8,4.1,1.8c1.5,0,2.6-0.9,3.6-2.2c0.2-0.3,0.4-0.6,0.6-1
		c0,0,0-0.1,0.1-0.1c0.2-0.4,0.4-0.7,0.6-1.1c0.4-0.8,0.7-1.6,1-2.5c0.1-0.4,0.3-0.8,0.4-1.2c0.3-0.8,0.7-1.8,0.9-2.1
		c0.1,0,0.1-0.1,0.2-0.1c0.8,0.6,1.9,1,2.9,1c1.1,0,2.2-0.4,3-1h0.5h1.1h1.1h5.2c0.9,0.7,1.9,1,3,1c1,0,2-0.3,2.9-0.9
		c0.1,0,0.2,0.1,0.3,0.1c0.2,0.4,0.5,1.3,0.8,2.1c1.1,3.2,2.7,8,6.3,8C72.9,76.9,74.2,76.3,75.2,75.3z M65.3,64.8
		c-0.5-0.2-1-0.4-1.5-0.4c-0.1,0-0.1,0-0.2,0c-0.3,0-0.5,0.1-0.7,0.3c-1,0.9-2.7,0.9-3.7,0c-0.2-0.2-0.5-0.3-0.7-0.3h-5.6h-1.1h-1.1
		h-0.9c-0.3,0-0.5,0.1-0.7,0.3c-1,1-2.7,1-3.7,0c-0.2-0.2-0.5-0.3-0.9-0.3c-0.6,0.1-1.2,0.2-1.7,0.5c0,0,0,0,0,0
		c-0.4,0.3-0.7,0.8-1.1,1.7c-0.2,0.4-0.3,0.8-0.5,1.4c-0.2,0.4-0.4,1-0.6,1.5c-0.3,0.6-0.5,1.3-0.8,2c-0.2,0.3-0.3,0.6-0.5,0.9
		c0,0.1-0.1,0.1-0.1,0.2c-0.2,0.3-0.4,0.7-0.6,0.9c-0.1,0.1-0.1,0.1-0.2,0.2c-0.5,0.6-1,0.9-1.5,0.9c-0.9,0-1.6-0.2-2.2-0.7
		c-0.1-0.1-0.2-0.2-0.3-0.3c0,0,0,0,0,0c-0.2-0.2-0.3-0.5-0.5-0.7c0-0.1-0.1-0.2-0.1-0.3c-0.1-0.2-0.2-0.5-0.2-0.7
		c-0.3-1.4-0.3-3.3,0.1-5.6c0.6-3.3,1.7-7.3,2.5-10c0.6-2,1.1-3.6,1.3-4.2l1.1-1.3c0.6-0.1,1.4-0.1,2-0.2c0.3,0,0.5,0,0.7,0
		c0.1,0,0.3,0,0.4,0.1c0.3,0.1,0.7,0.3,0.8,0.4c0.1,0.1,0.2,0.1,0.3,0.1c0.1,0,0.2,0,0.3,0h3v1.1v5.1c0,0.6,0.5,1.1,1.1,1.1h3.5h1.1
		h1.1h8.2c0.6,0,1.1-0.5,1.1-1.1v-5.1v-1.1h3c0.2,0,0.4-0.1,0.6-0.2c0.2-0.1,0.9-0.5,1.3-0.5c0.5,0,1.9,0.1,2.7,0.2l1.2,1.3
		c0.2,0.5,0.7,1.9,1.3,3.7c0.9,2.8,2.1,6.9,2.4,10c0.4,4.1,0.1,6.8-1,8c-0.5,0.6-1.2,0.9-2.2,0.9c-2,0-3.4-4.1-4.2-6.6
		C66.5,66.2,66.1,65.2,65.3,64.8z M48.3,51.2L48.3,51.2l2.5,0h1.1h1.1H60v0v1.1v4h-7.1h-1.1h-1.1h-2.5v-4V51.2z"/>
	<circle class="st3" cx="47.2" cy="62" r="1.9"/>
	<circle class="st3" cx="61.1" cy="62" r="1.9"/>
	<path class="st3" d="M43.4,55.9h-0.6h-0.7v-1.3c0-0.3-0.2-0.6-0.4-0.8c-0.2-0.2-0.4-0.3-0.7-0.3c-0.1,0-0.3,0-0.4,0.1
		c-0.4,0.2-0.7,0.6-0.7,1v1.3h-1.3c-0.6,0-1.1,0.5-1.1,1.1s0.5,1.1,1.1,1.1h1.3v1.3c0,0.5,0.3,0.9,0.7,1c0.1,0,0.3,0.1,0.4,0.1
		c0.3,0,0.5-0.1,0.7-0.3c0.2-0.2,0.4-0.5,0.4-0.8V58h0.7h0.6c0.6,0,1.1-0.5,1.1-1.1S44,55.9,43.4,55.9z"/>
	<path class="st3" d="M55.2,61.1h-2.3h-0.1c-0.4,0-0.8,0.2-1,0.6c-0.1,0.2-0.1,0.3-0.1,0.5c0,0.2,0.1,0.4,0.1,0.5
		c0.1,0.3,0.4,0.5,0.7,0.5c0.1,0,0.2,0,0.3,0h0.1h2.3c0.1,0,0.2,0,0.3,0c0.5-0.1,0.8-0.5,0.8-1.1C56.3,61.6,55.8,61.1,55.2,61.1z"/>
	<circle class="st3" cx="67.2" cy="54.3" r="1.2"/>
	<circle class="st3" cx="67.2" cy="58.6" r="1.2"/>
	<circle class="st3" cx="65.1" cy="56.4" r="1.2"/>
	<circle class="st3" cx="69.4" cy="56.4" r="1.2"/>
</g>
<g>
</g>
<g>
</g>
<g>
</g>
<g>
</g>
<g>
</g>
<g>
</g>
<g>
</g>
<g>
</g>
<g>
</g>
<g>
</g>
<g>
</g>
<g>
</g>
<g>
</g>
<g>
</g>
<g>
</g>
</svg>
